<svg xmlns="http://www.w3.org/2000/svg" width="43" height="42" viewBox="0 0 43 42" fill="none">
  <mask id="mask0_473_1010" style="mask-type:alpha" maskUnits="userSpaceOnUse" x="0" y="0" width="43" height="42">
    <path d="M0 0H43V42H0V0Z" fill="#D9D9D9"/>
  </mask>
  <g mask="url(#mask0_473_1010)">
    <path d="M21.5 37C17.7594 37 14.5742 35.7104 11.9445 33.1312C9.31484 30.552 8 27.4121 8 23.7115C8 21.9453 8.35021 20.2559 9.05062 18.6432C9.751 17.0305 10.7185 15.5998 11.9531 14.3512L21.5 5L31.0469 14.3512C32.2815 15.5998 33.249 17.0308 33.9494 18.6439C34.6498 20.257 35 21.9473 35 23.7147C35 27.4179 33.6852 30.5579 31.0555 33.1348C28.4258 35.7116 25.2406 37 21.5 37ZM21.5 34.3046C24.5 34.3046 27.05 33.2817 29.15 31.2359C31.25 29.1901 32.3 26.6834 32.3 23.7157C32.3 22.3068 32.03 20.9653 31.49 19.6913C30.95 18.4173 30.17 17.3007 29.15 16.3415L21.5 8.78741L13.85 16.3415C12.83 17.3007 12.05 18.4173 11.51 19.6913C10.97 20.9653 10.7 22.3068 10.7 23.7157C10.7 26.6834 11.75 29.1901 13.85 31.2359C15.95 33.2817 18.5 34.3046 21.5 34.3046Z" fill="#14213D"/>
  </g>
</svg>