<svg xmlns="http://www.w3.org/2000/svg" width="31" height="31" viewBox="0 0 31 31" fill="none">
  <path d="M15.5 31C13.3558 31 11.3408 30.5931 9.455 29.7794C7.56917 28.9656 5.92875 27.8612 4.53375 26.4662C3.13875 25.0713 2.03437 23.4308 1.22063 21.545C0.406875 19.6592 0 17.6442 0 15.5C0 13.3558 0.406875 11.3408 1.22063 9.455C2.03437 7.56917 3.13875 5.92875 4.53375 4.53375C5.92875 3.13875 7.56917 2.03437 9.455 1.22063C11.3408 0.406875 13.3558 0 15.5 0C17.6442 0 19.6592 0.406875 21.545 1.22063C23.4308 2.03437 25.0713 3.13875 26.4662 4.53375C27.8612 5.92875 28.9656 7.56917 29.7794 9.455C30.5931 11.3408 31 13.3558 31 15.5V17.5538C31 19.0004 30.4898 20.221 29.4694 21.2156C28.449 22.2102 27.2025 22.7075 25.73 22.7075C24.8 22.7075 23.9217 22.4815 23.095 22.0294C22.2683 21.5773 21.6354 20.9379 21.1963 20.1112C20.5246 20.9896 19.685 21.6419 18.6775 22.0681C17.67 22.4944 16.6108 22.7075 15.5 22.7075C13.485 22.7075 11.7735 22.01 10.3656 20.615C8.95771 19.22 8.25375 17.515 8.25375 15.5C8.25375 13.485 8.95771 11.7671 10.3656 10.3463C11.7735 8.92542 13.485 8.215 15.5 8.215C17.515 8.215 19.2265 8.92542 20.6344 10.3463C22.0423 11.7671 22.7463 13.485 22.7463 15.5V17.5538C22.7463 18.3546 23.0369 19.0263 23.6181 19.5688C24.1994 20.1112 24.9033 20.3825 25.73 20.3825C26.5308 20.3825 27.2219 20.1112 27.8031 19.5688C28.3844 19.0263 28.675 18.3546 28.675 17.5538V15.5C28.675 11.8317 27.3962 8.71875 24.8388 6.16125C22.2812 3.60375 19.1683 2.325 15.5 2.325C11.8317 2.325 8.71875 3.60375 6.16125 6.16125C3.60375 8.71875 2.325 11.8317 2.325 15.5C2.325 19.1683 3.60375 22.2812 6.16125 24.8388C8.71875 27.3962 11.8317 28.675 15.5 28.675H23.7925V31H15.5ZM15.5 20.3825C16.8692 20.3825 18.0317 19.911 18.9875 18.9681C19.9433 18.0252 20.4212 16.8692 20.4212 15.5C20.4212 14.105 19.9433 12.9296 18.9875 11.9738C18.0317 11.0179 16.8692 10.54 15.5 10.54C14.1308 10.54 12.9683 11.0179 12.0125 11.9738C11.0567 12.9296 10.5787 14.105 10.5787 15.5C10.5787 16.8692 11.0567 18.0252 12.0125 18.9681C12.9683 19.911 14.1308 20.3825 15.5 20.3825Z" fill="#14213D"/>
</svg>