<svg xmlns="http://www.w3.org/2000/svg" width="61" height="61" viewBox="0 0 61 61" fill="none">
  <circle cx="30.5" cy="30.5" r="30.5" fill="#A88D69"/>
  <path fill-rule="evenodd" clip-rule="evenodd" d="M41.4959 19.4518C41.497 19.4518 41.4975 19.4505 41.4967 19.4498C38.8415 16.834 35.3263 15.2642 31.6003 15.0305C27.8733 14.7966 24.1874 15.9153 21.2237 18.1797C18.2599 20.4441 16.2188 23.7013 15.4773 27.3491C14.7634 30.8615 15.3009 34.5074 16.9894 37.6616C17.1148 37.8957 17.1506 38.1686 17.0803 38.4247L15.4587 44.3297C15.2548 45.072 15.9311 45.7566 16.6759 45.562L22.805 43.96C23.0509 43.8957 23.3115 43.9288 23.5378 44.0444C25.712 45.1547 28.1216 45.7349 30.5683 45.7346C33.621 45.7292 36.6037 44.823 39.1405 43.1304C41.6772 41.4378 43.6544 39.0346 44.8228 36.2236C45.9912 33.4128 46.2985 30.32 45.7059 27.3352C45.1135 24.3514 43.6484 21.6091 41.4951 19.4538C41.4943 19.4531 41.4948 19.4518 41.4959 19.4518ZM30.574 43.1352C28.2754 43.1351 26.0189 42.5191 24.0409 41.3518L23.9335 41.2865C23.7021 41.1458 23.4236 41.105 23.1616 41.1734L20.3821 41.8985C19.6369 42.0929 18.9608 41.4074 19.1657 40.6649L19.887 38.0504C19.9617 37.7795 19.919 37.4897 19.7694 37.2519L19.7008 37.143C18.1877 34.7406 17.5185 31.9052 17.7984 29.0823C18.0782 26.2596 19.2913 23.6095 21.2468 21.5487C23.2023 19.4879 25.7895 18.1332 28.6017 17.6975C31.4139 17.2619 34.2915 17.77 36.7824 19.142C39.2733 20.514 41.2362 22.672 42.3624 25.277C43.4887 27.8819 43.7145 30.7861 43.0044 33.5329C42.2943 36.2797 40.6885 38.7135 38.4395 40.4516C36.1904 42.1897 33.4257 43.1337 30.5798 43.1352H30.574ZM37.6024 33.5534C37.2188 33.3594 35.3121 32.4292 34.9657 32.3008C34.6193 32.1724 34.3559 32.1096 34.1068 32.4948C33.8578 32.88 33.1105 33.7446 32.8844 34.0014C32.6582 34.2582 32.4349 34.2867 32.0484 34.0984C30.9131 33.6497 29.8641 33.0087 28.948 32.2037C28.1047 31.4254 27.3812 30.5273 26.8008 29.5386C26.5774 29.1534 26.7779 28.9451 26.9697 28.7539C27.1615 28.5628 27.3562 28.306 27.5423 28.0806C27.7007 27.8862 27.8299 27.6699 27.9259 27.4385C27.9775 27.3326 28.0017 27.2154 27.9962 27.0978C27.9907 26.9802 27.9557 26.8658 27.8944 26.7651C27.7999 26.5711 27.0355 24.6793 26.7063 23.9117C26.3771 23.1441 26.0736 23.264 25.8475 23.2526C25.6213 23.2411 25.3664 23.2526 25.1088 23.2526C24.9133 23.2578 24.7211 23.3033 24.5442 23.3863C24.3673 23.4693 24.2096 23.588 24.081 23.7348C23.6459 24.1416 23.2998 24.6337 23.0649 25.1803C22.8299 25.7269 22.7109 26.316 22.7155 26.9106C22.7155 28.8053 24.0982 30.6201 24.29 30.8883C24.4818 31.1565 27.0126 35.0314 30.8746 36.6979C31.5925 37.0071 32.3264 37.2776 33.0733 37.5082C33.8607 37.746 34.6929 37.7978 35.5039 37.6595C36.2454 37.5482 37.7942 36.7293 38.1092 35.8304C38.424 34.9316 38.4298 34.1612 38.3353 34.0014C38.2408 33.8416 38.0003 33.7446 37.6024 33.5534Z" fill="#E8E9ED"/>
</svg>