<svg xmlns="http://www.w3.org/2000/svg" width="43" height="42" viewBox="0 0 43 42" fill="none">
  <mask id="mask0_473_1016" style="mask-type:alpha" maskUnits="userSpaceOnUse" x="0" y="0" width="43" height="42">
    <path d="M0 0H43V42H0V0Z" fill="#D9D9D9"/>
  </mask>
  <g mask="url(#mask0_473_1016)">
    <path d="M9.63634 35V27.7245H7V24.9963H9.63634V20.449H7V17.7208H9.63634V12.0018L14.4697 7L17.9848 10.6377L21.5439 7L25.0591 10.6377L28.5743 7L33.4076 12.0018V17.7208H36V20.449H33.4076V24.9963H36V27.7245H33.4076V35H9.63634ZM12.2726 17.7208H16.6667V13.1176L14.4697 10.844L12.2726 13.1176V17.7208ZM19.303 17.7208H23.697V13.1176L21.5 10.844L19.303 13.1176V17.7208ZM26.3773 17.7208H30.7274V13.1176L28.5303 10.844L26.3773 13.0897V17.7208ZM12.2726 24.9963H16.6667V20.449H12.2726V24.9963ZM19.303 24.9963H23.697V20.449H19.303V24.9963ZM26.3773 24.9963H30.7274V20.449H26.3773V24.9963ZM12.2726 32.2718H16.6667V27.7245H12.2726V32.2718ZM19.303 32.2718H23.697V27.7245H19.303V32.2718ZM26.3773 32.2718H30.7274V27.7245H26.3773V32.2718Z" fill="#14213D"/>
  </g>
</svg>