<svg xmlns="http://www.w3.org/2000/svg" width="74" height="16" viewBox="0 0 74 16" fill="none">
  <path d="M1.07471 7C0.522422 7 0.074707 7.44772 0.074707 8C0.074707 8.55228 0.522422 9 1.07471 9V7ZM73.6179 8.70711C74.0084 8.31658 74.0084 7.68342 73.6179 7.29289L67.2539 0.928932C66.8634 0.538408 66.2302 0.538408 65.8397 0.928932C65.4492 1.31946 65.4492 1.95262 65.8397 2.34315L71.4966 8L65.8397 13.6569C65.4492 14.0474 65.4492 14.6805 65.8397 15.0711C66.2302 15.4616 66.8634 15.4616 67.2539 15.0711L73.6179 8.70711ZM1.07471 9H72.9108V7H1.07471V9Z" fill="#E8E9ED"/>
</svg>