<svg xmlns="http://www.w3.org/2000/svg" width="39" height="31" viewBox="0 0 39 31" fill="none">
  <path d="M2.02499 16.725C1.35682 15.6159 0.852268 14.4864 0.511343 13.3364C0.170448 12.1864 0 11.05 0 9.92727C0 7.16362 0.96364 4.81817 2.89092 2.89092C4.81817 0.963641 7.16362 0 9.92727 0C11.7204 0 13.442 0.465341 15.092 1.39602C16.7421 2.3267 18.2114 3.66817 19.5 5.42042C20.7886 3.66817 22.2579 2.3267 23.908 1.39602C25.558 0.465341 27.2796 0 29.0727 0C31.8364 0 34.1818 0.963641 36.1091 2.89092C38.0364 4.81817 39 7.16362 39 9.92727C39 11.0046 38.8296 12.1068 38.4887 13.2341C38.1477 14.3614 37.6432 15.5136 36.975 16.6909C36.7903 16.4468 36.5719 16.2284 36.3199 16.0356C36.068 15.8429 35.8057 15.6818 35.5329 15.5523C36.0943 14.5545 36.517 13.5886 36.8012 12.6545C37.0852 11.7204 37.2273 10.8114 37.2273 9.92727C37.2273 7.64545 36.4386 5.71591 34.8613 4.13865C33.2841 2.56137 31.3546 1.77273 29.0727 1.77273C27.2477 1.77273 25.5904 2.32216 24.1006 3.42101C22.6108 4.51989 21.0773 6.09774 19.5 8.15454C17.9227 6.09091 16.3892 4.51137 14.8994 3.41591C13.4096 2.32046 11.7523 1.77273 9.92727 1.77273C7.64545 1.77273 5.71591 2.56137 4.13865 4.13865C2.56137 5.71591 1.77273 7.64545 1.77273 9.92727C1.77273 10.8568 1.91477 11.7943 2.19885 12.7397C2.48296 13.6852 2.89432 14.6341 3.43293 15.5864C3.16023 15.7386 2.90455 15.9057 2.66592 16.0875C2.42728 16.2693 2.21363 16.4818 2.02499 16.725ZM0 30.2046V28.6739C0 27.5784 0.578456 26.6733 1.73537 25.9585C2.89231 25.2437 4.39372 24.8863 6.2396 24.8863C6.5776 24.8863 6.90114 24.8994 7.21021 24.9256C7.51932 24.9517 7.81364 24.9943 8.09317 25.0534C7.83863 25.5079 7.64205 25.9853 7.50342 26.4856C7.36477 26.9858 7.29544 27.5186 7.29544 28.0841V30.2046H0ZM10.6364 30.2046V28.2103C10.6364 26.7443 11.4559 25.5795 13.0949 24.7159C14.734 23.8523 16.8721 23.4204 19.5094 23.4204C22.1713 23.4204 24.3125 23.8523 25.933 24.7159C27.5534 25.5795 28.3636 26.7443 28.3636 28.2103V30.2046H10.6364ZM31.7046 30.2046V28.0841C31.7046 27.5186 31.6426 26.9858 31.5187 26.4856C31.3949 25.9853 31.2091 25.5079 30.9613 25.0534C31.2409 24.9943 31.5356 24.9517 31.8455 24.9256C32.1554 24.8994 32.4721 24.8863 32.7955 24.8863C34.6568 24.8863 36.1562 25.2437 37.2938 25.9585C38.4313 26.6733 39 27.5784 39 28.6739V30.2046H31.7046ZM19.4958 25.1932C17.4963 25.1932 15.8375 25.4602 14.5193 25.9943C13.2011 26.5284 12.5148 27.2159 12.4602 28.0568V28.4318H26.55V28.0568C26.4886 27.2159 25.8063 26.5284 24.5029 25.9943C23.1994 25.4602 21.5304 25.1932 19.4958 25.1932ZM6.23863 23.2159C5.54487 23.2159 4.95098 22.9689 4.45695 22.4749C3.96292 21.9808 3.7159 21.3869 3.7159 20.6932C3.7159 20.0068 3.96292 19.4204 4.45695 18.9341C4.95098 18.4477 5.54487 18.2045 6.23863 18.2045C6.925 18.2045 7.51704 18.4477 8.01477 18.9341C8.51249 19.4204 8.76135 20.0068 8.76135 20.6932C8.76135 21.3869 8.51249 21.9808 8.01477 22.4749C7.51704 22.9689 6.925 23.2159 6.23863 23.2159ZM32.7955 23.2159C32.1159 23.2159 31.5256 22.9689 31.0244 22.4749C30.5233 21.9808 30.2727 21.3869 30.2727 20.6932C30.2727 20.0068 30.5233 19.4204 31.0244 18.9341C31.5256 18.4477 32.1181 18.2045 32.8021 18.2045C33.5067 18.2045 34.1023 18.4477 34.5887 18.9341C35.075 19.4204 35.3182 20.0068 35.3182 20.6932C35.3182 21.3869 35.0764 21.9808 34.5929 22.4749C34.1094 22.9689 33.5102 23.2159 32.7955 23.2159ZM19.512 22.0909C18.4358 22.0909 17.517 21.713 16.7557 20.9574C15.9943 20.2017 15.6136 19.2841 15.6136 18.2045C15.6136 17.1034 15.9914 16.1804 16.7471 15.4355C17.5028 14.6906 18.4204 14.3181 19.5 14.3181C20.6011 14.3181 21.5241 14.6894 22.269 15.432C23.0139 16.1746 23.3864 17.0948 23.3864 18.1925C23.3864 19.2687 23.0151 20.1875 22.2725 20.9488C21.5299 21.7102 20.6097 22.0909 19.512 22.0909ZM19.5 16.0909C18.9295 16.0909 18.4347 16.2935 18.0153 16.6986C17.596 17.1037 17.3864 17.6057 17.3864 18.2045C17.3864 18.775 17.596 19.2699 18.0153 19.6892C18.4347 20.1085 18.9352 20.3182 19.5171 20.3182C20.0989 20.3182 20.5938 20.1085 21.0017 19.6892C21.4097 19.2699 21.6136 18.7693 21.6136 18.1875C21.6136 17.6057 21.4111 17.1108 21.006 16.7028C20.6008 16.2949 20.0989 16.0909 19.5 16.0909Z" fill="#003A70"/>
</svg>