<svg xmlns="http://www.w3.org/2000/svg" width="84" height="73" viewBox="0 0 84 73" fill="none">
  <path d="M40.0154 27.6925L73.0647 6.39049H6.96618L40.0154 27.6925ZM40.0154 34.3287L6.31814 12.5352V56.2042C6.31814 56.5866 6.43966 56.9007 6.6827 57.1465C6.92574 57.3924 7.23629 57.5153 7.61433 57.5153H28.5373L34.8554 63.9058H7.61433C5.48662 63.9058 3.68564 63.1602 2.21139 61.6691C0.737128 60.1779 0 58.3563 0 56.2042V7.70153C0 5.54946 0.737128 3.72785 2.21139 2.23671C3.68564 0.74557 5.48662 0 7.61433 0H72.4166C74.5443 0 76.3452 0.74557 77.8195 2.23671C79.2938 3.72785 80.0309 5.54946 80.0309 7.70153V27.4633L73.7127 33.8537V12.5352L40.0154 34.3287Z" fill="#1C1F1B"/>
  <path d="M39.2378 56.3684L55.6813 73L83.9999 44.3573L79.561 39.8677L55.6813 64.0208L43.6767 51.8787L39.2378 56.3684Z" fill="#29B612"/>
</svg>