<svg xmlns="http://www.w3.org/2000/svg" width="33" height="35" viewBox="0 0 33 35" fill="none">
  <path d="M28.4529 34.9893C28.2543 34.9893 28.071 34.9566 27.9031 34.8913C27.7353 34.8259 27.5709 34.7125 27.4101 34.5509L18.2167 25.3483C18.0559 25.1867 17.943 25.0216 17.878 24.8529C17.8129 24.6841 17.7804 24.5 17.7804 24.3004C17.7804 24.1008 17.8129 23.9167 17.878 23.748C17.943 23.5793 18.0559 23.4141 18.2167 23.2525L21.2847 20.1696C21.4455 20.008 21.6099 19.8945 21.7777 19.8292C21.9456 19.7638 22.1289 19.7311 22.3275 19.7311C22.5261 19.7311 22.7094 19.7638 22.8773 19.8292C23.0452 19.8945 23.2095 20.008 23.3703 20.1696L32.5637 29.4079C32.7245 29.5694 32.8374 29.7345 32.9025 29.9033C32.9675 30.0719 33 30.2561 33 30.4557C33 30.6553 32.9675 30.8394 32.9025 31.0081C32.8374 31.1769 32.7245 31.342 32.5637 31.5035L29.4957 34.5509C29.3349 34.7125 29.1706 34.8259 29.0027 34.8913C28.8348 34.9566 28.6515 34.9893 28.4529 34.9893ZM28.4529 33.0468L31.0315 30.4557L22.3381 21.72L19.7596 24.3111L28.4529 33.0468ZM4.55775 35C4.35911 35 4.17408 34.9655 4.00264 34.8966C3.83121 34.8277 3.66509 34.7125 3.5043 34.5509L0.446936 31.5142C0.286138 31.3527 0.171449 31.1857 0.102869 31.0135C0.0342896 30.8412 0 30.6553 0 30.4557C0 30.2561 0.0342896 30.066 0.102869 29.8854C0.171449 29.7048 0.286138 29.5338 0.446936 29.3722L9.93832 19.8345H13.7866L15.2125 18.4017L7.39167 10.5428H4.76344L0.10642 5.86306L4.0399 1.9104L8.69693 6.59013V9.23117L16.5177 17.0901L22.0792 11.5015L18.6778 8.08352L20.7633 5.98779H16.5816L15.8225 5.26072L21.0577 0L21.7813 0.727074V4.96487L23.8668 2.86914L31.1946 10.1614C31.6463 10.5915 31.9809 11.0851 32.1984 11.6423C32.4159 12.1995 32.5247 12.7894 32.5247 13.4119C32.5247 13.8681 32.4573 14.3113 32.3226 14.7413C32.1878 15.1714 31.9892 15.5777 31.7267 15.9603L27.9492 12.1645L25.3317 14.7948L23.3596 12.8132L15.0564 21.1568V25.0845L5.60051 34.5509C5.43971 34.7125 5.27538 34.8277 5.10751 34.8966C4.93961 34.9655 4.75636 35 4.55775 35ZM4.55775 33.0112L13.6377 23.887V21.2958H11.0591L1.97919 30.4201L4.55775 33.0112ZM4.55775 33.0112L1.97919 30.4201L3.27375 31.7103L4.55775 33.0112Z" fill="#003A70"/>
</svg>