<svg xmlns="http://www.w3.org/2000/svg" width="27" height="34" viewBox="0 0 27 34" fill="none">
  <path d="M13.5066 16.5328C14.3376 16.5328 15.0468 16.2369 15.6342 15.6451C16.2216 15.0533 16.5153 14.3419 16.5153 13.5108C16.5153 12.6798 16.2194 11.9706 15.6276 11.3833C15.0358 10.7959 14.3244 10.5022 13.4934 10.5022C12.6624 10.5022 11.9532 10.798 11.3658 11.3898C10.7784 11.9816 10.4847 12.693 10.4847 13.524C10.4847 14.3551 10.7806 15.0643 11.3724 15.6517C11.9642 16.2391 12.6756 16.5328 13.5066 16.5328ZM13.5 31.0168C17.1566 27.7516 19.9462 24.6321 21.8689 21.6583C23.7916 18.6847 24.7529 16.0845 24.7529 13.858C24.7529 10.4696 23.6767 7.68451 21.5243 5.50269C19.3718 3.32086 16.6971 2.22995 13.5 2.22995C10.3029 2.22995 7.62816 3.32086 5.47571 5.50269C3.32329 7.68451 2.24708 10.4696 2.24708 13.858C2.24708 16.0845 3.21951 18.6847 5.16437 21.6583C7.10923 24.6321 9.88777 27.7516 13.5 31.0168ZM13.5 34C8.99887 30.0995 5.62358 26.4697 3.37413 23.1104C1.12471 19.7511 0 16.667 0 13.858C0 9.73053 1.3351 6.38901 4.0053 3.83341C6.67548 1.2778 9.84038 0 13.5 0C17.1596 0 20.3245 1.2778 22.9947 3.83341C25.6649 6.38901 27 9.73053 27 13.858C27 16.667 25.8753 19.7511 23.6259 23.1104C21.3764 26.4697 18.0011 30.0995 13.5 34Z" fill="#14213D"/>
</svg>