<svg width="457" height="230" viewBox="0 0 457 230" fill="none" xmlns="http://www.w3.org/2000/svg">
<g clip-path="url(#clip0_42_127)">
<path d="M64.5 177.75H74.25C80.58 177.75 84.84 182.32 84.84 189.33C84.84 193.36 83.43 196.59 80.87 198.54C79.08 199.88 76.78 200.62 73.9 200.62H64.5V177.75ZM73.49 195.85C77.2 195.85 79.12 193.52 79.12 189.33C79.12 185.14 77.11 182.49 73.56 182.49H70.17V195.86H73.5L73.49 195.85Z" fill="#14213D"/>
<path d="M99.61 177.68H116.94V182.35H105.27V186.45H115.28V190.86H105.27V195.75H117.14V200.55H99.61V177.68Z" fill="#14213D"/>
<path d="M132.72 193.35H138.41C138.67 195.65 140.17 196.61 142.89 196.61C144.74 196.61 146.57 195.94 146.57 194.21C146.57 192.39 144.72 192 141.58 191.24C137.62 190.31 133.42 189.1 133.42 184.3C133.42 179.5 137.39 177.26 142.5 177.26C147.61 177.26 151.29 179.5 151.52 184.3H145.99C145.77 182.54 144.42 181.55 142.31 181.55C140.33 181.55 139.02 182.41 139.02 183.69C139.02 185.29 140.78 185.67 144.2 186.44C148.45 187.43 152.29 188.74 152.29 193.64C152.29 198.54 148.2 201.09 142.92 201.09C136.84 201.09 132.85 198.4 132.72 193.35Z" fill="#14213D"/>
<path d="M171.64 177.68H177.46L185.71 200.55H179.76L178.42 196.42H170.43L169.12 200.55H163.43L171.65 177.68H171.64ZM177.11 192.36L175.38 186.83C175 185.65 174.48 183.6 174.48 183.6H174.42C174.42 183.6 173.88 185.65 173.49 186.83L171.73 192.36H177.1H177.11Z" fill="#14213D"/>
<path d="M197 177.68H207.94C212.48 177.68 215.93 180.01 215.93 184.27C215.93 186.92 214.62 188.87 211.97 189.8V189.9C213.95 190.57 214.98 191.82 215.3 194.09C215.78 197.1 215.46 199.98 216.26 200.26V200.55H210.76C210.15 200.2 210.25 197.51 209.9 195.24C209.61 193.13 208.52 191.98 206.09 191.98H202.67V200.55H197.01V177.68H197ZM206.91 187.79C209.15 187.79 210.3 186.74 210.3 185.01C210.3 183.28 209.21 182.16 207.04 182.16H202.66V187.79H206.91Z" fill="#14213D"/>
<path d="M229.75 177.68H240.69C245.23 177.68 248.68 180.01 248.68 184.27C248.68 186.92 247.37 188.87 244.72 189.8V189.9C246.7 190.57 247.73 191.82 248.05 194.09C248.53 197.1 248.21 199.98 249.01 200.26V200.55H243.51C242.9 200.2 243 197.51 242.65 195.24C242.36 193.13 241.27 191.98 238.84 191.98H235.42V200.55H229.76V177.68H229.75ZM239.66 187.79C241.9 187.79 243.05 186.74 243.05 185.01C243.05 183.28 241.96 182.16 239.79 182.16H235.41V187.79H239.66Z" fill="#14213D"/>
<path d="M260.13 189.16C260.13 182.32 264.51 177.23 271.42 177.23C278.33 177.23 282.74 182.31 282.74 189.16C282.74 196.01 278.36 201.09 271.42 201.09C264.48 201.09 260.13 196.01 260.13 189.16ZM276.98 189.16C276.98 185 275.16 181.81 271.45 181.81C267.74 181.81 265.89 185.01 265.89 189.16C265.89 193.31 267.78 196.48 271.45 196.48C275.12 196.48 276.98 193.31 276.98 189.16Z" fill="#14213D"/>
<path d="M295.53 177.68H301.19V195.75H311.45V200.55H295.53V177.68Z" fill="#14213D"/>
<path d="M325.52 177.68H331.18V195.75H341.45V200.55H325.52V177.68Z" fill="#14213D"/>
<path d="M354.24 189.16C354.24 182.32 358.62 177.23 365.53 177.23C372.44 177.23 376.85 182.31 376.85 189.16C376.85 196.01 372.47 201.09 365.53 201.09C358.59 201.09 354.24 196.01 354.24 189.16ZM371.09 189.16C371.09 185 369.27 181.81 365.56 181.81C361.85 181.81 360 185.01 360 189.16C360 193.31 361.89 196.48 365.56 196.48C369.23 196.48 371.09 193.31 371.09 189.16Z" fill="#14213D"/>
<path d="M386.52 193.35H392.21C392.47 195.65 393.97 196.61 396.69 196.61C398.54 196.61 400.37 195.94 400.37 194.21C400.37 192.39 398.52 192 395.38 191.24C391.42 190.31 387.22 189.1 387.22 184.3C387.22 179.5 391.19 177.26 396.3 177.26C401.41 177.26 405.09 179.5 405.32 184.3H399.79C399.57 182.54 398.22 181.55 396.11 181.55C394.13 181.55 392.82 182.41 392.82 183.69C392.82 185.29 394.58 185.67 398 186.44C402.25 187.43 406.09 188.74 406.09 193.64C406.09 198.54 402 201.09 396.72 201.09C390.64 201.09 386.65 198.4 386.52 193.35Z" fill="#14213D"/>
<path d="M197 211.15H203.59C208.77 211.15 212.28 214.68 212.28 220.18C212.28 225.68 208.86 229.58 203.51 229.58H197V211.15ZM199.44 227.51H203.31C207.65 227.51 209.71 224.4 209.71 220.23C209.71 216.59 207.83 213.22 203.32 213.22H199.44V227.5V227.51Z" fill="#14213D"/>
<path d="M218.31 223.28C218.33 226.01 219.7 227.95 221.98 227.95C224.1 227.95 224.79 226.85 225.22 225.87H227.56C227.03 227.59 225.59 229.89 221.91 229.89C217.69 229.89 215.96 226.46 215.96 223C215.96 219.01 217.97 215.82 222.06 215.82C226.39 215.82 227.81 219.3 227.81 222.16C227.81 222.57 227.81 222.91 227.77 223.27H218.3L218.31 223.28ZM225.46 221.64C225.43 219.43 224.32 217.65 222.03 217.65C219.74 217.65 218.63 219.3 218.39 221.64H225.46Z" fill="#14213D"/>
<path d="M234.5 210.13H232.18V229.58H234.5V210.13Z" fill="#14213D"/>
<path d="M240.78 225.74C241.16 227.21 242.25 228.07 244.07 228.07C246.04 228.07 246.82 227.22 246.82 226C246.82 224.78 246.2 224.16 243.64 223.54C239.8 222.61 239 221.43 239 219.61C239 217.79 240.4 215.83 243.85 215.83C247.3 215.83 248.74 217.84 248.91 219.71H246.67C246.48 218.84 245.82 217.63 243.76 217.63C241.88 217.63 241.32 218.53 241.32 219.42C241.32 220.42 241.87 220.92 244.34 221.51C248.41 222.48 249.23 223.84 249.23 225.83C249.23 228.18 247.36 229.9 244.02 229.9C240.68 229.9 238.83 228.14 238.49 225.74H240.8H240.78Z" fill="#14213D"/>
<path d="M264.03 225.66C264.03 226.97 264.05 228.78 264.06 229.58H261.8C261.75 229.23 261.72 228.41 261.71 227.57C261.05 229.06 259.76 229.9 257.64 229.9C255.38 229.9 253.2 228.77 253.2 224.98V216.15H255.5V224.49C255.5 226.26 256.05 227.88 258.28 227.88C260.75 227.88 261.7 226.51 261.7 223.15V216.14H264.02V225.66H264.03Z" fill="#14213D"/>
<path d="M280.52 210.13V225.78C280.52 227.04 280.52 228.28 280.55 229.58H278.32C278.26 229.22 278.21 228.19 278.2 227.67C277.54 229.07 276.18 229.9 273.97 229.9C270.52 229.9 268.39 227.1 268.39 223.01C268.39 218.92 270.68 215.83 274.4 215.83C276.78 215.83 277.84 216.79 278.2 217.54V210.13H280.52ZM270.81 222.93C270.81 226.18 272.35 227.93 274.46 227.93C277.6 227.93 278.29 225.61 278.29 222.67C278.29 219.73 277.67 217.8 274.64 217.8C272.27 217.8 270.81 219.68 270.81 222.94" fill="#14213D"/>
<mask id="mask0_42_127" style="mask-type:luminance" maskUnits="userSpaceOnUse" x="242" y="53" width="215" height="68">
<path d="M329.16 74.42C301.02 79.89 239.93 91.19 242.21 90.77L295.63 120.34C309.79 121.08 437.38 90.88 456.27 83.33C414.79 61.75 407.82 53.18 398.79 53.18C389.77 53.18 378.69 61.73 329.16 74.42Z" fill="white"/>
</mask>
<g mask="url(#mask0_42_127)">
<path d="M456.27 53.18H239.93V121.08H456.27V53.18Z" fill="#14213D"/>
</g>
<mask id="mask1_42_127" style="mask-type:luminance" maskUnits="userSpaceOnUse" x="147" y="0" width="215" height="68">
<path d="M147.15 38.04C147.07 38.06 147.07 38.06 147.15 38.04V38.04ZM234.1 21.69C206.99 26.96 149.3 37.64 147.15 38.04C147.19 38.06 200.57 67.62 200.57 67.61C214.73 68.35 342.32 38.15 361.21 30.6C319.73 9.02001 312.76 0.450012 303.73 0.450012C294.71 0.450012 283.63 9.00001 234.1 21.69Z" fill="white"/>
</mask>
<g mask="url(#mask1_42_127)">
<path d="M361.21 0.450012H147.06V68.35H361.21V0.450012Z" fill="#14213D"/>
</g>
<mask id="mask2_42_127" style="mask-type:luminance" maskUnits="userSpaceOnUse" x="0" y="71" width="215" height="68">
<path d="M0.0800195 108.96C1.95317e-05 108.98 1.95317e-05 108.98 0.0800195 108.96V108.96ZM87.03 92.61C59.92 97.88 2.23002 108.56 0.0800195 108.96C0.12002 108.98 53.5 138.54 53.5 138.53C67.66 139.27 195.25 109.07 214.15 101.52C172.67 79.94 165.7 71.37 156.66 71.37C147.64 71.37 136.56 79.92 87.03 92.61Z" fill="white"/>
</mask>
<g mask="url(#mask2_42_127)">
<path d="M214.15 71.38H0V139.28H214.15V71.38Z" fill="#14213D"/>
</g>
</g>
<defs>
<clipPath id="clip0_42_127">
<rect width="456.27" height="229.45" fill="white" transform="translate(0 0.450012)"/>
</clipPath>
</defs>
</svg>
