<svg xmlns="http://www.w3.org/2000/svg" width="63" height="20" viewBox="0 0 63 20" fill="none">
  <path d="M63.0001 11.537C60.3915 12.5874 42.7737 16.7917 40.8179 16.6879L33.4414 12.5722C33.1275 12.6304 41.5611 11.0586 45.4476 10.2967C59.1361 6.76323 51.5537 5.53309 63.0001 11.537Z" fill="#003A70"/>
  <path d="M49.8739 4.19665C47.2652 5.24708 29.6475 9.45133 27.6917 9.34755L20.3152 5.2319C20.0013 5.29011 28.4348 3.71827 32.3214 2.95639C46.0099 -0.577102 38.4275 -1.80724 49.8739 4.19665Z" fill="#003A70"/>
  <path d="M29.5672 14.0707C26.9586 15.1211 9.34087 19.3254 7.38502 19.2216L0.0085234 15.1059C-0.305317 15.1641 8.12819 13.5923 12.0148 12.8304C25.7032 9.29692 18.1209 8.06678 29.5672 14.0707Z" fill="#003A70"/>
</svg>