<svg xmlns="http://www.w3.org/2000/svg" width="25" height="26" viewBox="0 0 25 26" fill="none">
  <path fill-rule="evenodd" clip-rule="evenodd" d="M6 0.5C2.68629 0.5 0 3.18629 0 6.5V19.5C0 22.8137 2.68629 25.5 6 25.5H19C22.3137 25.5 25 22.8137 25 19.5V6.5C25 3.18629 22.3137 0.5 19 0.5H6ZM20 7.5C21.1046 7.5 22 6.60457 22 5.5C22 4.39543 21.1046 3.5 20 3.5C18.8954 3.5 18 4.39543 18 5.5C18 6.60457 18.8954 7.5 20 7.5ZM12.5 19.5C16.0899 19.5 19 16.5899 19 13C19 9.41015 16.0899 6.5 12.5 6.5C8.91015 6.5 6 9.41015 6 13C6 16.5899 8.91015 19.5 12.5 19.5Z" fill="#D9D9D9"/>
</svg>