<?xml version="1.0" encoding="utf-8"?>
<!-- Generator: Adobe Illustrator 27.6.1, SVG Export Plug-In . SVG Version: 6.00 Build 0)  -->
<svg version="1.1" id="Capa_1" xmlns="http://www.w3.org/2000/svg" xmlns:xlink="http://www.w3.org/1999/xlink" x="0px" y="0px"
	 viewBox="0 0 280 23.5" style="enable-background:new 0 0 280 23.5;" xml:space="preserve">
<style type="text/css">
	.st0{fill:#14213d;}
</style>
<path class="st0" d="M174.2,2.3h-7.9v19.5h7.9c5.8,0,10-4.1,10-9.8S180,2.3,174.2,2.3z M174.2,19.1h-4.8V5h4.8
	c4.1,0,6.9,3.1,6.9,7.1S178.3,19.1,174.2,19.1z"/>
<polygon class="st0" points="191,13.2 200.2,13.2 200.2,10.4 191,10.4 191,5.1 201.7,5.1 201.7,2.3 188,2.3 188,21.8 202,21.8 
	202,19.1 191,19.1 "/>
<polygon class="st0" points="208.8,2.3 205.8,2.3 205.8,21.8 219.9,21.8 219.9,19.1 208.8,19.1 "/>
<path class="st0" d="M229.3,10.6c-2.8-0.9-4.4-1.4-4.4-3.1s1.8-2.7,3.6-2.7c2.2,0,3.8,1.4,4.7,2.9l2.3-1.6c-1.1-2.1-3.4-4-7-4
	c-3.2,0-6.6,1.9-6.6,5.4c0,3.5,2.9,4.7,6.6,5.9c2.9,0.9,4.4,1.6,4.4,3.3s-1.8,2.8-4,2.8c-2.6,0-4.4-1.4-5.4-3.3l-2.3,1.6
	c1.1,2.5,3.9,4.4,7.7,4.4c3.4,0,7-1.8,7-5.5S232.9,11.8,229.3,10.6L229.3,10.6z"/>
<path class="st0" d="M253,14.6c0,2.9-2,4.7-5.2,4.7s-5.2-1.8-5.2-4.7V2.3h-3v12.5c0,4.5,3.2,7.3,8.2,7.3s8.2-2.9,8.2-7.4V2.3h-3
	V14.6z"/>
<path class="st0" d="M268.6,2.3h-7.9v19.5h7.9c5.8,0,10-4.1,10-9.8S274.4,2.3,268.6,2.3z M268.6,19.1h-4.8V5h4.8
	c4.2,0,6.9,3.1,6.9,7.1S272.7,19.1,268.6,19.1z"/>
<path class="st0" d="M140.6,7.5c0.1,0.1,0.3,0.3,0.4,0.4l0,0l1.3-1.2l0,0c-0.2-0.2-0.3-0.3-0.5-0.5l0,0L140.6,7.5L140.6,7.5
	L140.6,7.5z"/>
<path class="st0" d="M130.4,9.6c-0.1-0.2-0.1-0.4-0.1-0.6v0l-11-0.1h0v0c-0.1,0.4-0.2,0.8-0.3,1.2v0.1L130.4,9.6L130.4,9.6
	L130.4,9.6z"/>
<path class="st0" d="M130.2,8.1L130.2,8.1c0-0.2,0-0.4,0-0.6v0l-9.8-1.7h0l0,0c-0.2,0.4-0.4,0.8-0.5,1.1l0,0.1L130.2,8.1L130.2,8.1z
	"/>
<path class="st0" d="M130.3,6.7c0-0.2,0.1-0.3,0.2-0.5l0-0.1l-8.3-3.1h0l0,0c-0.3,0.3-0.5,0.6-0.8,0.9l0,0.1L130.3,6.7L130.3,6.7
	L130.3,6.7z"/>
<path class="st0" d="M130.8,5.7L130.8,5.7c0.1-0.1,0.2-0.2,0.3-0.4l0,0l-6.5-4h0h0c-0.3,0.2-0.7,0.4-1,0.6l-0.1,0L130.8,5.7
	L130.8,5.7L130.8,5.7z"/>
<path class="st0" d="M132.5,13.8L132.5,13.8c-0.1-0.2-0.3-0.4-0.4-0.6l0,0l-12.7,5.6l0,0v0c0.1,0.4,0.3,0.9,0.4,1.2l0,0L132.5,13.8
	L132.5,13.8L132.5,13.8z"/>
<path class="st0" d="M131.6,5L131.6,5c0.1-0.1,0.2-0.2,0.3-0.2l0.1,0l-4.4-4.3l0,0h0c-0.2,0-0.3,0-0.5,0.1c-0.2,0-0.4,0.1-0.6,0.1
	l-0.1,0L131.6,5L131.6,5L131.6,5z"/>
<path class="st0" d="M130.9,11c-0.1-0.2-0.1-0.4-0.2-0.6v0l-11.9,1.7h0v0c0,0.4,0,0.9,0,1.3v0.1L130.9,11L130.9,11L130.9,11z"/>
<path class="st0" d="M131.6,12.4c-0.1-0.2-0.2-0.4-0.3-0.5l0,0l-12.5,3.6h0v0.1c0,0.4,0.1,0.8,0.2,1.2l0,0.1L131.6,12.4L131.6,12.4
	L131.6,12.4z"/>
<path class="st0" d="M138.3,5.8c0.1,0.1,0.3,0.2,0.4,0.3l0,0l1-1.5l0,0c-0.2-0.1-0.3-0.2-0.5-0.4l0,0L138.3,5.8L138.3,5.8L138.3,5.8
	z"/>
<path class="st0" d="M136.4,4.9L136.4,4.9l0.6-2v0l0,0c-0.2-0.1-0.4-0.2-0.5-0.3l-0.1,0L136,4.7h0C136.1,4.8,136.3,4.8,136.4,4.9z"
	/>
<path class="st0" d="M137.5,5.4L137.5,5.4l0.8-1.7l0,0c-0.2-0.1-0.4-0.2-0.5-0.3l-0.1,0l-0.7,1.9l0,0C137.3,5.2,137.4,5.3,137.5,5.4
	L137.5,5.4z"/>
<path class="st0" d="M139.4,6.6c0.1,0.1,0.3,0.2,0.4,0.3l0,0l1.1-1.3l0,0c-0.2-0.1-0.3-0.3-0.5-0.4l0,0L139.4,6.6L139.4,6.6z"/>
<path class="st0" d="M134.1,4.4c0.1,0,0.2,0,0.3,0h0.1l-0.3-2.9h0c-0.2-0.1-0.4-0.2-0.6-0.2l-0.1,0L134.1,4.4L134.1,4.4L134.1,4.4z"
	/>
<path class="st0" d="M133.2,4.4L133.2,4.4c0.1,0,0.2,0,0.3,0h0.1L132.5,1h0c-0.2-0.1-0.5-0.1-0.7-0.2l-0.1,0L133.2,4.4L133.2,4.4
	L133.2,4.4z"/>
<path class="st0" d="M135.4,4.6L135.4,4.6l0.2-2.4v0l0,0C135.4,2,135.2,2,135,1.9l-0.1,0l0,2.6h0C135.1,4.5,135.2,4.5,135.4,4.6
	L135.4,4.6z"/>
<path class="st0" d="M132.4,4.6L132.4,4.6c0.1,0,0.2-0.1,0.4-0.1h0.1l-2.5-3.9v0h0c-0.2,0-0.5-0.1-0.7-0.1c-0.1,0-0.2,0-0.3,0h-0.1
	L132.4,4.6L132.4,4.6L132.4,4.6z"/>
<path class="st0" d="M134.6,16c-0.1-0.1-0.3-0.3-0.4-0.4l0,0l-1.3,1.2l0,0c0.2,0.1,0.3,0.3,0.5,0.5l0,0L134.6,16L134.6,16L134.6,16z
	"/>
<path class="st0" d="M144.8,13.9c0.1,0.2,0.1,0.4,0.1,0.6v0l11,0.1h0v0c0.1-0.4,0.2-0.8,0.3-1.2v-0.1L144.8,13.9L144.8,13.9
	L144.8,13.9z"/>
<path class="st0" d="M145,15.4c0,0.2,0,0.4,0,0.5v0l9.8,1.7h0l0,0c0.2-0.4,0.4-0.8,0.5-1.1l0-0.1L145,15.4L145,15.4L145,15.4z"/>
<path class="st0" d="M144.8,16.7L144.8,16.7c-0.1,0.2-0.1,0.4-0.2,0.5l0,0l8.3,3.1h0l0,0c0.3-0.3,0.5-0.6,0.8-1l0-0.1L144.8,16.7
	L144.8,16.7L144.8,16.7z"/>
<path class="st0" d="M144.3,17.8L144.3,17.8c-0.1,0.1-0.2,0.2-0.3,0.4l0,0l6.5,4h0h0c0.4-0.2,0.7-0.4,1-0.6l0.1,0L144.3,17.8
	L144.3,17.8L144.3,17.8z"/>
<path class="st0" d="M142.6,9.7L142.6,9.7c0.1,0.2,0.3,0.4,0.4,0.6l0,0l12.7-5.6l0,0v0c-0.1-0.4-0.3-0.8-0.4-1.2l0,0L142.6,9.7
	L142.6,9.7L142.6,9.7z"/>
<path class="st0" d="M143.6,18.5L143.6,18.5c-0.1,0.1-0.2,0.1-0.3,0.2l-0.1,0l4.4,4.3l0,0h0c0.2,0,0.3,0,0.5-0.1
	c0.2,0,0.4-0.1,0.6-0.1l0.1,0L143.6,18.5L143.6,18.5L143.6,18.5z"/>
<path class="st0" d="M144.3,12.4L144.3,12.4c0.1,0.2,0.2,0.4,0.2,0.6v0l11.9-1.7h0v0c0-0.4,0-0.9,0-1.3V10L144.3,12.4L144.3,12.4z"
	/>
<path class="st0" d="M143.6,11.1c0.1,0.2,0.2,0.4,0.3,0.5l0,0L156.4,8h0V7.9c0-0.4-0.1-0.8-0.2-1.2l0-0.1L143.6,11.1L143.6,11.1
	L143.6,11.1z"/>
<path class="st0" d="M136.9,17.7c-0.1-0.1-0.3-0.2-0.4-0.3l0,0l-1,1.5l0,0c0.2,0.1,0.3,0.2,0.5,0.4l0,0L136.9,17.7L136.9,17.7
	L136.9,17.7z"/>
<path class="st0" d="M138.8,18.6L138.8,18.6l-0.6,2v0l0,0c0.2,0.1,0.4,0.2,0.5,0.3l0.1,0l0.4-2.2h0C139,18.7,138.9,18.7,138.8,18.6z
	"/>
<path class="st0" d="M137.6,18.1L137.6,18.1l-0.8,1.7l0,0c0.2,0.1,0.4,0.2,0.5,0.3l0.1,0l0.7-1.9l0,0
	C137.9,18.3,137.8,18.2,137.6,18.1L137.6,18.1z"/>
<path class="st0" d="M135.7,17c-0.1-0.1-0.3-0.2-0.4-0.3l0,0l-1.1,1.3l0,0c0.2,0.1,0.3,0.3,0.5,0.4l0,0L135.7,17L135.7,17z"/>
<path class="st0" d="M141.1,19.1c-0.1,0-0.2,0-0.3,0h-0.1L141,22h0c0.2,0.1,0.4,0.2,0.6,0.2l0.1,0L141.1,19.1L141.1,19.1L141.1,19.1
	z"/>
<path class="st0" d="M141.9,19.1L141.9,19.1c-0.1,0-0.2,0-0.3,0h-0.1l1.2,3.4h0c0.2,0.1,0.5,0.1,0.7,0.2l0.1,0L141.9,19.1
	L141.9,19.1L141.9,19.1z"/>
<path class="st0" d="M139.8,19L139.8,19l-0.2,2.4v0l0,0c0.2,0.1,0.4,0.2,0.6,0.2l0.1,0l0-2.6h0C140.1,19,140,19,139.8,19L139.8,19z"
	/>
<path class="st0" d="M142.8,19L142.8,19c-0.1,0-0.2,0.1-0.4,0.1h-0.1l2.5,3.9v0h0c0.2,0,0.5,0.1,0.7,0.1c0.1,0,0.2,0,0.3,0h0.1
	L142.8,19L142.8,19L142.8,19z"/>
<polygon class="st0" points="141.2,9.6 142,9.1 154.2,1.5 154.4,1.3 155.1,0 153.7,0 141.7,8.6 133.6,14.1 120.8,22.1 120.8,22.1 
	120.8,22.1 120,23.5 121.5,23.5 134.1,14.3 "/>
<path class="st0" d="M6.5,13.7c0,0.6-0.2,1.1-0.5,1.4c-0.3,0.3-0.8,0.5-1.4,0.5s-1-0.2-1.4-0.5c-0.3-0.3-0.5-0.8-0.5-1.4V8.4H1.3
	v5.3c0,0.7,0.1,1.3,0.4,1.7s0.7,0.8,1.2,1.1c0.5,0.2,1,0.4,1.6,0.4s1.2-0.1,1.6-0.4c0.5-0.2,0.9-0.6,1.2-1.1s0.4-1.1,0.4-1.7V8.4
	H6.5L6.5,13.7L6.5,13.7z"/>
<polygon class="st0" points="15.1,14.6 11,8.4 9.6,8.4 9.6,16.7 11,16.7 11,10.5 15.1,16.7 16.5,16.7 16.5,8.4 15.1,8.4 "/>
<path class="st0" d="M20.8,8.4l-3,8.3h1.4l0.6-1.7h3.5l0.6,1.7h1.4l-3-8.4C22.3,8.4,20.8,8.4,20.8,8.4z M20.2,13.9l1.4-3.9l1.4,3.9
	H20.2L20.2,13.9z"/>
<polygon class="st0" points="29.8,16.7 34.4,16.7 34.4,15.6 31.1,15.6 31.1,13 34,13 34,11.9 31.1,11.9 31.1,9.5 34.4,9.5 34.4,8.4 
	29.8,8.4 "/>
<polygon class="st0" points="40.4,14.9 37.5,8.4 36,8.4 36,16.7 37.4,16.7 37.4,11 40,16.7 40.9,16.7 43.5,11 43.5,16.7 44.8,16.7 
	44.8,8.4 43.4,8.4 "/>
<path class="st0" d="M51.1,8.7c-0.4-0.2-1-0.3-1.6-0.3h-2.9v8.3H48v-3.4h1.5c0.7,0,1.2-0.1,1.7-0.4c0.4-0.2,0.8-0.5,1-0.9
	s0.3-0.8,0.3-1.2c0-0.5-0.1-0.9-0.3-1.3S51.6,8.9,51.1,8.7L51.1,8.7z M50.7,11.9c-0.3,0.2-0.6,0.4-1.2,0.4H48V9.5h1.5
	c1,0,1.5,0.5,1.5,1.4C51.1,11.3,50.9,11.6,50.7,11.9L50.7,11.9z"/>
<path class="st0" d="M59.1,12.4c0.3-0.4,0.5-0.9,0.5-1.5c0-0.5-0.1-0.9-0.3-1.3s-0.5-0.7-1-0.9c-0.4-0.2-1-0.3-1.6-0.3h-2.9v8.3h1.4
	v-3.3h1l1.9,3.3h1.6l-2.1-3.5C58.3,13.1,58.8,12.8,59.1,12.4L59.1,12.4z M55.1,12.3V9.5h1.5c0.5,0,0.9,0.1,1.2,0.4s0.4,0.6,0.4,1
	s-0.1,0.8-0.4,1c-0.3,0.3-0.7,0.4-1.2,0.4L55.1,12.3L55.1,12.3z"/>
<polygon class="st0" points="61.3,16.7 66,16.7 66,15.6 62.7,15.6 62.7,13 65.6,13 65.6,11.9 62.7,11.9 62.7,9.5 66,9.5 66,8.4 
	61.3,8.4 "/>
<path class="st0" d="M72,12.4c-0.3-0.1-0.8-0.3-1.3-0.5c-0.4-0.1-0.7-0.2-1-0.3c-0.2-0.1-0.4-0.2-0.6-0.4c-0.2-0.2-0.2-0.4-0.2-0.6
	c0-0.4,0.1-0.7,0.4-0.9s0.6-0.3,1-0.3c0.4,0,0.8,0.1,1,0.3c0.3,0.2,0.4,0.5,0.4,0.8h1.5c-0.1-0.7-0.3-1.3-0.9-1.7
	c-0.5-0.4-1.2-0.6-2-0.6c-0.6,0-1.1,0.1-1.5,0.3s-0.8,0.5-1,0.8c-0.2,0.4-0.4,0.8-0.4,1.3c0,0.5,0.1,0.9,0.4,1.2s0.5,0.5,0.9,0.7
	c0.3,0.1,0.8,0.3,1.3,0.4c0.4,0.1,0.8,0.2,1,0.3c0.2,0.1,0.4,0.2,0.6,0.4s0.2,0.4,0.2,0.7c0,0.4-0.1,0.6-0.4,0.9s-0.6,0.3-1.1,0.3
	s-0.8-0.1-1.1-0.4s-0.4-0.5-0.4-0.9h-1.5c0,0.5,0.1,0.9,0.4,1.3c0.3,0.4,0.6,0.6,1.1,0.8c0.4,0.2,0.9,0.3,1.5,0.3
	c0.6,0,1.1-0.1,1.5-0.3s0.8-0.5,1-0.9s0.3-0.8,0.3-1.2c0-0.5-0.1-0.9-0.4-1.3C72.7,12.7,72.4,12.5,72,12.4L72,12.4z"/>
<path class="st0" d="M77.4,8.4l-3,8.3h1.4l0.6-1.7h3.5l0.6,1.7H82l-3-8.4C79,8.4,77.4,8.4,77.4,8.4z M76.8,13.9l1.4-3.9l1.4,3.9
	H76.8L76.8,13.9z"/>
<path class="st0" d="M91.4,8.9c-0.7-0.3-1.4-0.5-2.3-0.5h-2.7v8.3h2.7c0.9,0,1.7-0.2,2.3-0.5s1.2-0.8,1.6-1.4
	c0.4-0.6,0.6-1.4,0.6-2.2S93.3,11,93,10.3C92.6,9.7,92.1,9.2,91.4,8.9z M91.3,14.8c-0.5,0.5-1.3,0.8-2.2,0.8h-1.4V9.5h1.4
	c1,0,1.7,0.3,2.2,0.8c0.5,0.5,0.8,1.3,0.8,2.3S91.9,14.3,91.3,14.8z"/>
<polygon class="st0" points="94.9,16.7 99.5,16.7 99.5,15.6 96.2,15.6 96.2,13 99.1,13 99.1,11.9 96.2,11.9 96.2,9.5 99.5,9.5 
	99.5,8.4 94.9,8.4 "/>
</svg>
