<svg xmlns="http://www.w3.org/2000/svg" width="29" height="29" viewBox="0 0 29 29" fill="none">
  <path d="M6 28.5H0V8.99997H6V28.5Z" fill="#E8E9ED"/>
  <path d="M10 28.5V8.99997H16V11.5C17.6623 9.36851 20 8.49997 21.5 8.49997H21.9986C25.8646 8.49997 29 11.634 29 15.5V28.5H23V17.6097C23 16.588 22.5124 15.582 21.7366 14.9171C20.4259 13.7936 18.5329 13.8289 17.2222 14.9523C16.4465 15.6173 16 16.588 16 17.6097V28.5H10Z" fill="#E8E9ED"/>
  <path d="M6 3.5C6 5.15685 4.65685 6.5 3 6.5C1.34315 6.5 0 5.15685 0 3.5C0 1.84315 1.34315 0.5 3 0.5C4.65685 0.5 6 1.84315 6 3.5Z" fill="#E8E9ED"/>
</svg>