<svg xmlns="http://www.w3.org/2000/svg" width="43" height="43" viewBox="0 0 43 43" fill="none">
  <mask id="mask0_473_1007" style="mask-type:alpha" maskUnits="userSpaceOnUse" x="0" y="0" width="43" height="43">
    <path d="M0 0H43V43H0V0Z" fill="#D9D9D9"/>
  </mask>
  <g mask="url(#mask0_473_1007)">
    <path d="M21 37C20.2866 37 19.6558 36.8107 19.1077 36.4322C18.5596 36.0537 18.1761 35.557 17.9573 34.9422H17.4444C16.7174 34.9422 16.0912 34.6778 15.5658 34.1491C15.0405 33.6203 14.7778 32.99 14.7778 32.2582V26.3878C12.9841 25.2935 11.5727 23.8264 10.5436 21.9866C9.51453 20.1467 9 18.1773 9 16.0782C9 12.7106 10.1635 9.85561 12.4906 7.51335C14.8177 5.17112 17.6541 4 21 4C24.3458 4 27.1823 5.17112 29.5094 7.51335C31.8365 9.85561 33 12.7106 33 16.0782C33 18.214 32.4855 20.1926 31.4564 22.0141C30.4273 23.8356 29.0159 25.2935 27.2222 26.3878V32.2582C27.2222 32.99 26.9595 33.6203 26.4342 34.1491C25.9088 34.6778 25.2826 34.9422 24.5556 34.9422H24.0427C23.8239 35.557 23.4404 36.0537 22.8923 36.4322C22.3442 36.8107 21.7134 37 21 37ZM17.4444 32.2582H24.5556V30.579H17.4444V32.2582ZM17.4444 28.9961H24.5556V27.2618H17.4444V28.9961ZM17.0889 24.5778H19.9402V19.3679L16.1316 15.5345L17.6222 14.0342L21 17.434L24.3778 14.0342L25.8684 15.5345L22.0598 19.3679V24.5778H24.9111C26.5111 23.8024 27.8148 22.6616 28.8222 21.1556C29.8297 19.6495 30.3334 17.9571 30.3334 16.0782C30.3334 13.4538 29.4297 11.232 27.6222 9.41281C25.8148 7.59362 23.6074 6.68402 21 6.68402C18.3926 6.68402 16.1852 7.59362 14.3778 9.41281C12.5703 11.232 11.6666 13.4538 11.6666 16.0782C11.6666 17.9571 12.1703 19.6495 13.1777 21.1556C14.1852 22.6616 15.4889 23.8024 17.0889 24.5778Z" fill="#14213D"/>
  </g>
</svg>