<svg xmlns="http://www.w3.org/2000/svg" width="43" height="43" viewBox="0 0 43 43" fill="none">
  <mask id="mask0_473_1019" style="mask-type:alpha" maskUnits="userSpaceOnUse" x="0" y="0" width="43" height="43">
    <path d="M0 0H43V43H0V0Z" fill="#D9D9D9"/>
  </mask>
  <g mask="url(#mask0_473_1019)">
    <path d="M16.8695 23.1131C16.4391 23.1131 16.0724 22.9559 15.7693 22.6414C15.4662 22.327 15.3147 21.9465 15.3147 21.5C15.3147 21.0535 15.4662 20.673 15.7693 20.3586C16.0724 20.0441 16.4391 19.8869 16.8695 19.8869C17.2999 19.8869 17.6666 20.0441 17.9697 20.3586C18.2727 20.673 18.4243 21.0535 18.4243 21.5C18.4243 21.9465 18.2727 22.327 17.9697 22.6414C17.6666 22.9559 17.2999 23.1131 16.8695 23.1131ZM26.1305 23.1131C25.7001 23.1131 25.3334 22.9559 25.0303 22.6414C24.7273 22.327 24.5757 21.9465 24.5757 21.5C24.5757 21.0535 24.7273 20.673 25.0303 20.3586C25.3334 20.0441 25.7001 19.8869 26.1305 19.8869C26.5609 19.8869 26.9276 20.0441 27.2307 20.3586C27.5338 20.673 27.6853 21.0535 27.6853 21.5C27.6853 21.9465 27.5338 22.327 27.2307 22.6414C26.9276 22.9559 26.5609 23.1131 26.1305 23.1131ZM7 37V34.2647H8.75759V9.29641C8.75759 8.37528 9.06516 7.59559 9.68032 6.95736C10.2955 6.31912 11.0469 6 11.9347 6H31.0653C31.9531 6 32.7045 6.31912 33.3197 6.95736C33.9348 7.59559 34.2424 8.37528 34.2424 9.29641V34.2647H36V37H7ZM11.3939 34.2647H20.1819V8.73526H11.9347C11.7995 8.73526 11.6756 8.7937 11.5629 8.91059C11.4503 9.02751 11.3939 9.15612 11.3939 9.29641V34.2647ZM22.8181 34.2647H31.6061V9.29641C31.6061 9.15612 31.5497 9.02751 31.4371 8.91059C31.3244 8.7937 31.2005 8.73526 31.0653 8.73526H22.8181V34.2647Z" fill="#14213D"/>
  </g>
</svg>