<svg width="295" height="111" viewBox="0 0 295 111" fill="none" xmlns="http://www.w3.org/2000/svg">
<path d="M54.32 2.39665C65.2543 2.83282 75.8984 1.53767 86.4176 3.6206C92.5096 4.82674 96.4593 8.62765 97.5259 14.645C98.3025 19.0423 98.3025 23.6221 98.24 28.1129C98.182 32.4033 95.6292 35.0382 91.5277 36.222C90.6842 36.4668 89.872 36.8229 88.6804 37.268C89.6711 37.6374 90.3093 37.9267 90.9743 38.1136C96.2317 39.5957 99.3736 43.134 99.628 48.4571C99.9359 54.875 99.9672 61.3641 99.3513 67.7464C98.7488 74.0219 95.4016 76.8748 89.1222 77.5246C85.2126 77.9297 81.2674 78.0676 77.3355 78.121C70.5741 78.2145 63.8083 78.0721 57.0469 78.2012C54.9493 78.2412 54.2173 77.7294 54.2709 75.5174C54.4226 69.4422 54.32 63.358 54.32 57.2784C54.32 40.0764 54.32 22.8744 54.32 5.67238V2.3833V2.39665ZM74.0999 44.2867V65.2006C79.0493 65.3475 80.2498 64.3238 80.3703 59.7307C80.464 56.1746 80.464 52.614 80.3525 49.0579C80.2141 44.7274 78.5851 43.5212 74.0999 44.2867ZM74.0686 32.0339C78.5584 32.795 80.0579 31.709 80.281 27.472C80.4149 24.9707 80.4551 22.4471 80.2944 19.9458C80.0534 16.087 77.9782 14.6895 74.0686 15.6019V32.0339Z" fill="#003263"/>
<path d="M21.2093 78.0008H0.978699C2.05427 69.8249 3.10307 61.8314 4.16079 53.8335C6.32533 37.5172 8.52557 21.2098 10.6142 4.88455C10.8463 3.05531 11.3283 2.3788 13.2965 2.40996C21.3253 2.52568 29.3587 2.45892 37.3876 2.44557C38.4676 2.44557 39.3736 2.3699 39.5967 3.8965C43.1983 28.3175 46.8535 52.7341 50.4908 77.1507C50.522 77.3599 50.4729 77.5825 50.4506 77.983H30.7154C30.3227 73.5368 29.9299 69.1439 29.5193 64.5419C27.3816 64.5419 25.4491 64.4173 23.5524 64.622C23.0213 64.6799 22.2581 65.6902 22.1867 66.3266C21.7672 70.1453 21.5217 73.9818 21.2004 78.0053L21.2093 78.0008ZM26.1587 21.1786C25.9668 21.1786 25.7749 21.1831 25.583 21.1875C25.1456 24.757 24.6904 28.322 24.2709 31.8915C23.597 37.624 22.9186 43.3565 22.3027 49.0979C22.2135 49.9391 21.727 51.2165 23.3203 51.2832C25.1456 51.3589 26.9755 51.301 29.0195 51.301C28.0421 41.0332 27.1004 31.1081 26.1587 21.1831V21.1786Z" fill="#003263"/>
<path d="M123.103 78.0187H102.962C103.524 73.4568 104.029 69.0684 104.609 64.6844C107.233 44.8343 109.911 24.9885 112.468 5.12501C112.745 2.98867 113.423 2.34777 115.623 2.39228C123.433 2.54805 131.244 2.4991 139.054 2.41453C140.701 2.39673 141.352 2.80174 141.598 4.52417C143.677 18.9845 145.864 33.4315 148.024 47.8785C149.43 57.2651 150.849 66.6516 152.26 76.0382C152.345 76.6123 152.38 77.1954 152.447 77.8852C151.849 77.9831 151.354 78.1345 150.858 78.1389C145.427 78.1567 139.996 78.1033 134.569 78.1745C133.042 78.1968 132.511 77.6938 132.44 76.1628C132.284 72.8292 131.877 69.509 131.681 66.1799C131.61 64.9559 131.168 64.5553 129.94 64.493C124.295 64.2082 124.29 64.1726 123.804 69.6069C123.563 72.3352 123.349 75.0635 123.103 78.0054V78.0187ZM128.062 20.8716C127.87 20.8494 127.682 20.8227 127.49 20.8004C126.308 30.8768 125.125 40.9532 123.929 51.1098H130.9C129.94 40.8776 128.999 30.8768 128.062 20.8716Z" fill="#003263"/>
<path d="M262.098 60.9414C257.822 57.3141 256.666 56.8556 250.753 56.4551C251.971 53.62 251.596 50.9673 249.958 48.4304C249.633 47.9231 249.624 47.1531 249.633 46.5033C249.713 37.9757 249.704 29.4437 249.95 20.9206C250.266 9.86948 256.483 2.96198 267.458 1.34637C272.746 0.567495 277.999 0.807833 283.029 2.87296C289.902 5.69471 294.32 10.8308 294.499 18.1879C294.869 33.3692 294.704 48.5729 294.396 63.7587C294.289 69.0328 290.219 74.2357 285.756 76.3408C285.756 73.8885 286.028 71.4673 285.702 69.1262C284.948 63.732 282.141 59.7397 276.803 57.9283C275.433 57.4609 275.496 56.5797 275.496 55.516C275.509 44.3892 275.509 33.2669 275.491 22.1401C275.491 20.2886 275.411 18.4326 275.268 16.5856C275.138 14.9522 274.424 13.6704 272.554 13.6704C270.667 13.6704 269.712 14.8498 269.551 16.6123C269.368 18.6018 269.256 20.609 269.252 22.6074C269.221 33.3603 269.198 44.1177 269.274 54.8706C269.288 56.731 268.957 57.8526 266.94 58.4445C265.271 58.9341 263.785 60.0512 262.107 60.9503L262.098 60.9414Z" fill="#003263"/>
<path d="M256.015 84.2897C254.27 85.714 252.73 87.107 251.052 88.3043C249.731 89.2434 248.303 90.089 246.812 90.7255C242.251 92.666 239.176 91.1883 237.699 86.4839C237.525 85.932 237.364 85.3713 237.096 84.4856C236.012 85.4158 235.141 86.2837 234.155 86.9869C232.169 88.4066 230.241 89.9822 228.068 91.0459C224.841 92.6259 222.373 91.0682 221.891 87.4809C221.842 87.1204 221.828 86.7599 221.779 86.1145C219.847 87.5699 218.146 88.9585 216.335 90.178C214.505 91.4109 212.572 92.4034 210.417 90.6988C208.426 89.1277 207.618 87.0447 208.77 84.3209C210.796 79.5497 213.17 74.9299 215.402 70.2477C215.745 69.5223 216.094 68.8013 216.477 68.009C216.111 67.8978 215.853 67.7286 215.719 67.7954C211.26 70.1587 207.27 73.1184 204.771 77.587C202.312 81.9887 200.152 86.5551 197.831 91.0326C196.751 93.1199 195.707 93.3469 193.819 91.9005C192.391 90.8011 191.025 89.6128 191.86 87.1337C190.128 88.2286 188.731 89.2656 187.2 90.049C180.702 93.3914 175.976 90.5919 176.284 83.275C176.65 74.5916 181.01 68.0001 188.191 63.2468C190.043 62.0228 192.127 61.965 194.149 62.9575C197.653 64.6799 198.318 67.0744 196.193 70.3323C195.626 71.2002 195.019 72.0681 194.27 72.7713C193.533 73.4701 193.06 75.2637 191.525 73.9596C190.025 72.6823 191.587 71.9301 192.221 71.0711C192.949 70.0875 193.716 69.1395 194.658 67.9245C188.071 68.8013 180.434 82.2424 182.456 89.2567C183.536 88.8473 184.741 88.6514 185.625 88.0105C188.142 86.1857 190.396 83.9782 192.989 82.2914C196.394 80.0749 197.545 76.452 199.246 73.1852C203.633 64.7645 207.891 56.2725 212.202 47.8117C212.911 46.4186 213.456 44.8253 215.634 45.9513C218.245 47.3043 219.231 49.138 218.182 51.2031C215.402 56.6909 212.586 62.1608 210.042 67.9779C211.274 67.288 212.479 66.5536 213.737 65.9127C215.826 64.8535 217.972 64.404 220.066 65.8727C222.529 67.5996 223.083 70.2344 221.632 73.1451C219.579 77.2621 217.495 81.3612 215.446 85.4781C215.103 86.1679 214.853 86.9068 214.969 87.9349C215.817 87.2895 216.665 86.6397 217.517 85.9944C222.65 82.0911 226.55 77.2754 228.933 71.2224C229.853 68.8858 231.272 66.7495 232.303 64.4529C233.102 62.6726 234.186 62.6281 235.677 63.456C238.408 64.9736 238.904 66.6071 237.467 69.4288C234.771 74.7162 232.075 80.0037 229.398 85.3C229.076 85.9365 228.858 86.6308 228.951 87.6545C229.955 86.8845 231 86.1679 231.95 85.3357C234.932 82.7231 237.623 80.115 238.98 76.0159C240.72 70.7596 244.085 66.3 249.039 63.3669C252.123 61.5377 255.626 62.0673 257.581 64.8668C258.228 65.797 258.603 67.5417 258.166 68.4719C257.238 70.4391 255.747 72.1615 254.337 73.8662C254.087 74.1688 252.873 74.1199 252.56 73.795C252.243 73.4656 252.252 72.4286 252.551 71.9924C253.462 70.6706 254.578 69.4867 255.765 68.0669C249.593 68.0802 241.385 82.4961 243.679 89.368C245.272 88.5847 246.982 88.0417 248.325 87.018C250.918 85.0464 253.332 82.8388 255.747 80.6491C256.18 80.2574 256.251 79.4785 256.501 78.8821C257.693 76.0248 258.398 72.8113 260.188 70.3946C262.91 66.7139 266.815 64.128 271.345 63.0242C275.089 62.1118 278.664 64.6754 279.78 68.5832C281.155 73.4122 279.476 77.6671 277.107 81.7128C274.652 85.892 271.461 89.3724 266.753 91.0904C262.232 92.7416 258.429 90.9391 256.751 86.435C256.501 85.7585 256.282 85.0731 256.01 84.2764L256.015 84.2897ZM262.566 80.6891C262.325 82.5673 261.959 84.2185 261.933 85.8697C261.883 88.8918 262.923 89.6528 265.561 88.2286C272.595 84.4322 276.504 78.397 277.441 70.5103C277.705 68.2939 276.754 67.6841 274.621 68.2805C269.439 69.7315 266.101 74.6183 266.663 80.0438C266.811 81.4546 266.155 81.8062 264.985 81.5837C264.343 81.4591 263.736 81.1297 262.566 80.6891Z" fill="#003263"/>
<path d="M199.183 59.0988C191.467 55.2934 190.19 55.4314 180.925 61.0705C180.867 59.9266 180.805 58.9341 180.774 57.9416C180.662 54.5502 179.421 51.8085 176.489 49.8547C172.477 47.1753 168.67 44.1756 164.555 41.6698C157.566 37.406 154.643 31.086 154.554 23.2261C154.522 20.569 154.741 17.8897 155.036 15.2459C155.794 8.49867 159.789 4.34615 166.09 2.419C173.334 0.202543 180.613 0.385025 187.758 2.97089C193.404 5.01376 197.023 8.75236 197.367 15.0368C197.55 18.3525 197.724 21.6683 197.911 25.1755H179.64C179.64 23.4531 179.667 21.7217 179.631 19.986C179.609 18.8021 179.537 17.6137 179.417 16.4387C179.265 14.9834 178.631 13.884 177.002 13.7016C175.315 13.5146 174.128 14.2134 173.432 15.7489C171.678 19.6165 173.053 25.5182 176.534 27.9661C180.658 30.8679 185.018 33.4404 189.146 36.3334C197.251 42.017 200.509 49.4897 199.188 59.0988H199.183Z" fill="#003263"/>
<path d="M220.516 59.3214C221.337 57.7058 222.235 56.0056 223.074 54.2743C225.975 48.2747 223.114 41.8835 216.535 40.299C214.424 39.7916 214.215 38.8659 214.237 37.1301C214.308 31.4154 214.166 25.7007 214.313 19.9904C214.366 17.863 213.625 17.3289 211.639 17.4268C208.756 17.5737 205.855 17.4624 202.772 17.4624V2.60596H245.277V17.4624C244.143 17.4624 243.059 17.4357 241.97 17.4669C239.386 17.5425 236.806 17.6405 234.222 17.7295C234.102 20.3732 233.892 23.0125 233.874 25.6562C233.825 32.5548 233.936 39.4578 233.803 46.3564C233.771 48.0566 233.151 49.779 232.606 51.4258C231.91 53.5176 231.205 55.6495 230.152 57.5722C229 59.6641 227.447 61.5289 226.149 63.376C224.314 62.0541 222.476 60.7278 220.516 59.3169V59.3214Z" fill="#003263"/>
<path d="M161.239 91.2418H25.7169C25.7169 91.0593 25.7169 90.8724 25.7169 90.6899H161.226C161.23 90.8724 161.235 91.0593 161.239 91.2418Z" fill="#003263"/>
<path d="M158.182 85.496H13.6981C13.6981 85.3135 13.6981 85.1266 13.6981 84.9441H158.169C158.173 85.1266 158.178 85.3135 158.182 85.496Z" fill="#003263"/>
<path d="M240.948 49.0803C244.179 49.1426 246.227 52.4228 245.005 54.9019C244.09 56.7533 243.072 58.5603 242.224 60.4385C241.448 62.1565 240.327 62.2767 238.828 61.4934C236.186 60.1181 235.592 58.3779 236.913 55.7608C237.841 53.9138 238.739 52.0534 239.747 50.2509C240.06 49.6945 240.698 49.3207 240.952 49.0803H240.948Z" fill="#003263"/>
<path d="M33.237 110.228L31.9026 107.465H27.2075L25.9311 110.228H23.8871L28.8945 99.7871H30.1709L35.2766 110.228H33.2325H33.237ZM29.4658 102.435L27.9127 105.845H31.1528L29.4658 102.435Z" fill="#003263"/>
<path d="M51.4102 108.479C51.1692 108.902 50.8478 109.245 50.4462 109.507C50.0445 109.77 49.5938 109.953 49.0805 110.064C48.5717 110.175 48.0406 110.228 47.4917 110.228H44.5461V99.7871H48.0406C48.4334 99.7871 48.8217 99.8405 49.2099 99.9518C49.5982 100.063 49.9419 100.228 50.2498 100.441C50.5578 100.655 50.8077 100.926 50.9951 101.256C51.1826 101.581 51.2808 101.959 51.2808 102.391C51.2808 102.822 51.187 103.219 51.0041 103.624C50.8211 104.029 50.5399 104.336 50.1605 104.545C50.3971 104.625 50.6158 104.741 50.8166 104.897C51.0174 105.052 51.1915 105.239 51.3254 105.453C51.4637 105.667 51.5708 105.898 51.6512 106.147C51.7315 106.396 51.7672 106.646 51.7672 106.89C51.7672 107.518 51.6467 108.043 51.4057 108.466L51.4102 108.479ZM49.2501 102.075C49.1519 101.923 49.0314 101.799 48.8886 101.701C48.7458 101.603 48.5807 101.532 48.3977 101.487C48.2147 101.443 48.0317 101.421 47.8487 101.421H46.3179V104.046H47.8487C48.295 104.046 48.6655 103.922 48.96 103.673C49.2546 103.423 49.4018 103.072 49.4018 102.613C49.4018 102.404 49.3527 102.226 49.2546 102.075H49.2501ZM49.3171 105.951C48.9511 105.724 48.5048 105.609 47.9826 105.609H46.3135V108.604H47.4917C47.7416 108.604 48.0005 108.586 48.2772 108.555C48.5539 108.524 48.8083 108.457 49.0448 108.359C49.2813 108.261 49.4777 108.114 49.6339 107.919C49.7901 107.723 49.8705 107.469 49.8705 107.153C49.8705 106.579 49.6875 106.178 49.3215 105.947L49.3171 105.951Z" fill="#003263"/>
<path d="M70.0565 110.228L68.722 107.465H64.027L62.7506 110.228H60.7065L65.714 99.7871H66.9904L72.096 110.228H70.052H70.0565ZM66.2852 102.435L64.7321 105.845H67.9722L66.2852 102.435Z" fill="#003263"/>
<path d="M87.3415 108.733C87.1183 109.12 86.8238 109.436 86.4578 109.681C86.0919 109.93 85.6813 110.117 85.2305 110.237C84.7797 110.362 84.3156 110.424 83.847 110.424C82.8517 110.424 81.9413 110.148 81.1156 109.601L81.254 107.878C81.7003 108.19 82.1287 108.439 82.5393 108.622C82.9499 108.804 83.4319 108.898 83.9809 108.898C84.4629 108.898 84.8868 108.782 85.2483 108.555C85.6098 108.328 85.7884 107.945 85.7884 107.411C85.7884 107.073 85.6723 106.797 85.4447 106.588C85.2171 106.379 84.9225 106.192 84.57 106.031C84.2174 105.867 83.838 105.707 83.4408 105.551C83.0392 105.395 82.6643 105.199 82.3117 104.963C81.9591 104.727 81.6646 104.425 81.437 104.051C81.2094 103.677 81.0933 103.205 81.0933 102.631C81.0933 102.137 81.1871 101.701 81.379 101.327C81.5709 100.953 81.8253 100.642 82.1466 100.388C82.4679 100.134 82.8383 99.9429 83.2579 99.8094C83.6774 99.6803 84.1103 99.6135 84.5521 99.6135C85.0475 99.6135 85.5474 99.6847 86.0427 99.8272C86.5381 99.9696 86.9844 100.205 87.3772 100.53L87.0826 102.253C86.7167 101.968 86.3195 101.719 85.8955 101.51C85.4715 101.3 85.0207 101.198 84.5521 101.198C84.3557 101.198 84.1638 101.22 83.9809 101.265C83.7979 101.309 83.6283 101.38 83.481 101.478C83.3293 101.576 83.2088 101.705 83.1195 101.861C83.0258 102.017 82.9812 102.208 82.9812 102.431C82.9812 102.822 83.0972 103.134 83.3248 103.361C83.5524 103.588 83.847 103.784 84.1995 103.949C84.5521 104.113 84.9315 104.265 85.3287 104.407C85.7259 104.549 86.1052 104.741 86.4578 104.977C86.8104 105.213 87.1005 105.515 87.3326 105.889C87.5602 106.263 87.6762 106.752 87.6762 107.367C87.6762 107.887 87.5646 108.341 87.3415 108.729V108.733Z" fill="#003263"/>
<path d="M101.971 101.416V110.228H100.186V101.416H96.7896V99.7915H105.332V101.416H101.976H101.971Z" fill="#003263"/>
<path d="M125.174 107.157C124.88 107.825 124.478 108.399 123.965 108.88C123.456 109.365 122.858 109.743 122.179 110.015C121.497 110.291 120.774 110.424 120.001 110.424C119.229 110.424 118.457 110.295 117.761 110.042C117.065 109.788 116.467 109.423 115.954 108.956C115.445 108.484 115.043 107.919 114.757 107.251C114.467 106.583 114.325 105.84 114.325 105.017C114.325 104.193 114.472 103.503 114.766 102.831C115.061 102.159 115.463 101.581 115.976 101.1C116.485 100.619 117.083 100.237 117.761 99.9651C118.439 99.6892 119.167 99.5557 119.939 99.5557C120.751 99.5557 121.505 99.6847 122.197 99.9384C122.889 100.192 123.492 100.557 123.996 101.024C124.5 101.496 124.897 102.066 125.183 102.738C125.473 103.41 125.616 104.158 125.616 104.981C125.616 105.804 125.469 106.49 125.174 107.153V107.157ZM123.358 103.543C123.175 103.081 122.92 102.68 122.59 102.337C122.264 101.999 121.871 101.728 121.421 101.523C120.97 101.323 120.475 101.22 119.939 101.22C119.403 101.22 118.913 101.318 118.466 101.514C118.02 101.71 117.636 101.977 117.319 102.315C116.998 102.653 116.748 103.054 116.574 103.508C116.395 103.966 116.311 104.456 116.311 104.977C116.311 105.497 116.4 105.991 116.587 106.454C116.77 106.917 117.025 107.318 117.355 107.66C117.681 107.999 118.073 108.266 118.524 108.462C118.975 108.657 119.47 108.755 120.006 108.755C120.541 108.755 121.032 108.657 121.479 108.462C121.925 108.266 122.304 108.003 122.626 107.669C122.947 107.336 123.197 106.939 123.371 106.485C123.55 106.027 123.634 105.537 123.634 105.017C123.634 104.496 123.541 104.002 123.358 103.539V103.543Z" fill="#003263"/>
<path d="M149.694 110.228V99.7871H151.461V108.6H155.937V110.224H149.694V110.228Z" fill="#003263"/>
<path d="M174.204 110.228L172.87 107.465H168.175L166.898 110.228H164.854L169.862 99.7871H171.138L176.244 110.228H174.2H174.204ZM170.433 102.435L168.88 105.845H172.12L170.433 102.435Z" fill="#003263"/>
<path d="M205.753 104.002C205.548 104.394 205.28 104.727 204.949 104.999C204.619 105.27 204.231 105.48 203.802 105.626C203.37 105.769 202.923 105.84 202.468 105.84H201.035V110.228H199.268V99.7871H202.057C202.593 99.7871 203.124 99.8272 203.646 99.9028C204.168 99.9829 204.655 100.192 205.101 100.53C205.44 100.793 205.686 101.113 205.838 101.492C205.989 101.87 206.065 102.271 206.065 102.685C206.065 103.17 205.963 103.606 205.762 103.997L205.753 104.002ZM204.003 102.11C203.892 101.923 203.74 101.772 203.553 101.661C203.361 101.55 203.151 101.474 202.914 101.425C202.678 101.38 202.437 101.358 202.187 101.358H201.027V104.296H202.499C202.946 104.296 203.334 104.167 203.669 103.913C204.003 103.659 204.168 103.294 204.168 102.827C204.168 102.538 204.115 102.302 204.003 102.11Z" fill="#003263"/>
<path d="M216.348 110.228V99.7871H218.115V108.6H222.592V110.224H216.348V110.228Z" fill="#003263"/>
<path d="M240.858 110.228L239.524 107.465H234.829L233.553 110.228H231.509L236.516 99.7871H237.792L242.898 110.228H240.854H240.858ZM237.087 102.435L235.534 105.845H238.774L237.087 102.435Z" fill="#003263"/>
<path d="M255.43 101.416V110.228H253.645V101.416H250.249V99.7915H258.791V101.416H255.434H255.43Z" fill="#003263"/>
<path d="M275.464 110.228L274.13 107.465H269.435L268.158 110.228H266.114L271.122 99.7871H272.398L277.504 110.228H275.46H275.464ZM271.693 102.435L270.14 105.845H273.38L271.693 102.435Z" fill="#003263"/>
</svg>
