<svg width="298" height="93" viewBox="0 0 298 93" fill="none" xmlns="http://www.w3.org/2000/svg">
<path d="M97.1225 45.1526C97.9437 50.0306 100.287 53.7648 104.58 56.1281C110.351 59.3015 115.461 57.6013 120.258 53.6179C120.767 54.2276 121.231 54.7795 121.673 55.3047C117.558 61.7538 109.681 66.614 101.05 64.2373C93.021 62.0253 87.5226 55.1356 87.3352 46.5902C87.2415 42.2196 87.2683 42.095 82.8678 41.1114C74.3881 39.2109 65.8773 37.4618 57.3798 35.6593C56.8844 35.5569 56.3667 35.5658 55.7151 35.5124C55.6392 36.1711 55.5187 36.7408 55.5187 37.3105C55.5098 43.4658 55.492 49.6212 55.541 55.7765C55.5723 59.613 56.2641 60.4764 60.0397 61.0639C61.7937 61.3399 62.1462 62.092 61.5616 63.721H39.9876C39.3003 62.0742 39.7422 61.2954 41.5273 60.9883C45.0397 60.3785 45.8921 59.3371 45.9144 55.7542C45.9635 49.0782 45.9055 42.4066 45.9635 35.7305C45.9769 34.3508 45.5619 33.7366 44.1159 33.6164C41.7594 33.425 39.4164 33.0289 37.0688 32.7218C37.0822 32.5393 37.1001 32.3524 37.1135 32.1699C45.2004 32.7485 53.3006 33.1713 61.3697 33.9324C84.0995 36.0776 106.222 41.2449 128.069 47.6584C149.446 53.9383 170.726 60.5655 192.143 66.6941C211.879 72.3376 231.94 76.5747 252.331 79.1694C253.563 79.3252 254.786 79.5611 255.968 80.1931C249.376 79.7436 242.78 79.3831 236.202 78.8312C216.011 77.1443 196.133 73.6149 176.514 68.6034C171.98 67.4463 167.477 66.1689 162.96 64.9494C161.211 64.4776 159.617 64.1216 157.622 64.5844C156.109 64.9361 153.882 63.8056 152.486 62.6929C149.857 60.6055 149.254 60.3251 146.505 62.0876C138.557 67.1748 132.001 64.7224 129.006 55.5807C128.827 55.0421 128.314 54.3656 127.814 54.2098C117.884 51.121 107.936 48.099 97.9883 45.077C97.8053 45.0236 97.5777 45.1126 97.1225 45.1615V45.1526Z" fill="#003A70"/>
<path d="M209.87 23.9984C209.87 27.7014 209.87 31.1774 209.87 34.6534C209.87 40.6574 209.861 46.6614 209.87 52.6654C209.884 58.349 210.102 58.5849 215.815 59.3192C216.547 60.9794 216.065 61.7627 214.168 62.0965C210.223 62.7908 206.291 63.6053 202.395 64.5399C200.739 64.936 200.19 64.5221 200.284 62.8843C200.355 61.5802 200.297 60.2717 200.297 58.6116C197.811 60.2316 195.727 61.7226 193.505 62.9777C192.706 63.4273 191.501 63.6275 190.626 63.3961C186.609 62.3279 182.619 61.1485 178.688 59.8133C177.804 59.5151 176.76 58.5315 176.541 57.6725C175.983 55.4738 175.635 53.1728 175.581 50.903C175.439 44.7521 175.456 38.5967 175.488 32.4459C175.501 30.0158 174.595 28.547 172.087 28.0441C170.328 27.6925 170.355 27.5545 170.565 25.5205C175.381 24.9954 180.232 24.4702 185.199 23.9316C185.266 24.3767 185.369 24.7239 185.364 25.0666C185.275 33.1446 185.177 41.2227 185.079 49.3007C185.079 49.5232 185.065 49.7458 185.083 49.9683C185.355 53.1328 185.744 56.3328 189.042 57.8861C192.554 59.5462 195.901 58.6694 198.847 56.4174C199.588 55.8521 200.217 54.6371 200.235 53.7069C200.346 46.9641 200.315 40.2168 200.275 33.4695C200.253 29.3393 199.838 28.8764 195.794 27.9506C194.87 27.737 193.58 27.7771 194.009 26.384C194.165 25.8766 195.299 25.4538 196.031 25.3692C200.52 24.8574 205.019 24.4568 209.861 23.9895L209.87 23.9984Z" fill="#003A70"/>
<path d="M296.479 53.8492C296.479 54.7126 296.84 55.8475 296.425 56.395C290.512 64.1659 281.496 67.5396 272.294 62.5058C266.688 59.4393 264.198 54.2453 263.386 48.1478C261.944 37.337 269.518 26.2948 280.099 23.7001C288.775 21.5726 297.737 28.5647 297.59 37.2881C297.554 39.2998 296.737 40.2834 294.707 40.4125C288.334 40.8086 281.965 41.2937 275.587 41.672C272.575 41.85 272.548 41.7744 272.95 44.8498C273.414 48.3792 274.597 51.6194 277.149 54.2097C281.287 58.4022 287.834 58.9185 293.14 55.5048C294.002 54.9485 294.823 54.3343 295.666 53.7423C295.939 53.778 296.211 53.8091 296.479 53.8447V53.8492ZM273.186 37.7331C277.747 37.7331 282.036 37.7643 286.33 37.7153C287.758 37.702 288.378 36.665 288.102 35.441C287.651 33.4427 287.254 31.3197 286.249 29.5794C284.219 26.05 279.814 25.7118 276.949 28.6581C274.512 31.1594 273.548 34.2927 273.186 37.7331Z" fill="#003A70"/>
<path d="M32.8692 53.7157C34.467 54.8639 34.2706 55.803 33.2039 57.1026C26.7951 64.9003 17.4229 67.09 9.34047 62.4346C3.55201 59.0966 1.12415 53.6489 0.508265 47.2977C-0.504827 36.8475 6.94385 26.3438 17.0748 23.7624C25.7285 21.5593 34.6321 28.1597 34.7347 36.8653C34.766 39.6069 34.3464 40.2033 31.6464 40.408C25.3491 40.8932 19.0385 41.2715 12.7368 41.6943C11.8665 41.7521 10.9962 41.8011 9.93851 41.8634C10.1884 47.7428 11.5005 52.9323 16.7177 56.0167C22.5196 59.4482 27.8618 57.6234 32.8692 53.7157ZM10.3893 37.7065C14.9861 37.7065 19.3554 37.7777 23.7112 37.6174C24.2735 37.5952 25.3179 36.2956 25.2375 35.7125C24.9653 33.7676 24.577 31.7291 23.6934 30.0023C21.6716 26.0634 17.0926 25.5516 14.0266 28.7783C11.6835 31.244 10.7508 34.3239 10.3893 37.7065Z" fill="#003A70"/>
<path d="M255.772 53.6222C256.307 54.2587 256.727 54.7616 257.133 55.2468C253.844 61.5312 245.458 65.7593 238.589 64.6422C230.454 63.3159 224.375 57.4098 223.085 49.5721C221.505 39.9853 226.508 30.8791 236.001 26.197C241.276 23.5933 246.725 22.1824 252.523 24.4567C256.116 25.8676 257.097 28.9208 254.888 31.6179C253.527 33.2781 252.527 33.3048 250.733 32.0675C248.796 30.7278 246.864 29.2635 244.708 28.3912C240.634 26.74 236.416 28.222 234.439 32.1209C231.168 38.5744 231.159 45.2238 235.033 51.4058C239.469 58.4824 247.359 59.7286 254.138 54.8195C254.616 54.4723 255.089 54.1296 255.776 53.6312L255.772 53.6222Z" fill="#003A70"/>
<path d="M159.443 53.9649C156.6 53.097 153.829 52.3181 151.129 51.3568C150.678 51.1966 150.285 50.2441 150.259 49.6433C150.156 47.36 150.218 45.0679 150.218 42.1839C147.197 43.7683 144.336 44.8632 141.98 46.6346C140.181 47.9876 138.722 47.9742 136.896 47.2666C135.946 46.8972 134.955 46.6346 133.397 46.1361C134.567 45.6376 135.245 45.3261 135.941 45.0546C139.887 43.5235 143.814 41.9435 147.79 40.497C149.817 39.7582 150.624 38.4275 150.178 36.4068C149.705 34.2661 149.486 31.9294 148.438 30.0779C146.318 26.3304 141.551 26.4818 139.445 30.2159C138.579 31.747 138.043 33.4783 137.494 35.1606C136.981 36.7362 136.142 37.8266 134.375 37.7999C132.344 37.7688 130.827 36.7674 129.876 35.0049C129.028 33.4293 129.68 32.0808 130.867 31.0304C134.727 27.6167 139.373 25.6539 144.189 24.0339C148.63 22.5384 152.526 23.6066 155.958 26.6509C158.203 28.6404 159.318 31.2752 159.39 34.1459C159.55 40.6573 159.439 47.1776 159.439 53.9694L159.443 53.9649Z" fill="#003A70"/>
<path d="M55.2599 32.468C52.533 32.468 49.8731 32.468 47.2132 32.468C45.6779 32.468 45.9501 31.3153 45.9501 30.3985C45.9368 24.6259 45.9457 18.8533 45.9412 13.0807C45.9412 12.1906 45.9546 11.3049 45.9189 10.4148C45.7939 7.35712 45.0486 6.52929 42.0451 6.01746C41.1525 5.86614 39.8002 6.03526 40.1438 4.57988C40.2733 4.02354 41.2774 3.4405 41.9736 3.28917C46.3161 2.35898 50.6853 1.5445 55.2643 0.649902V32.468H55.2599Z" fill="#003A70"/>
<path d="M96.8859 37.2925C96.3638 37.2658 95.9219 37.2792 95.4935 37.2124C93.7395 36.932 91.9856 36.6294 89.772 36.2555C90.6467 34.9781 91.2581 33.8388 92.0972 32.9041C97.7785 26.553 104.683 22.7609 113.439 23.5843C115.461 23.7757 117.549 24.835 119.268 26.0011C120.084 26.5574 120.651 28.4623 120.343 29.4504C119.928 30.7767 118.688 31.965 117.523 32.8596C117.166 33.1356 115.849 32.3478 115.077 31.8849C113.372 30.8568 111.841 29.4771 110.038 28.6804C105.022 26.4639 100.363 28.4401 98.2114 33.5139C97.7205 34.6666 97.3813 35.8816 96.8904 37.297L96.8859 37.2925Z" fill="#003A70"/>
<path d="M87.2415 90.7812V90.2338C88.268 90.0958 88.3171 89.9222 88.0894 89.2591C87.9109 88.725 87.6298 87.9728 87.3531 87.1984H84.0862C83.8809 87.777 83.6488 88.3956 83.4658 88.952C83.1222 89.9801 83.4524 90.1047 84.7467 90.2383V90.7857H80.8461V90.2383C81.8636 90.1092 82.1225 89.9757 82.6759 88.587L86.032 80.2152L86.7193 80.0862C87.7458 82.8723 88.8526 85.8009 89.888 88.5247C90.4593 89.989 90.6021 90.1092 91.6866 90.2338V90.7812H87.246H87.2415ZM85.7509 82.77C85.2644 84.0073 84.7779 85.2223 84.3495 86.4329H87.0764L85.7553 82.77H85.7509Z" fill="#003A70"/>
<path d="M96.6003 83.718C97.002 83.5444 97.3144 83.4643 97.5956 83.4643C99.4834 83.4643 100.84 85.0265 100.84 86.8691C100.84 89.1167 98.9568 90.9816 96.6807 90.9771C95.8282 90.9771 94.9758 90.8169 93.9404 90.3985C93.9493 90.0024 93.9493 89.5529 93.9493 89.139V81.5728C93.9493 80.6248 93.869 80.509 92.9184 80.4378V79.9349C93.7307 79.8503 94.9624 79.6189 95.7479 79.3875V84.0963L96.5959 83.7224L96.6003 83.718ZM95.7524 88.9743C95.7524 89.2102 95.7881 89.3882 95.8416 89.5262C95.9711 89.8244 96.4888 90.3139 97.1448 90.3139C98.1892 90.3139 98.8407 89.2769 98.8407 87.3542C98.8407 85.4315 97.7875 84.4702 96.6896 84.4702C96.3058 84.4702 96.0112 84.5503 95.7479 84.6526V88.9787L95.7524 88.9743Z" fill="#003A70"/>
<path d="M108.458 90.9727C108.088 90.9727 107.735 90.8347 107.543 90.6434C107.325 90.4431 107.213 90.2205 107.133 90.0025C106.508 90.4164 105.718 90.9727 105.343 90.9727C104.04 90.9727 103.223 89.9401 103.223 88.9298C103.223 88.0975 103.629 87.6658 104.495 87.3409C105.459 86.9938 106.713 86.5932 107.079 86.2816V85.7075C107.079 84.764 106.678 84.2299 105.932 84.2299C105.624 84.2299 105.397 84.3768 105.245 84.5681C105.058 84.8129 104.977 85.1467 104.839 85.6274C104.736 86.0013 104.518 86.1125 104.223 86.1125C103.844 86.1125 103.353 85.7476 103.353 85.3203C103.353 85.0533 103.554 84.8485 103.906 84.6037C104.544 84.172 105.491 83.6602 106.401 83.4644C106.99 83.4644 107.521 83.6112 107.959 83.9183C108.61 84.4035 108.824 85.031 108.824 85.8588V88.7562C108.824 89.5173 109.088 89.7221 109.36 89.7221C109.534 89.7221 109.712 89.6642 109.891 89.5752L110.061 90.087L108.458 90.9638V90.9727ZM107.079 86.9092C106.767 87.0783 106.307 87.3009 105.964 87.47C105.424 87.7326 105.107 88.0308 105.107 88.5916C105.107 89.4773 105.74 89.82 106.155 89.82C106.45 89.82 106.798 89.7176 107.079 89.4506V86.9048V86.9092Z" fill="#003A70"/>
<path d="M116.269 85.6897C115.894 84.6304 115.389 84.0696 114.55 84.0696C114.059 84.0696 113.644 84.4213 113.644 84.9909C113.644 85.6007 114.073 85.9122 114.934 86.2995C116.273 86.9092 117.09 87.4344 117.09 88.6316C117.09 90.1983 115.617 90.9772 114.256 90.9772C113.417 90.9772 112.591 90.679 112.247 90.5054C112.176 90.1004 112.033 89.0678 111.98 88.5159L112.488 88.4224C112.81 89.4417 113.439 90.3541 114.519 90.3541C115.135 90.3541 115.514 89.9668 115.514 89.4283C115.514 88.8497 115.202 88.4803 114.251 88.0174C113.162 87.4923 112.167 86.9448 112.167 85.6674C112.167 84.3901 113.198 83.4644 114.845 83.4644C115.586 83.4644 116.166 83.6246 116.523 83.6958C116.572 84.1142 116.706 85.1378 116.777 85.5562L116.269 85.6897Z" fill="#003A70"/>
<path d="M122.481 90.7858C122.204 90.9193 121.95 90.9727 121.816 90.9727C120.647 90.9727 119.968 90.3764 119.968 88.9699V84.4079H118.906L118.821 84.2166L119.277 83.6558H119.968V82.3117C120.433 81.9467 121.111 81.466 121.584 81.1011L121.807 81.1945C121.785 81.7153 121.758 82.5965 121.771 83.6513H123.467C123.615 83.8115 123.552 84.2611 123.351 84.4079H121.776V88.418C121.776 89.6909 122.294 89.869 122.637 89.869C122.95 89.869 123.217 89.7889 123.485 89.6731L123.641 90.1983L122.481 90.7814V90.7858Z" fill="#003A70"/>
<path d="M129.135 83.4644C131.322 83.4644 132.782 85.1111 132.782 87.0961C132.782 89.6954 130.885 90.9772 129.091 90.9772C126.725 90.9772 125.346 89.1568 125.346 87.3009C125.346 84.7818 127.386 83.4644 129.131 83.4644H129.135ZM128.943 84.0741C128.145 84.0741 127.395 84.8797 127.395 86.8202C127.395 88.7607 128.14 90.3496 129.269 90.3496C130.019 90.3496 130.742 89.8244 130.742 87.5234C130.742 85.4093 130.09 84.0786 128.943 84.0786V84.0741Z" fill="#003A70"/>
<path d="M135.218 92.3568C136.093 91.9651 136.678 91.48 136.678 90.8569C136.678 90.2916 136.24 90.0691 135.477 89.9044C135.37 89.8866 135.218 89.6641 135.218 89.2902C135.218 88.814 135.611 88.3289 136.289 88.3289C137.048 88.3289 137.874 89.0054 137.874 90.2471C137.874 91.6758 136.584 92.5882 135.428 92.8997L135.218 92.3612V92.3568Z" fill="#003A70"/>
<path d="M153.833 87.9995C153.717 88.6226 153.253 90.3184 153.101 90.7768H145.264V90.2293C146.702 90.1181 146.831 90.0157 146.831 88.6538V82.4272C146.831 81.0698 146.67 80.9585 145.43 80.8472V80.2998H150.223V80.8472C148.951 80.9674 148.786 81.0609 148.786 82.4272V88.7829C148.786 89.7042 148.853 90.0424 149.75 90.0602C149.777 90.0691 150.665 90.078 150.741 90.078C151.629 90.078 151.87 89.9178 152.253 89.495C152.593 89.1389 152.985 88.4624 153.258 87.826L153.833 87.9951V87.9995Z" fill="#003A70"/>
<path d="M161.416 90.9727C161.046 90.9727 160.693 90.8347 160.501 90.6434C160.282 90.4431 160.171 90.2205 160.09 90.0025C159.466 90.4164 158.676 90.9727 158.301 90.9727C156.998 90.9727 156.181 89.9401 156.181 88.9298C156.181 88.0975 156.587 87.6658 157.453 87.3409C158.417 86.9938 159.671 86.5932 160.037 86.2816V85.7075C160.037 84.764 159.635 84.2299 158.89 84.2299C158.582 84.2299 158.354 84.3768 158.203 84.5681C158.015 84.8129 157.935 85.1467 157.796 85.6274C157.694 86.0013 157.475 86.1125 157.181 86.1125C156.801 86.1125 156.31 85.7476 156.31 85.3203C156.31 85.0533 156.511 84.8485 156.864 84.6037C157.502 84.172 158.448 83.6602 159.359 83.4644C159.948 83.4644 160.479 83.6112 160.916 83.9183C161.568 84.4035 161.782 85.031 161.782 85.8588V88.7562C161.782 89.5173 162.045 89.7221 162.317 89.7221C162.492 89.7221 162.67 89.6642 162.849 89.5752L163.018 90.087L161.416 90.9638V90.9727ZM160.037 86.9092C159.724 87.0783 159.265 87.3009 158.921 87.47C158.381 87.7326 158.064 88.0308 158.064 88.5916C158.064 89.4773 158.698 89.82 159.113 89.82C159.408 89.82 159.756 89.7176 160.037 89.4506V86.9048V86.9092Z" fill="#003A70"/>
<path d="M174.318 80.3088C175.55 80.3088 176.501 80.5269 177.166 80.9809C177.911 81.4883 178.357 82.2582 178.357 83.3531C178.357 85.6942 176.358 86.6645 174.698 86.6778C174.528 86.6778 174.336 86.66 174.229 86.6466L173.229 86.3885V88.694C173.229 90.047 173.341 90.1004 174.774 90.2384V90.7858H169.873V90.2384C171.145 90.0915 171.275 90.0292 171.275 88.6806V82.4407C171.275 81.061 171.105 80.9542 169.873 80.8563V80.3088H174.314H174.318ZM173.229 85.7476C173.421 85.8455 173.787 85.9256 174.198 85.9256C175.059 85.9256 176.318 85.4494 176.318 83.3576C176.318 81.5639 175.269 80.9275 174.113 80.9275C173.729 80.9275 173.484 81.0076 173.386 81.1011C173.265 81.2034 173.229 81.377 173.229 81.6841V85.7432V85.7476Z" fill="#003A70"/>
<path d="M180.375 90.7812V90.2694C181.334 90.1403 181.401 90.0602 181.401 89.0276V81.5638C181.401 80.6737 181.307 80.5802 180.401 80.42V79.9393C181.432 79.8325 182.517 79.6144 183.2 79.3918V89.0321C183.2 90.0958 183.267 90.167 184.231 90.2738V90.7857H180.37L180.375 90.7812Z" fill="#003A70"/>
<path d="M191.617 90.9727C191.246 90.9727 190.894 90.8347 190.702 90.6434C190.483 90.4431 190.372 90.2205 190.291 90.0025C189.667 90.4164 188.877 90.9727 188.502 90.9727C187.198 90.9727 186.382 89.9401 186.382 88.9298C186.382 88.0975 186.788 87.6658 187.654 87.3409C188.618 86.9938 189.872 86.5932 190.238 86.2816V85.7075C190.238 84.764 189.836 84.2299 189.091 84.2299C188.783 84.2299 188.555 84.3768 188.403 84.5681C188.216 84.8129 188.136 85.1467 187.997 85.6274C187.895 86.0013 187.676 86.1125 187.381 86.1125C187.002 86.1125 186.511 85.7476 186.511 85.3203C186.511 85.0533 186.712 84.8485 187.065 84.6037C187.703 84.172 188.649 83.6602 189.559 83.4644C190.149 83.4644 190.68 83.6112 191.117 83.9183C191.769 84.4035 191.983 85.031 191.983 85.8588V88.7562C191.983 89.5173 192.246 89.7221 192.518 89.7221C192.692 89.7221 192.871 89.6642 193.049 89.5752L193.219 90.087L191.617 90.9638V90.9727ZM190.238 86.9092C189.925 87.0783 189.466 87.3009 189.122 87.47C188.582 87.7326 188.265 88.0308 188.265 88.5916C188.265 89.4773 188.899 89.82 189.314 89.82C189.609 89.82 189.957 89.7176 190.238 89.4506V86.9048V86.9092Z" fill="#003A70"/>
<path d="M198.209 90.7858C197.932 90.9193 197.677 90.9727 197.544 90.9727C196.374 90.9727 195.696 90.3764 195.696 88.9699V84.4079H194.634L194.549 84.2166L195.004 83.6558H195.696V82.3117C196.16 81.9467 196.838 81.466 197.312 81.1011L197.535 81.1945C197.512 81.7153 197.486 82.5965 197.499 83.6513H199.195C199.342 83.8115 199.28 84.2611 199.079 84.4079H197.503V88.418C197.503 89.6909 198.021 89.869 198.365 89.869C198.677 89.869 198.945 89.7889 199.213 89.6731L199.369 90.1983L198.209 90.7814V90.7858Z" fill="#003A70"/>
<path d="M206.554 90.9727C206.184 90.9727 205.831 90.8347 205.639 90.6434C205.421 90.4431 205.309 90.2205 205.229 90.0025C204.604 90.4164 203.814 90.9727 203.439 90.9727C202.136 90.9727 201.319 89.9401 201.319 88.9298C201.319 88.0975 201.725 87.6658 202.591 87.3409C203.555 86.9938 204.809 86.5932 205.175 86.2816V85.7075C205.175 84.764 204.774 84.2299 204.028 84.2299C203.72 84.2299 203.493 84.3768 203.341 84.5681C203.154 84.8129 203.073 85.1467 202.935 85.6274C202.832 86.0013 202.614 86.1125 202.319 86.1125C201.94 86.1125 201.449 85.7476 201.449 85.3203C201.449 85.0533 201.65 84.8485 202.002 84.6037C202.64 84.172 203.586 83.6602 204.497 83.4644C205.086 83.4644 205.617 83.6112 206.054 83.9183C206.706 84.4035 206.92 85.031 206.92 85.8588V88.7562C206.92 89.5173 207.184 89.7221 207.456 89.7221C207.63 89.7221 207.808 89.6642 207.987 89.5752L208.157 90.087L206.554 90.9638V90.9727ZM205.175 86.9092C204.863 87.0783 204.403 87.3009 204.06 87.47C203.52 87.7326 203.203 88.0308 203.203 88.5916C203.203 89.4773 203.836 89.82 204.251 89.82C204.546 89.82 204.894 89.7176 205.175 89.4506V86.9048V86.9092Z" fill="#003A70"/>
<path d="M211.767 90.986C211.071 90.986 210.571 90.4742 210.571 89.7443C210.571 89.0143 211.071 88.5159 211.767 88.5159C212.463 88.5159 212.985 89.041 212.985 89.7443C212.985 90.4475 212.477 90.986 211.767 90.986Z" fill="#003A70"/>
</svg>
