<svg width="314" height="101" viewBox="0 0 314 101" fill="none" xmlns="http://www.w3.org/2000/svg">
<path d="M199.457 68.7583C196.057 69.3316 196.074 69.3226 194.655 66.3042C188.434 53.0527 182.204 39.8102 175.978 26.5633C174.268 22.9268 172.568 19.2904 170.64 15.1748C170.56 16.1063 170.488 16.5586 170.488 17.0065C170.484 32.0448 170.43 47.0876 170.542 62.1259C170.56 64.3516 171.345 66.5774 171.791 68.8613H165.173C167.686 65.1712 166.855 61.06 166.869 57.0877C166.931 41.6553 166.918 26.2184 166.869 10.7815C166.86 7.75417 166.289 4.79846 164.758 1.80244C167.391 1.80244 169.944 2.0174 172.443 1.74422C175.032 1.46208 176.174 2.47867 177.236 4.7895C183.078 17.4856 189.13 30.0832 195.11 42.7122C195.244 42.9943 195.414 43.2541 195.86 43.4243C195.86 42.8331 195.86 42.242 195.86 41.6464C195.86 31.2834 195.82 20.9161 195.887 10.5531C195.909 7.58847 195.592 4.75367 194.124 1.93679H201.251C198.859 5.30451 199.466 9.07528 199.462 12.7341C199.439 30.8714 199.453 49.0132 199.453 67.1506V68.7538L199.457 68.7583Z" fill="#003263"/>
<path d="M227.628 51.6245C230.761 48.9241 236.674 50.9975 237.803 55.3012C239.49 61.7411 235.567 68.8214 227.471 69.6947C223.428 70.1291 219.585 69.7753 215.845 68.2661C210.494 66.103 207.223 61.0828 207.276 55.4266C207.401 42.0767 207.357 28.7267 207.299 15.3767C207.272 9.21897 210.142 4.91527 215.609 2.56414C221.607 -0.0153971 227.775 -0.163184 233.724 2.87762C237.254 4.6824 239.267 7.75903 239.767 11.6731C240.414 16.7471 239.419 21.0777 234.438 24.1185C230.395 26.5905 224.124 25.256 221.848 21.5703C221.379 20.8134 221.219 19.8685 220.938 19.0714C222.928 18.9325 224.718 19.0534 226.378 18.6414C229.466 17.8712 231.747 15.0184 231.912 12.1926C232.126 8.51139 230.537 5.60046 227.636 4.35996C222.433 2.13421 217.702 5.5915 217.657 11.7268C217.608 18.6549 217.648 25.5829 217.648 32.5109C217.648 41.1855 217.617 49.86 217.671 58.5346C217.684 60.5947 217.889 62.6681 219.251 64.4102C221.21 66.9091 223.856 67.245 226.668 66.6539C229.466 66.0627 231.046 63.9893 231.841 61.3963C233.197 56.9761 232.099 54.531 227.632 51.62L227.628 51.6245Z" fill="#003263"/>
<path d="M123.373 1.8969H138.105C136.61 5.0228 136.083 8.20691 136.092 11.5433C136.137 26.6936 136.092 41.8394 136.137 56.9896C136.146 59.5916 136.672 62.1442 138.502 64.1505C141.97 67.9482 149.615 67.1286 152.686 62.7622C154.489 60.2006 154.957 57.3121 154.966 54.3295C155.006 39.2374 155.042 24.1454 154.93 9.05331C154.913 6.66187 154.132 4.27491 153.699 1.87451H160.531C158.023 5.41689 158.728 9.29962 158.702 13.057C158.59 27.2399 158.545 41.4273 158.452 55.6103C158.407 62.3457 155.163 67.5765 149.414 69.2648C146.71 70.0575 143.684 70.0396 140.823 69.9097C137.48 69.7619 134.258 68.7946 131.375 66.9316C127.372 64.3386 125.511 60.5275 125.479 55.8879C125.399 42.3185 125.421 28.7446 125.47 15.1707C125.488 10.6655 125.261 6.22747 123.377 1.89243L123.373 1.8969Z" fill="#003263"/>
<path d="M104.436 0.835534H119.329C117.647 4.23461 117.223 7.79042 117.232 11.4671C117.267 25.9412 117.259 40.4108 117.241 54.8848C117.232 62.4666 112.831 67.5048 105.753 69.2245C100.402 70.5232 95.0508 70.3844 90.0344 67.4779C86.0937 65.194 83.822 59.7707 84.5762 55.0326C85.326 50.3303 87.6021 46.9133 92.2481 45.6594C96.0059 44.6428 100.473 45.8699 102.526 49.1212C103.031 49.9183 103.24 50.8946 103.705 52.0948C101.009 51.5843 98.7908 51.4499 96.6262 52.5471C93.0916 54.3384 91.5429 58.3555 92.9889 62.2651C94.3234 65.8702 97.9071 67.872 101.625 66.5509C103.133 66.0135 104.619 64.4774 105.383 63.013C106.222 61.4098 106.516 59.3632 106.525 57.5046C106.61 42.5828 106.552 27.6564 106.588 12.7345C106.597 8.67265 106.284 4.70035 104.428 0.831055L104.436 0.835534Z" fill="#003263"/>
<path d="M263.711 68.8883C266.344 64.1099 264.643 59.4076 263.818 54.7411C262.791 48.9327 261.573 43.1601 260.404 37.195C257.583 37.195 254.736 37.1681 251.884 37.2353C251.58 37.2442 251.116 37.7906 251.027 38.1623C248.992 46.7652 246.952 55.3681 245.047 63.9979C244.716 65.4937 245.002 67.1283 245.002 68.83H239.401C242.529 62.3543 243.302 55.2517 244.98 48.4132C247.805 36.9039 250.317 25.3139 252.964 13.7597C253.437 11.6997 253.972 9.65307 254.392 7.57959C254.508 7.01084 254.405 6.34804 254.231 5.77929C253.843 4.50744 253.352 3.26246 252.83 1.80699C256.423 1.80699 259.931 1.77117 263.438 1.86521C263.787 1.87417 264.322 2.64445 264.42 3.12811C266.835 15.5332 269.187 27.9472 271.574 40.3567C273.016 47.84 274.426 55.3323 276.028 62.7798C276.479 64.8667 277.555 66.8148 278.367 68.8838H263.711V68.8883ZM259.716 33.5137C258.587 27.6605 257.48 21.9417 256.378 16.2183C256.244 16.2094 256.106 16.2049 255.972 16.1959C254.664 21.9327 253.361 27.6695 252.031 33.5137H259.716Z" fill="#003263"/>
<path d="M0.337778 68.8839C2.70761 63.483 2.47554 57.7552 2.47554 52.0632C2.48 40.9121 2.48 29.761 2.47554 18.6054C2.47554 12.9671 2.69869 7.30203 0.328857 1.8877H31.6142C31.5116 3.57604 31.4312 5.17929 31.3107 6.77806C31.2349 7.83495 31.0831 8.88737 31.0028 9.94426C30.9403 10.7548 30.9582 11.5654 29.8201 11.5968C28.8472 11.6192 27.9144 11.7356 27.7136 10.3428C27.2316 6.94376 25.2188 5.10315 21.8269 4.81206C20.8808 4.73145 19.9213 4.74041 18.9706 4.73593C17.0069 4.72697 15.0477 4.73593 12.9456 4.73593V24.678C17.1274 24.3511 21.2602 24.0287 25.7008 23.6838C25.5535 24.902 25.5669 26.3082 25.1786 27.5845C24.7904 28.8653 23.7773 29.9088 22.3089 29.7341C20.0105 29.4609 17.7433 28.9638 15.4672 28.5294C14.655 28.3727 13.865 28.1219 12.8073 27.8442C12.8073 28.61 12.8073 29.2057 12.8073 29.7968C12.8073 40.2179 12.8073 50.6346 12.8073 61.0557C12.8073 64.3473 14.4318 65.9819 17.7523 66.0312C19.1001 66.0536 20.4479 66.0401 21.7957 66.0312C24.4824 66.0222 26.3836 64.7862 27.3789 62.2783C27.8252 61.1498 28.1108 59.9496 28.4455 58.7762C29.0614 56.6087 29.106 56.5729 31.7079 57.0207C31.8329 58.9599 31.94 60.9617 32.0918 62.9545C32.239 64.8982 32.4265 66.8418 32.605 68.8749H0.337778V68.8839Z" fill="#003263"/>
<path d="M281.125 68.8796C282.817 65.3462 283.142 61.6605 283.133 57.8898C283.102 42.6813 283.107 27.4683 283.129 12.2598C283.133 8.70847 282.714 5.26013 281.121 1.90137H295.826C294.358 5.03174 293.787 8.34572 293.787 11.7806C293.787 28.3416 293.787 44.907 293.787 61.468C293.787 64.1908 294.849 65.6642 297.504 65.9642C299.611 66.2016 301.789 66.2105 303.891 65.9508C306.506 65.6284 307.809 63.5997 308.697 61.3157C308.978 60.5902 309.26 59.8378 309.34 59.0765C309.545 57.1105 310.567 56.497 312.634 57.115C312.888 60.9127 313.156 64.8447 313.428 68.8841H281.13L281.125 68.8796Z" fill="#003263"/>
<path d="M67.9115 57.1057C68.0722 59.0449 68.2641 60.9885 68.3935 62.9365C68.523 64.8802 68.5899 66.8282 68.6881 68.8748H36.4655C38.1748 64.9473 38.5453 60.8541 38.5408 56.6848C38.5229 42.0943 38.5408 27.4993 38.5319 12.9088C38.5319 9.13359 38.0052 5.45238 36.4744 1.89209H51.2067C48.8859 5.94948 49.06 10.3383 49.0198 14.5972C48.8904 29.9221 48.9618 45.247 48.9707 60.572C48.9707 64.6428 50.3855 66.049 54.4022 66.04C55.3572 66.04 56.3123 65.9997 57.2674 66.0445C61.4135 66.2505 62.8952 64.1233 64.0109 61.1989C64.2876 60.4734 64.4661 59.7077 64.6804 58.9598C65.1237 57.4192 66.2037 56.7997 67.9205 57.1013L67.9115 57.1057Z" fill="#003263"/>
<path d="M89.5435 8.60506C94.4171 9.91274 96.47 13.4865 97.6706 17.723C98.6033 21.0146 97.9562 24.2569 96.9743 27.441C95.1401 33.3793 95.0553 35.8648 97.9249 41.2567C93.6628 40.3387 91.4179 37.4636 90.1014 33.7107C88.9321 30.3833 89.0749 27.0111 90.2799 23.7106C91.7794 19.6129 92.315 15.4928 90.7262 11.2966C90.4004 10.4367 89.9898 9.60822 89.5435 8.60059V8.60506Z" fill="#003263"/>
<path d="M54.0094 98.656V90.2815H55.3974V97.4782H59.3783V98.6605H54.0094V98.656Z" fill="#003263"/>
<path d="M62.4399 98.656V90.2815H63.8279V98.656H62.4399Z" fill="#003263"/>
<path d="M70.0895 98.7948C69.6744 98.7948 69.304 98.7724 68.9871 98.7276C68.6703 98.6828 68.3802 98.6067 68.1258 98.5082C67.8669 98.4096 67.5991 98.2842 67.3269 98.1454V96.7661C67.6527 97.0258 68.0454 97.2408 68.5096 97.4065C68.9737 97.5722 69.4691 97.6573 70.0047 97.6573C70.5402 97.6573 70.9062 97.5498 71.1606 97.3393C71.415 97.1288 71.5444 96.8288 71.5444 96.4526C71.5444 96.1615 71.4507 95.9241 71.2632 95.745C71.0758 95.5659 70.8259 95.4136 70.5179 95.2882C70.21 95.1628 69.8797 95.0374 69.5316 94.912C69.2638 94.8135 69.0005 94.706 68.7417 94.5896C68.4828 94.4776 68.2507 94.3343 68.041 94.1641C67.8312 93.994 67.6661 93.7745 67.5411 93.5058C67.4162 93.2371 67.3537 92.9057 67.3537 92.5116C67.3537 92.234 67.4072 91.9563 67.5144 91.6697C67.6215 91.3831 67.7866 91.1278 68.0097 90.8994C68.2329 90.671 68.523 90.4829 68.8845 90.3486C69.246 90.2142 69.6834 90.1426 70.1921 90.1426C70.5269 90.1426 70.8169 90.165 71.0624 90.2053C71.3079 90.2456 71.5444 90.3128 71.7631 90.3978C71.9818 90.4829 72.2228 90.5904 72.4816 90.7158V92.0727C72.2719 91.9384 72.0621 91.813 71.8479 91.6966C71.6337 91.5801 71.4016 91.4816 71.1517 91.41C70.9017 91.3338 70.6206 91.2935 70.3126 91.2846C69.9601 91.2756 69.6744 91.3204 69.4513 91.41C69.2281 91.504 69.0541 91.6339 68.938 91.7996C68.822 91.9653 68.764 92.1578 68.764 92.3773C68.764 92.6729 68.8354 92.9013 68.9827 93.0759C69.1299 93.2461 69.3352 93.3894 69.603 93.5013C69.8708 93.6133 70.1787 93.7253 70.5313 93.8328C70.8393 93.9313 71.1383 94.0477 71.4328 94.1731C71.7229 94.2985 71.9818 94.4508 72.2094 94.6299C72.4325 94.809 72.6155 95.033 72.7539 95.3017C72.8922 95.5704 72.9592 95.9017 72.9592 96.2914C72.9592 96.7258 72.861 97.1333 72.6646 97.514C72.4682 97.8946 72.1603 98.2036 71.7363 98.4455C71.3168 98.6828 70.7678 98.8037 70.0895 98.8037V98.7948Z" fill="#003263"/>
<path d="M75.5432 98.656L78.7967 90.2815H80.2606L83.4248 98.656H81.9743L79.185 90.9577L79.7116 90.9085L76.9223 98.656H75.5477H75.5432ZM77.1454 96.381L77.5471 95.2525H81.5147L81.6262 96.381H77.1454Z" fill="#003263"/>
<path d="M86.3569 98.656V90.2815H87.6824L92.5024 96.9766L92.1142 97.729V90.2815H93.4263V98.656H92.1856L87.2317 91.8265L87.669 91.213V98.6605H86.3569V98.656Z" fill="#003263"/>
<path d="M97.1306 98.656V90.2815H100.058C101.411 90.2815 102.415 90.6353 103.075 91.3384C103.736 92.0415 104.066 93.085 104.066 94.4643C104.066 95.8436 103.736 96.8916 103.075 97.5991C102.415 98.3067 101.411 98.6605 100.058 98.6605H97.1306V98.656ZM98.5051 97.4872H99.9199C100.853 97.4872 101.54 97.2453 101.986 96.7662C102.433 96.287 102.651 95.5167 102.651 94.4598C102.651 93.4029 102.428 92.6461 101.986 92.1624C101.544 91.6787 100.857 91.4324 99.9199 91.4324H98.5051V97.4872Z" fill="#003263"/>
<path d="M107.444 98.656V90.2815H111.149C112.015 90.2815 112.68 90.492 113.144 90.9174C113.608 91.3384 113.84 91.9698 113.84 92.8073C113.84 93.2417 113.751 93.6447 113.577 94.012C113.403 94.3792 113.148 94.6837 112.813 94.9166C112.479 95.1495 112.081 95.2838 111.626 95.3196L111.778 94.8942L114.255 98.6605H112.541L110.225 94.9076L110.863 95.4988H108.824V98.665H107.449L107.444 98.656ZM108.819 94.3613H110.76C111.309 94.3613 111.724 94.2404 111.992 93.9985C112.264 93.7567 112.398 93.3895 112.398 92.8924C112.398 92.4311 112.291 92.0773 112.081 91.8265C111.872 91.5757 111.506 91.4504 110.988 91.4504H108.824V94.3658L108.819 94.3613Z" fill="#003263"/>
<path d="M120.722 98.7948C119.896 98.7948 119.191 98.6335 118.615 98.3156C118.035 97.9976 117.593 97.5184 117.294 96.8825C116.995 96.2466 116.843 95.445 116.843 94.4732C116.843 93.0401 117.174 91.9608 117.839 91.2353C118.504 90.5053 119.463 90.1426 120.722 90.1426C121.556 90.1426 122.261 90.3038 122.837 90.6218C123.413 90.9397 123.855 91.4189 124.158 92.0593C124.462 92.6997 124.613 93.5058 124.613 94.4776C124.613 95.9018 124.283 96.9766 123.618 97.7065C122.953 98.4365 121.989 98.7992 120.722 98.7992V98.7948ZM120.722 97.6035C121.28 97.6035 121.744 97.496 122.105 97.2856C122.467 97.0751 122.739 96.7347 122.918 96.2734C123.096 95.8122 123.185 95.2121 123.185 94.4642C123.185 93.7163 123.096 93.1297 122.918 92.6729C122.739 92.2161 122.467 91.8802 122.105 91.6697C121.744 91.4592 121.28 91.3517 120.722 91.3517C120.164 91.3517 119.713 91.4592 119.347 91.6787C118.981 91.8981 118.704 92.234 118.526 92.6908C118.347 93.1476 118.258 93.7432 118.258 94.4821C118.258 95.221 118.347 95.8167 118.526 96.2779C118.704 96.7392 118.977 97.0751 119.347 97.29C119.713 97.505 120.173 97.608 120.722 97.608V97.6035Z" fill="#003263"/>
<path d="M136.815 98.7948C135.99 98.7948 135.284 98.6335 134.709 98.3156C134.129 97.9976 133.687 97.5184 133.388 96.8825C133.089 96.2466 132.937 95.445 132.937 94.4732C132.937 93.0401 133.267 91.9608 133.932 91.2353C134.597 90.5053 135.557 90.1426 136.815 90.1426C137.65 90.1426 138.355 90.3038 138.931 90.6218C139.506 90.9397 139.948 91.4189 140.252 92.0593C140.555 92.6997 140.707 93.5058 140.707 94.4776C140.707 95.9018 140.377 96.9766 139.712 97.7065C139.047 98.4365 138.083 98.7992 136.815 98.7992V98.7948ZM136.815 97.6035C137.373 97.6035 137.837 97.496 138.199 97.2856C138.56 97.0751 138.832 96.7347 139.011 96.2734C139.19 95.8122 139.279 95.2121 139.279 94.4642C139.279 93.7163 139.19 93.1297 139.011 92.6729C138.832 92.2161 138.56 91.8802 138.199 91.6697C137.837 91.4592 137.373 91.3517 136.815 91.3517C136.257 91.3517 135.807 91.4592 135.441 91.6787C135.075 91.8981 134.798 92.234 134.619 92.6908C134.441 93.1476 134.352 93.7432 134.352 94.4821C134.352 95.221 134.441 95.8167 134.619 96.2779C134.798 96.7392 135.07 97.0751 135.441 97.29C135.807 97.505 136.266 97.608 136.815 97.608V97.6035Z" fill="#003263"/>
<path d="M144.072 98.656V90.2815H145.46V97.4782H149.441V98.6605H144.072V98.656Z" fill="#003263"/>
<path d="M152.507 98.656V90.2815H153.944L156.934 94.7151L156.122 94.8136L159.264 90.2815H160.679V98.656H159.304V91.4593L159.692 91.7235L156.515 96.1302L153.484 91.7594L153.846 91.3563V98.6515H152.507V98.656Z" fill="#003263"/>
<path d="M167.94 98.7948C167.114 98.7948 166.409 98.6335 165.833 98.3156C165.253 97.9976 164.811 97.5184 164.512 96.8825C164.213 96.2466 164.062 95.445 164.062 94.4732C164.062 93.0401 164.392 91.9608 165.057 91.2353C165.722 90.5053 166.681 90.1426 167.94 90.1426C168.774 90.1426 169.48 90.3038 170.055 90.6218C170.631 90.9397 171.073 91.4189 171.376 92.0593C171.68 92.6997 171.832 93.5058 171.832 94.4776C171.832 95.9018 171.501 96.9766 170.836 97.7065C170.171 98.4365 169.207 98.7992 167.94 98.7992V98.7948ZM167.94 97.6035C168.498 97.6035 168.962 97.496 169.323 97.2856C169.685 97.0751 169.957 96.7347 170.136 96.2734C170.314 95.8122 170.403 95.2121 170.403 94.4642C170.403 93.7163 170.314 93.1297 170.136 92.6729C169.957 92.2161 169.685 91.8802 169.323 91.6697C168.962 91.4592 168.498 91.3517 167.94 91.3517C167.382 91.3517 166.931 91.4592 166.565 91.6787C166.199 91.8981 165.923 92.234 165.744 92.6908C165.566 93.1476 165.476 93.7432 165.476 94.4821C165.476 95.221 165.566 95.8167 165.744 96.2779C165.923 96.7392 166.195 97.0751 166.565 97.29C166.931 97.505 167.391 97.608 167.94 97.608V97.6035Z" fill="#003263"/>
<path d="M177.75 98.7948C177.334 98.7948 176.964 98.7724 176.647 98.7276C176.33 98.6828 176.04 98.6067 175.786 98.5082C175.527 98.4096 175.259 98.2842 174.987 98.1454V96.7661C175.313 97.0258 175.705 97.2408 176.17 97.4065C176.634 97.5722 177.129 97.6573 177.665 97.6573C178.2 97.6573 178.566 97.5498 178.821 97.3393C179.075 97.1288 179.204 96.8288 179.204 96.4526C179.204 96.1615 179.111 95.9241 178.923 95.745C178.736 95.5659 178.486 95.4136 178.178 95.2882C177.87 95.1628 177.54 95.0374 177.192 94.912C176.924 94.8135 176.661 94.706 176.402 94.5896C176.143 94.4776 175.911 94.3343 175.701 94.1641C175.491 93.994 175.326 93.7745 175.201 93.5058C175.076 93.2371 175.014 92.9057 175.014 92.5116C175.014 92.234 175.067 91.9563 175.174 91.6697C175.281 91.3831 175.447 91.1278 175.67 90.8994C175.893 90.671 176.183 90.4829 176.545 90.3486C176.906 90.2142 177.343 90.1426 177.852 90.1426C178.187 90.1426 178.477 90.165 178.722 90.2053C178.968 90.2456 179.204 90.3128 179.423 90.3978C179.642 90.4829 179.883 90.5904 180.142 90.7158V92.0727C179.932 91.9384 179.722 91.813 179.508 91.6966C179.294 91.5801 179.062 91.4816 178.812 91.41C178.562 91.3338 178.281 91.2935 177.973 91.2846C177.62 91.2756 177.334 91.3204 177.111 91.41C176.888 91.504 176.714 91.6339 176.598 91.7996C176.482 91.9653 176.424 92.1578 176.424 92.3773C176.424 92.6729 176.495 92.9013 176.643 93.0759C176.79 93.2461 176.995 93.3894 177.263 93.5013C177.531 93.6133 177.839 93.7253 178.191 93.8328C178.499 93.9313 178.798 94.0477 179.093 94.1731C179.383 94.2985 179.642 94.4508 179.869 94.6299C180.093 94.809 180.276 95.033 180.414 95.3017C180.552 95.5704 180.619 95.9017 180.619 96.2914C180.619 96.7258 180.521 97.1333 180.325 97.514C180.128 97.8946 179.82 98.2036 179.396 98.4455C178.977 98.6828 178.428 98.8037 177.75 98.8037V98.7948Z" fill="#003263"/>
<path d="M183.917 100.062L184.846 97.5991H186.086L184.984 100.062H183.922H183.917Z" fill="#003263"/>
<path d="M195.106 98.656V90.2815H196.494V97.4782H200.475V98.6605H195.106V98.656Z" fill="#003263"/>
<path d="M202.764 98.656L206.018 90.2815H207.482L210.646 98.656H209.196L206.406 90.9577L206.933 90.9085L204.143 98.656H202.769H202.764ZM204.367 96.381L204.768 95.2525H208.736L208.847 96.381H204.367Z" fill="#003263"/>
<path d="M220.237 95.6555V98.656H218.862V90.2815H222.165C223.115 90.2815 223.852 90.5054 224.374 90.9488C224.896 91.3921 225.155 92.0549 225.155 92.9327C225.155 93.8104 224.896 94.4867 224.374 94.9524C223.852 95.4227 223.115 95.6555 222.165 95.6555H220.237ZM220.237 94.4732H221.991C222.348 94.4732 222.642 94.4329 222.866 94.3523C223.089 94.2717 223.267 94.1598 223.392 94.012C223.517 93.8642 223.602 93.703 223.647 93.5283C223.691 93.3536 223.714 93.17 223.714 92.9775C223.714 92.7849 223.691 92.5968 223.647 92.4132C223.602 92.2296 223.517 92.0639 223.392 91.9161C223.267 91.7683 223.093 91.6564 222.866 91.5713C222.642 91.4862 222.348 91.4459 221.991 91.4459H220.237V94.4732Z" fill="#003263"/>
<path d="M228.534 98.656V90.2815H229.922V97.4782H233.903V98.6605H228.534V98.656Z" fill="#003263"/>
<path d="M236.192 98.656L239.446 90.2815H240.909L244.074 98.656H242.623L239.834 90.9577L240.36 90.9085L237.571 98.656H236.196H236.192ZM237.794 96.381L238.196 95.2525H242.163L242.275 96.381H237.794Z" fill="#003263"/>
<path d="M248.229 98.6559V91.4457H245.524V90.2769H252.308V91.4457H249.603V98.6559H248.229Z" fill="#003263"/>
<path d="M253.763 98.656L257.016 90.2815H258.48L261.644 98.656H260.194L257.404 90.9577L257.931 90.9085L255.142 98.656H253.767H253.763ZM255.365 96.381L255.767 95.2525H259.734L259.846 96.381H255.365Z" fill="#003263"/>
</svg>
