<?xml version="1.0" encoding="UTF-8"?>
<svg id="Capa_1" data-name="Capa 1" xmlns="http://www.w3.org/2000/svg" viewBox="0 0 704.04 196.58">
  <defs>
    <style>
      .cls-1 {
        fill: #003A70;
        stroke-width: 0px;
      }
    </style>
  </defs>
  <path class="cls-1" d="m525.64,35.02c1-1.7,3.9-6.41,7.51-6.41,2.8,0,9.01,5.21,11.71,5.21,1.3,0,3.1-.9,4.61-1.8,1.2-.7,2.5-.3,3.1,1l.7,1.7s-.8,2.5-2.2,3.81c-1.9,1.8-4.51,3.8-6.31,3.8-2.7,0-7.61-5.51-10.71-5.51-1.3,0-3.2.9-4.71,1.9-1.4.8-2.9.3-3.4-1.2l-.4-1.2c-.1-.5-.1-.9.1-1.3Z"/>
  <g>
    <path class="cls-1" d="m130.94,70.44v-7.2c-2.02-16.62-17.69-15.5-19.49-15.33l-.52.02c-16.62,0-19.59,12.88-20.01,15.4v44.48c0,14.5,9.97,20.66,10.07,20.71l7.53,4.51v-55.12c0-2.72,2.19-4.91,4.91-4.91s4.91,2.19,4.91,4.91v29.03l15.13-8.4c2.39-1.32,5.36-.47,6.68,1.89,1.32,2.37.47,5.36-1.89,6.68l-19.91,11.07v14.98l14.85-9.54c2.29-1.45,5.33-.8,6.8,1.47,1.45,2.29.8,5.33-1.47,6.8l-20.19,12.98v2.82h.07v14.95l-9.97,2.49v-17.44h.07v-3.21s-.07-.02-.1-.05l-12.46-7.48c-.62-.37-14.85-9.15-14.85-29.13l.05-45.45c1.05-8.35,8.55-24.12,29.51-24.25,9.52-.95,27.69,2.92,30.08,24.3l.02.55v7.48h.07v14.95l-9.97,2.49v-17.44h.07Z"/>
    <g>
      <path class="cls-1" d="m186.62,54.04v52.57c0,2.9,1.6,4.51,4.51,4.51h8.31c1.1,0,2,.9,2,2v7.01c0,1.1-.9,2-2,2h-21.83c-1.1,0-2-.9-2-2V54.04c0-1.1.9-2,2-2h7.01c1.1,0,2,.9,2,2Z"/>
      <path class="cls-1" d="m236.79,53.54l15.72,65.88c.3,1.5-.7,2.7-2.2,2.7h-6.71c-1.5-.3-1.6-1.9-2-3.5l-.3-1.1c-.5-2.1-1.8-3.1-3.9-3.1h-12.22c-2.1,0-3.4,1-3.91,3.1l-.8,3.1c-.2.9-.9,1.5-1.8,1.5h-6.41c-1.5,0-2.5-1.2-2.2-2.7l15.72-65.88c.2-.9.9-1.5,1.8-1.5h7.41c.9,0,1.6.6,1.8,1.5Zm-8.11,50.16h5.21c2.6,0,3.81-1.5,3.2-4.01l-3.6-14.52c-.9-3.5-3.5-3.5-4.41,0l-3.5,14.52c-.6,2.5.6,4.01,3.1,4.01Z"/>
      <path class="cls-1" d="m305.57,50.84c10.61,0,17.72,7.21,17.72,17.92v6.31c0,1.1-.9,2-2,2h-7.01c-1.1,0-2-.9-2-2v-6.31c0-4.11-2.7-6.91-6.71-6.91s-6.91,2.8-6.91,7.01v36.45c0,4.21,2.8,7.01,6.91,7.01s6.71-2.8,6.71-6.91v-6.31c0-1.1.9-2,2-2h7.01c1.1,0,2,.9,2,2v6.31c0,10.71-7.11,17.92-17.72,17.92s-17.72-7.11-17.92-17.82v-36.85c0-10.71,7.21-17.82,17.92-17.82Z"/>
      <path class="cls-1" d="m357.64,53.54l15.72,65.88c.3,1.5-.7,2.7-2.2,2.7h-6.71c-1.5-.3-1.6-1.9-2-3.5l-.3-1.1c-.5-2.1-1.8-3.1-3.9-3.1h-12.22c-2.1,0-3.4,1-3.91,3.1l-.8,3.1c-.2.9-.9,1.5-1.8,1.5h-6.41c-1.5,0-2.5-1.2-2.2-2.7l15.72-65.88c.2-.9.9-1.5,1.8-1.5h7.41c.9,0,1.6.6,1.8,1.5Zm-8.11,50.16h5.21c2.6,0,3.81-1.5,3.2-4.01l-3.6-14.52c-.9-3.5-3.5-3.5-4.41,0l-3.5,14.52c-.6,2.5.6,4.01,3.1,4.01Z"/>
      <path class="cls-1" d="m395.48,53.34l11.51,36.05c.8,2.8,3,2.8,3.8,0l11.52-36.05c.2-.8.9-1.3,1.8-1.3h7.21c1.1,0,2,.9,2,2v66.08c0,1.1-.9,2-2,2h-6.81c-1.1,0-2-.9-2-2v-28.14c0-1.5-2.8-1.8-3.1-.3l-5.01,28.94c-.2.9-.9,1.5-1.8,1.5h-7.41c-.9,0-1.6-.6-1.8-1.5l-5.01-28.94c-.3-1.5-3.1-1.2-3.1.3v28.14c0,1.1-.9,2-2,2h-6.81c-1.1,0-2-.9-2-2V54.04c0-1.1.9-2,2-2h7.21c.9,0,1.6.5,1.8,1.3Z"/>
      <path class="cls-1" d="m484.2,73.37c0,12.72-6.81,21.23-16.92,21.23h-3.3c-2.7,0-4.61,1.9-4.61,4.61v20.93c0,1.1-.9,2-2,2h-7.01c-1.1,0-2-.9-2-2V54.04c0-1.1.9-2,2-2h16.92c10.11,0,16.92,8.51,16.92,21.33Zm-20.83,10.21h3.9c3.5,0,5.91-4.11,5.91-10.21s-2.4-10.31-5.91-10.31h-3.3c-2.7,0-4.61,1.9-4.61,4.61v11.31c0,2.7,1.7,4.61,4.01,4.61Z"/>
      <path class="cls-1" d="m505.72,54.04v66.08c0,1.1-.9,2-2,2h-7.01c-1.1,0-2-.9-2-2V54.04c0-1.1.9-2,2-2h7.01c1.1,0,2,.9,2,2Z"/>
      <path class="cls-1" d="m531.86,53.24l11.61,29.64c1.1,2.8,3.5,2.3,3.5-.6v-28.24c0-1.1.9-2,2-2h7.01c1.1,0,2,.9,2,2v66.08c0,1.1-.9,2-2,2h-7.41c-.8,0-1.5-.4-1.8-1.2l-11.52-29.64c-1.1-2.8-3.5-2.3-3.5.6v28.24c0,1.1-.9,2-2,2h-7.01c-1.1,0-2-.9-2-2V54.04c0-1.1.9-2,2-2h7.41c.7,0,1.4.4,1.7,1.2Z"/>
      <path class="cls-1" d="m596.84,53.54l15.72,65.88c.3,1.5-.7,2.7-2.2,2.7h-6.71c-1.5-.3-1.6-1.9-2-3.5l-.3-1.1c-.5-2.1-1.8-3.1-3.9-3.1h-12.22c-2.1,0-3.4,1-3.91,3.1l-.8,3.1c-.2.9-.9,1.5-1.8,1.5h-6.41c-1.5,0-2.5-1.2-2.2-2.7l15.72-65.88c.2-.9.9-1.5,1.8-1.5h7.41c.9,0,1.6.6,1.8,1.5Zm-8.11,50.16h5.21c2.6,0,3.81-1.5,3.2-4.01l-3.6-14.52c-.9-3.5-3.5-3.5-4.41,0l-3.5,14.52c-.6,2.5.6,4.01,3.1,4.01Z"/>
    </g>
    <g>
      <path class="cls-1" d="m231.66,153.23l-5.01,12.2c-.06.17-.16.31-.3.4-.14.1-.29.15-.45.15-.27,0-.47-.07-.6-.21-.13-.14-.19-.31-.19-.51-.01-.1,0-.21.04-.32l5.53-13.44c.07-.2.18-.35.33-.44s.32-.13.5-.12c.18,0,.35.05.5.15s.25.23.31.41l5.5,13.31c.04.11.06.23.06.34,0,.26-.09.46-.26.61-.17.15-.36.22-.58.22-.17,0-.33-.05-.47-.15-.14-.1-.25-.24-.32-.43l-5.08-12.2.47.02Zm-3.95,8.72l.73-1.66h6.34l.32,1.66h-7.38Z"/>
      <path class="cls-1" d="m252.35,151.01c.24,0,.43.07.58.22.14.15.21.34.21.57v13.25c0,.27-.09.49-.26.65-.17.16-.38.25-.62.25-.13,0-.26-.02-.38-.07-.13-.05-.23-.12-.3-.2l-9.13-12.07.43-.26v11.82c0,.23-.07.42-.22.57s-.34.22-.59.22c-.23,0-.41-.07-.55-.22-.14-.15-.21-.34-.21-.57v-13.29c0-.26.08-.46.25-.62.16-.16.36-.23.59-.23.13,0,.26.02.39.07.13.05.24.12.31.22l9,11.9-.28.34v-11.75c0-.23.07-.42.22-.57.15-.15.34-.22.57-.22Z"/>
      <path class="cls-1" d="m264.75,166.16c-1.1,0-2.11-.2-3.04-.59-.93-.39-1.75-.93-2.45-1.63-.7-.7-1.25-1.51-1.64-2.44-.39-.93-.59-1.94-.59-3.02s.2-2.11.59-3.04c.39-.93.94-1.75,1.64-2.44.7-.7,1.52-1.24,2.45-1.62.93-.38,1.94-.58,3.04-.58.73,0,1.43.08,2.1.25.68.16,1.29.42,1.85.76.14.07.25.17.31.3.06.13.1.26.1.4,0,.24-.08.45-.25.62-.16.17-.35.26-.57.26-.09,0-.17-.01-.25-.04-.08-.03-.16-.06-.25-.08-.44-.23-.92-.41-1.43-.54-.51-.13-1.05-.2-1.62-.2-1.12,0-2.13.26-3.02.79-.89.53-1.59,1.24-2.1,2.13-.51.9-.77,1.91-.77,3.05s.26,2.14.77,3.04c.51.9,1.21,1.62,2.1,2.14.89.53,1.9.79,3.02.79.57,0,1.16-.08,1.76-.23.6-.16,1.12-.36,1.55-.6l-.15.51v-4.5l.34.3h-3.26c-.24,0-.44-.08-.61-.25-.16-.16-.25-.37-.25-.61s.08-.44.25-.61c.16-.16.37-.25.61-.25h3.88c.26,0,.46.09.62.26.16.17.23.38.23.62v4.93c0,.17-.04.32-.12.45-.08.13-.18.23-.31.32-.64.41-1.35.74-2.12.99-.78.25-1.58.37-2.42.37Z"/>
      <path class="cls-1" d="m274.69,151.01h7.59c.24,0,.45.08.62.23.17.16.26.36.26.6s-.09.44-.26.59c-.17.15-.38.22-.62.22h-6.87l.19-.36v5.4l-.21-.23h5.93c.24,0,.45.08.62.23.17.16.26.36.26.6s-.09.44-.26.59c-.17.15-.38.22-.62.22h-5.87l.15-.19v5.53l-.13-.15h6.81c.24,0,.45.09.62.26.17.17.26.36.26.58,0,.24-.09.44-.26.6-.17.16-.38.23-.62.23h-7.59c-.24,0-.44-.09-.61-.26-.16-.17-.25-.38-.25-.62v-13.2c0-.24.08-.44.25-.61.16-.16.37-.25.61-.25Z"/>
      <path class="cls-1" d="m295.3,164.26c.24,0,.45.08.62.25.17.16.26.37.26.61s-.09.44-.26.6c-.17.16-.38.23-.62.23h-7.38c-.24,0-.44-.09-.61-.26-.16-.17-.25-.38-.25-.62v-13.2c0-.24.09-.44.26-.61.17-.16.38-.25.64-.25.24,0,.45.08.62.25.17.16.26.37.26.61v12.78l-.43-.38h6.89Z"/>
      <path class="cls-1" d="m307.48,151.01h7.59c.24,0,.45.08.62.23.17.16.26.36.26.6s-.09.44-.26.59c-.17.15-.38.22-.62.22h-6.87l.19-.36v5.4l-.21-.23h5.93c.24,0,.45.08.62.23.17.16.26.36.26.6s-.09.44-.26.59c-.17.15-.38.22-.62.22h-5.87l.15-.19v5.53l-.13-.15h6.81c.24,0,.45.09.62.26.17.17.26.36.26.58,0,.24-.09.44-.26.6-.17.16-.38.23-.62.23h-7.59c-.24,0-.44-.09-.61-.26-.16-.17-.25-.38-.25-.62v-13.2c0-.24.08-.44.25-.61.16-.16.37-.25.61-.25Z"/>
      <path class="cls-1" d="m319.53,152.63c-.24,0-.44-.07-.61-.22-.16-.15-.25-.34-.25-.59s.08-.44.25-.59c.16-.15.37-.22.61-.22h9.92c.24,0,.45.07.62.22.17.15.26.34.26.59,0,.26-.09.46-.26.6-.17.14-.38.21-.62.21h-9.92Zm4.95,13.31c-.26,0-.47-.09-.64-.26-.17-.17-.26-.38-.26-.62v-13.18h1.81v13.18c0,.24-.09.45-.26.62-.17.17-.39.26-.66.26Z"/>
      <path class="cls-1" d="m344.28,151.99c.24.13.38.32.42.58.04.26-.03.49-.2.7-.13.19-.29.28-.49.3-.2.01-.4-.03-.6-.13-.47-.28-.97-.51-1.51-.67-.54-.16-1.11-.25-1.71-.25-.84,0-1.61.15-2.3.44-.7.29-1.3.7-1.81,1.23-.51.53-.91,1.15-1.19,1.88-.28.72-.43,1.53-.43,2.41,0,.94.15,1.78.45,2.52s.71,1.37,1.23,1.89c.52.52,1.12.91,1.81,1.18.69.27,1.44.4,2.25.4.58,0,1.14-.08,1.69-.23.54-.16,1.05-.38,1.54-.68.2-.1.4-.13.6-.11.2.03.37.13.51.3.17.23.23.47.19.71-.04.25-.18.43-.41.54-.36.21-.76.41-1.22.59-.46.18-.93.32-1.42.42s-.99.15-1.48.15c-1.02,0-1.99-.18-2.9-.53-.91-.35-1.71-.87-2.41-1.54-.7-.67-1.25-1.47-1.65-2.42-.41-.95-.61-2.01-.61-3.19,0-1.11.19-2.13.58-3.05.38-.92.92-1.73,1.61-2.41.69-.68,1.49-1.22,2.41-1.6s1.91-.58,2.98-.58c.74,0,1.46.1,2.17.3.7.2,1.35.48,1.93.85Z"/>
      <path class="cls-1" d="m349.25,151.01c.24,0,.45.08.62.25.17.16.26.37.26.63v13.18c0,.24-.09.45-.27.62-.18.17-.39.26-.63.26-.27,0-.48-.09-.64-.26-.16-.17-.23-.38-.23-.62v-13.18c0-.26.09-.47.26-.63.17-.16.38-.25.64-.25Zm-.09,6.51h9.94l-.02,1.66h-9.98l.06-1.66Zm9.92-6.51c.26,0,.47.08.63.25.16.16.25.37.25.63v13.18c0,.24-.09.45-.26.62-.17.17-.38.26-.64.26-.24,0-.45-.09-.62-.26-.17-.17-.26-.38-.26-.62v-13.18c0-.26.09-.47.27-.63.18-.16.39-.25.63-.25Z"/>
      <path class="cls-1" d="m365.63,151.01h7.59c.24,0,.45.08.62.23.17.16.26.36.26.6s-.09.44-.26.59c-.17.15-.38.22-.62.22h-6.87l.19-.36v5.4l-.21-.23h5.93c.24,0,.45.08.62.23.17.16.26.36.26.6s-.09.44-.26.59c-.17.15-.38.22-.62.22h-5.87l.15-.19v5.53l-.13-.15h6.81c.24,0,.45.09.62.26.17.17.26.36.26.58,0,.24-.09.44-.26.6-.17.16-.38.23-.62.23h-7.59c-.24,0-.44-.09-.61-.26-.16-.17-.25-.38-.25-.62v-13.2c0-.24.08-.44.25-.61.16-.16.37-.25.61-.25Z"/>
      <path class="cls-1" d="m388.84,150.99c.24,0,.45.07.62.22s.26.35.26.59c0,.11-.03.24-.09.38l-5.57,13.2c-.09.19-.2.32-.35.42-.15.09-.31.14-.48.14-.16-.01-.31-.07-.45-.16-.14-.09-.25-.22-.32-.4l-5.55-13.18c-.03-.06-.05-.12-.06-.18-.01-.06-.02-.13-.02-.2,0-.27.1-.48.29-.63s.38-.22.57-.22c.38,0,.66.2.83.6l5.1,12.16h-.49l4.93-12.2c.17-.35.43-.53.79-.53Z"/>
      <path class="cls-1" d="m394.19,151.01h7.59c.24,0,.45.08.62.23.17.16.26.36.26.6s-.09.44-.26.59c-.17.15-.38.22-.62.22h-6.87l.19-.36v5.4l-.21-.23h5.93c.24,0,.45.08.62.23.17.16.26.36.26.6s-.09.44-.26.59c-.17.15-.38.22-.62.22h-5.87l.15-.19v5.53l-.13-.15h6.81c.24,0,.45.09.62.26.17.17.26.36.26.58,0,.24-.09.44-.26.6-.17.16-.38.23-.62.23h-7.59c-.24,0-.44-.09-.61-.26-.16-.17-.25-.38-.25-.62v-13.2c0-.24.08-.44.25-.61.16-.16.37-.25.61-.25Z"/>
      <path class="cls-1" d="m407.55,165.95c-.27,0-.5-.09-.69-.26-.19-.17-.29-.38-.29-.62v-13.2c0-.24.08-.44.25-.61.16-.16.37-.25.61-.25h5.89c.8,0,1.51.18,2.15.54.64.36,1.15.86,1.53,1.49.38.63.57,1.36.57,2.19,0,.6-.11,1.16-.34,1.67-.23.52-.54.97-.94,1.34-.4.38-.85.67-1.37.86l-.47-.34c.48.11.92.32,1.3.61s.7.66.94,1.11c.24.45.37.97.38,1.57.03.53.06.95.11,1.26.04.31.11.56.19.74.09.18.21.32.36.42.2.13.33.3.39.51.06.21.02.42-.12.62-.09.13-.21.22-.36.27-.16.05-.31.07-.47.05-.16-.01-.29-.06-.41-.13-.23-.13-.45-.32-.66-.57-.21-.25-.39-.61-.53-1.08-.14-.47-.21-1.11-.21-1.92,0-.45-.07-.83-.21-1.13-.14-.3-.33-.54-.58-.73-.24-.18-.51-.31-.81-.38-.3-.07-.6-.11-.92-.11h-4.76l.26-.38v5.57c0,.24-.07.45-.21.62-.14.17-.33.26-.58.26Zm.53-7.59h5.23c.41-.03.8-.17,1.16-.43.36-.26.66-.61.9-1.08.23-.46.35-.98.35-1.57,0-.75-.24-1.38-.71-1.88-.48-.5-1.08-.75-1.8-.75h-5.03l.17-.4v6.49l-.26-.38Z"/>
      <path class="cls-1" d="m423.04,165.95c-.27,0-.5-.09-.69-.26-.19-.17-.29-.38-.29-.62v-13.2c0-.24.08-.44.25-.61.16-.16.37-.25.61-.25h5.89c.8,0,1.51.18,2.15.54.64.36,1.15.86,1.53,1.49.38.63.57,1.36.57,2.19,0,.6-.11,1.16-.34,1.67-.23.52-.54.97-.94,1.34-.4.38-.85.67-1.37.86l-.47-.34c.48.11.92.32,1.3.61s.7.66.94,1.11c.24.45.37.97.38,1.57.03.53.06.95.11,1.26.04.31.11.56.19.74.09.18.21.32.36.42.2.13.33.3.39.51.06.21.02.42-.12.62-.09.13-.21.22-.36.27-.16.05-.31.07-.47.05-.16-.01-.29-.06-.41-.13-.23-.13-.45-.32-.66-.57-.21-.25-.39-.61-.53-1.08-.14-.47-.21-1.11-.21-1.92,0-.45-.07-.83-.21-1.13-.14-.3-.33-.54-.58-.73-.24-.18-.51-.31-.81-.38-.3-.07-.6-.11-.92-.11h-4.76l.26-.38v5.57c0,.24-.07.45-.21.62-.14.17-.33.26-.58.26Zm.53-7.59h5.23c.41-.03.8-.17,1.16-.43.36-.26.66-.61.9-1.08.23-.46.35-.98.35-1.57,0-.75-.24-1.38-.71-1.88-.48-.5-1.08-.75-1.8-.75h-5.03l.17-.4v6.49l-.26-.38Z"/>
      <path class="cls-1" d="m446.2,150.93c.24,0,.44.09.61.27s.25.38.25.61c0,.09-.01.17-.03.27-.02.09-.06.18-.12.27l-4.95,6.89.28-1.05v6.89c0,.24-.08.45-.25.62-.16.17-.36.26-.59.26-.26,0-.47-.09-.63-.26-.16-.17-.25-.38-.25-.62v-6.72l.15.55-4.8-6.48c-.09-.11-.15-.22-.18-.33-.04-.11-.05-.21-.05-.31,0-.24.1-.44.3-.61.2-.16.4-.25.6-.25.28,0,.52.14.7.41l4.42,6.06-.41-.06,4.25-5.97c.18-.28.42-.43.7-.43Z"/>
      <path class="cls-1" d="m452.26,165.84c0,.28-.06.59-.18.91s-.29.62-.5.91c-.21.28-.45.52-.7.69s-.51.27-.77.27c-.2,0-.37-.05-.5-.14-.14-.09-.2-.25-.2-.46,0-.27.09-.43.27-.47s.35-.11.52-.19c.18-.1.33-.24.44-.42s.16-.37.16-.57c0-.16-.05-.29-.16-.39s-.25-.16-.42-.16c-.1,0-.2.01-.31.04-.11.03-.2.07-.27.13-.1-.07-.18-.16-.26-.26s-.11-.23-.11-.38c.01-.21.1-.41.25-.58.15-.17.34-.31.58-.4s.46-.15.67-.15c.44,0,.8.14,1.08.42.28.28.42.68.42,1.2Z"/>
      <path class="cls-1" d="m471.33,164.26c.24,0,.45.08.62.25.17.16.26.37.26.61s-.09.44-.26.6c-.17.16-.38.23-.62.23h-7.38c-.24,0-.44-.09-.61-.26-.16-.17-.25-.38-.25-.62v-13.2c0-.24.09-.44.26-.61.17-.16.38-.25.64-.25.24,0,.45.08.62.25.17.16.26.37.26.61v12.78l-.43-.38h6.89Z"/>
      <path class="cls-1" d="m480.89,153.23l-5.01,12.2c-.06.17-.16.31-.3.4-.14.1-.29.15-.45.15-.27,0-.47-.07-.6-.21-.13-.14-.19-.31-.19-.51-.01-.1,0-.21.04-.32l5.53-13.44c.07-.2.18-.35.33-.44s.32-.13.5-.12c.18,0,.35.05.5.15s.25.23.31.41l5.5,13.31c.04.11.06.23.06.34,0,.26-.09.46-.26.61-.17.15-.36.22-.58.22-.17,0-.33-.05-.47-.15-.14-.1-.25-.24-.32-.43l-5.08-12.2.47.02Zm-3.95,8.72l.73-1.66h6.34l.32,1.66h-7.38Z"/>
      <path class="cls-1" d="m503.31,151.01c.78,0,1.49.19,2.11.58.63.38,1.12.91,1.48,1.58.36.67.54,1.43.54,2.28s-.18,1.6-.54,2.28c-.36.68-.86,1.22-1.48,1.62-.63.4-1.33.6-2.11.6h-4.33l.15-.26v5.38c0,.24-.08.45-.23.62-.16.17-.36.26-.6.26-.26,0-.46-.09-.61-.26-.15-.17-.22-.38-.22-.62v-13.2c0-.24.08-.44.25-.61.16-.16.37-.25.61-.25h4.99Zm0,7.3c.47,0,.88-.13,1.24-.38.36-.26.64-.6.85-1.05.21-.44.32-.92.32-1.43,0-.54-.11-1.02-.32-1.43-.21-.41-.5-.74-.85-.99-.36-.25-.77-.37-1.24-.37h-4.33l.15-.23v6.1l-.15-.21h4.33Z"/>
      <path class="cls-1" d="m519.55,164.26c.24,0,.45.08.62.25.17.16.26.37.26.61s-.09.44-.26.6c-.17.16-.38.23-.62.23h-7.38c-.24,0-.44-.09-.61-.26-.16-.17-.25-.38-.25-.62v-13.2c0-.24.09-.44.26-.61.17-.16.38-.25.64-.25.24,0,.45.08.62.25.17.16.26.37.26.61v12.78l-.43-.38h6.89Z"/>
      <path class="cls-1" d="m529.1,153.23l-5.01,12.2c-.06.17-.16.31-.3.4-.14.1-.29.15-.45.15-.27,0-.47-.07-.6-.21-.13-.14-.19-.31-.19-.51-.01-.1,0-.21.04-.32l5.53-13.44c.07-.2.18-.35.33-.44s.32-.13.5-.12c.18,0,.35.05.5.15s.25.23.31.41l5.5,13.31c.04.11.06.23.06.34,0,.26-.09.46-.26.61-.17.15-.36.22-.58.22-.17,0-.33-.05-.47-.15-.14-.1-.25-.24-.32-.43l-5.08-12.2.47.02Zm-3.95,8.72l.73-1.66h6.34l.32,1.66h-7.38Z"/>
      <path class="cls-1" d="m537.36,152.63c-.24,0-.44-.07-.61-.22-.16-.15-.25-.34-.25-.59s.08-.44.25-.59c.16-.15.37-.22.61-.22h9.92c.24,0,.45.07.62.22.17.15.26.34.26.59,0,.26-.09.46-.26.6-.17.14-.38.21-.62.21h-9.92Zm4.95,13.31c-.26,0-.47-.09-.64-.26-.17-.17-.26-.38-.26-.62v-13.18h1.81v13.18c0,.24-.09.45-.26.62-.17.17-.39.26-.66.26Z"/>
      <path class="cls-1" d="m555.88,153.23l-5.01,12.2c-.06.17-.16.31-.3.4-.14.1-.29.15-.45.15-.27,0-.47-.07-.6-.21-.13-.14-.19-.31-.19-.51-.01-.1,0-.21.04-.32l5.53-13.44c.07-.2.18-.35.33-.44s.32-.13.5-.12c.18,0,.35.05.5.15s.25.23.31.41l5.5,13.31c.04.11.06.23.06.34,0,.26-.09.46-.26.61-.17.15-.36.22-.58.22-.17,0-.33-.05-.47-.15-.14-.1-.25-.24-.32-.43l-5.08-12.2.47.02Zm-3.95,8.72l.73-1.66h6.34l.32,1.66h-7.38Z"/>
    </g>
  </g>
</svg>