<?xml version="1.0" encoding="UTF-8"?>
<svg id="Capa_1" data-name="Capa 1" xmlns="http://www.w3.org/2000/svg" xmlns:xlink="http://www.w3.org/1999/xlink" viewBox="0 0 704.04 196.58">
  <defs>
    <style>
      .cls-1 {
        filter: url(#luminosity-noclip-11);
      }

      .cls-2 {
        fill: url(#linear-gradient-12);
      }

      .cls-2, .cls-3, .cls-4, .cls-5, .cls-6, .cls-7, .cls-8, .cls-9, .cls-10, .cls-11, .cls-12, .cls-13, .cls-14, .cls-15, .cls-16, .cls-17, .cls-18, .cls-19 {
        stroke-width: 0px;
      }

      .cls-20 {
        mask: url(#mask-23);
      }

      .cls-21 {
        mask: url(#mask-10);
      }

      .cls-22 {
        filter: url(#luminosity-noclip-7);
      }

      .cls-23 {
        filter: url(#luminosity-noclip-13);
      }

      .cls-24 {
        mask: url(#mask-17);
      }

      .cls-3 {
        fill: url(#linear-gradient-6);
      }

      .cls-25 {
        filter: url(#luminosity-noclip-5);
      }

      .cls-4 {
        fill: url(#linear-gradient-15);
      }

      .cls-4, .cls-6, .cls-7, .cls-8, .cls-13, .cls-15, .cls-17, .cls-19 {
        mix-blend-mode: multiply;
      }

      .cls-5 {
        fill: rgba(20, 33, 61, .38);
      }

      .cls-26 {
        mask: url(#mask-2);
      }

      .cls-6 {
        fill: url(#linear-gradient-11);
      }

      .cls-27 {
        mask: url(#mask-13);
      }

      .cls-28 {
        mask: url(#mask-3);
      }

      .cls-7 {
        fill: url(#linear-gradient-5);
      }

      .cls-29 {
        filter: url(#luminosity-noclip-15);
      }

      .cls-8 {
        fill: url(#linear-gradient-9);
      }

      .cls-30 {
        mask: url(#mask-9);
      }

      .cls-31 {
        mask: url(#mask-12);
      }

      .cls-32 {
        mask: url(#mask-5);
      }

      .cls-9 {
        fill: url(#linear-gradient-16);
      }

      .cls-10 {
        fill: #14213d;
      }

      .cls-33 {
        mask: url(#mask-20);
      }

      .cls-11 {
        fill: url(#linear-gradient-14);
      }

      .cls-12 {
        fill: url(#linear-gradient-2);
      }

      .cls-34 {
        filter: url(#luminosity-noclip-9);
      }

      .cls-35 {
        mask: url(#mask-8);
      }

      .cls-36 {
        mask: url(#mask-4);
      }

      .cls-13 {
        fill: url(#linear-gradient);
      }

      .cls-37 {
        mask: url(#mask-19);
      }

      .cls-38 {
        mask: url(#mask-15);
      }

      .cls-39 {
        mask: url(#mask-6);
      }

      .cls-40 {
        mask: url(#mask-16);
      }

      .cls-14 {
        fill: url(#linear-gradient-8);
      }

      .cls-41 {
        mask: url(#mask-18);
      }

      .cls-42 {
        filter: url(#luminosity-noclip);
      }

      .cls-43 {
        mask: url(#mask-1);
      }

      .cls-44 {
        mask: url(#mask);
      }

      .cls-45 {
        mask: url(#mask-22);
      }

      .cls-46 {
        mask: url(#mask-7);
      }

      .cls-15 {
        fill: url(#linear-gradient-3);
      }

      .cls-16 {
        fill: url(#linear-gradient-10);
      }

      .cls-17 {
        fill: url(#linear-gradient-7);
      }

      .cls-18 {
        fill: url(#linear-gradient-4);
      }

      .cls-47 {
        mask: url(#mask-14);
      }

      .cls-19 {
        fill: url(#linear-gradient-13);
      }

      .cls-48 {
        mask: url(#mask-21);
      }

      .cls-49 {
        mask: url(#mask-11);
      }

      .cls-50 {
        filter: url(#luminosity-noclip-3);
      }
    </style>
    <filter id="luminosity-noclip" x="267.01" y="62.81" width="15.58" height="16.73" color-interpolation-filters="sRGB" filterUnits="userSpaceOnUse">
      <feFlood flood-color="#fff" result="bg"/>
      <feBlend in="SourceGraphic" in2="bg"/>
    </filter>
    <filter id="luminosity-noclip-2" x="267.01" y="-9079.61" width="15.58" height="32766" color-interpolation-filters="sRGB" filterUnits="userSpaceOnUse">
      <feFlood flood-color="#fff" result="bg"/>
      <feBlend in="SourceGraphic" in2="bg"/>
    </filter>
    <mask id="mask-2" x="267.01" y="-9079.61" width="15.58" height="32766" maskUnits="userSpaceOnUse"/>
    <linearGradient id="linear-gradient" x1="-930.63" y1="1431.86" x2="-914.73" y2="1412.04" gradientTransform="translate(-1149.58 995.81) rotate(90) scale(1 -1)" gradientUnits="userSpaceOnUse">
      <stop offset="0" stop-color="#fff"/>
      <stop offset="1" stop-color="#000"/>
    </linearGradient>
    <mask id="mask-1" x="267.01" y="62.81" width="15.58" height="16.73" maskUnits="userSpaceOnUse">
      <g class="cls-42">
        <g class="cls-26">
          <rect class="cls-13" x="268.09" y="65.51" width="13.43" height="11.32" transform="translate(104.39 298.2) rotate(-67.63)"/>
        </g>
      </g>
    </mask>
    <linearGradient id="linear-gradient-2" x1="-930.63" y1="1431.86" x2="-914.73" y2="1412.04" gradientTransform="translate(-1149.58 995.81) rotate(90) scale(1 -1)" gradientUnits="userSpaceOnUse">
      <stop offset="0" stop-color="#fff"/>
      <stop offset="1" stop-color="#fff"/>
    </linearGradient>
    <mask id="mask" x="267.01" y="62.81" width="15.58" height="16.73" maskUnits="userSpaceOnUse">
      <g id="id0">
        <g class="cls-43">
          <rect class="cls-12" x="268.09" y="65.51" width="13.43" height="11.32" transform="translate(104.39 298.2) rotate(-67.63)"/>
        </g>
      </g>
    </mask>
    <filter id="luminosity-noclip-3" x="264.6" y="62.06" width="14.11" height="17.32" color-interpolation-filters="sRGB" filterUnits="userSpaceOnUse">
      <feFlood flood-color="#fff" result="bg"/>
      <feBlend in="SourceGraphic" in2="bg"/>
    </filter>
    <filter id="luminosity-noclip-4" x="264.6" y="-9079.61" width="14.11" height="32766" color-interpolation-filters="sRGB" filterUnits="userSpaceOnUse">
      <feFlood flood-color="#fff" result="bg"/>
      <feBlend in="SourceGraphic" in2="bg"/>
    </filter>
    <mask id="mask-5" x="264.6" y="-9079.61" width="14.11" height="32766" maskUnits="userSpaceOnUse"/>
    <linearGradient id="linear-gradient-3" x1="-931.61" y1="1432.53" x2="-923.78" y2="1414.59" gradientTransform="translate(-1151.95 998.44) rotate(90) scale(1 -1)" xlink:href="#linear-gradient"/>
    <mask id="mask-4" x="264.6" y="62.06" width="14.11" height="17.32" maskUnits="userSpaceOnUse">
      <g class="cls-50">
        <g class="cls-32">
          <rect class="cls-15" x="264.16" y="66.18" width="14.99" height="9.09" transform="translate(102.86 295.01) rotate(-67.63)"/>
        </g>
      </g>
    </mask>
    <linearGradient id="linear-gradient-4" x1="-931.61" y1="1432.53" x2="-923.78" y2="1414.59" gradientTransform="translate(-1151.95 998.44) rotate(90) scale(1 -1)" xlink:href="#linear-gradient-2"/>
    <mask id="mask-3" x="264.6" y="62.06" width="14.11" height="17.32" maskUnits="userSpaceOnUse">
      <g id="id2">
        <g class="cls-36">
          <rect class="cls-18" x="264.16" y="66.18" width="14.99" height="9.09" transform="translate(102.86 295.01) rotate(-67.63)"/>
        </g>
      </g>
    </mask>
    <filter id="luminosity-noclip-5" x="262.28" y="61.21" width="12.9" height="17.31" color-interpolation-filters="sRGB" filterUnits="userSpaceOnUse">
      <feFlood flood-color="#fff" result="bg"/>
      <feBlend in="SourceGraphic" in2="bg"/>
    </filter>
    <filter id="luminosity-noclip-6" x="262.28" y="-9079.61" width="12.9" height="32766" color-interpolation-filters="sRGB" filterUnits="userSpaceOnUse">
      <feFlood flood-color="#fff" result="bg"/>
      <feBlend in="SourceGraphic" in2="bg"/>
    </filter>
    <mask id="mask-8" x="262.28" y="-9079.61" width="12.9" height="32766" maskUnits="userSpaceOnUse"/>
    <linearGradient id="linear-gradient-5" x1="-931.41" y1="1432.84" x2="-930.08" y2="1413.56" gradientTransform="translate(-1154.56 1000.61) rotate(90) scale(1 -1)" xlink:href="#linear-gradient"/>
    <mask id="mask-7" x="262.28" y="61.21" width="12.9" height="17.31" maskUnits="userSpaceOnUse">
      <g class="cls-25">
        <g class="cls-35">
          <rect class="cls-7" x="260.92" y="66.1" width="15.63" height="7.52" transform="translate(101.84 291.77) rotate(-67.63)"/>
        </g>
      </g>
    </mask>
    <linearGradient id="linear-gradient-6" x1="-931.41" y1="1432.84" x2="-930.08" y2="1413.56" gradientTransform="translate(-1154.56 1000.61) rotate(90) scale(1 -1)" xlink:href="#linear-gradient-2"/>
    <mask id="mask-6" x="262.28" y="61.21" width="12.9" height="17.31" maskUnits="userSpaceOnUse">
      <g id="id4">
        <g class="cls-46">
          <rect class="cls-3" x="260.92" y="66.1" width="15.63" height="7.52" transform="translate(101.84 291.77) rotate(-67.63)"/>
        </g>
      </g>
    </mask>
    <filter id="luminosity-noclip-7" x="263.58" y="60.49" width="11.35" height="10.54" color-interpolation-filters="sRGB" filterUnits="userSpaceOnUse">
      <feFlood flood-color="#fff" result="bg"/>
      <feBlend in="SourceGraphic" in2="bg"/>
    </filter>
    <filter id="luminosity-noclip-8" x="263.58" y="-9079.61" width="11.35" height="32766" color-interpolation-filters="sRGB" filterUnits="userSpaceOnUse">
      <feFlood flood-color="#fff" result="bg"/>
      <feBlend in="SourceGraphic" in2="bg"/>
    </filter>
    <mask id="mask-11" x="263.58" y="-9079.61" width="11.35" height="32766" maskUnits="userSpaceOnUse"/>
    <linearGradient id="linear-gradient-7" x1="-938.25" y1="1417.13" x2="-929.02" y2="1431.73" gradientTransform="translate(-1158.03 997.59) rotate(90) scale(1 -1)" xlink:href="#linear-gradient"/>
    <mask id="mask-10" x="263.58" y="60.49" width="11.35" height="10.54" maskUnits="userSpaceOnUse">
      <g class="cls-22">
        <g class="cls-49">
          <rect class="cls-17" x="265.43" y="61.2" width="7.64" height="9.12" transform="translate(105.96 289.71) rotate(-67.63)"/>
        </g>
      </g>
    </mask>
    <linearGradient id="linear-gradient-8" x1="-938.25" y1="1417.13" x2="-929.02" y2="1431.73" gradientTransform="translate(-1158.03 997.59) rotate(90) scale(1 -1)" xlink:href="#linear-gradient-2"/>
    <mask id="mask-9" x="263.58" y="60.49" width="11.35" height="10.54" maskUnits="userSpaceOnUse">
      <g id="id6">
        <g class="cls-21">
          <rect class="cls-14" x="265.43" y="61.2" width="7.64" height="9.12" transform="translate(105.96 289.71) rotate(-67.63)"/>
        </g>
      </g>
    </mask>
    <filter id="luminosity-noclip-9" x="571.5" y="150.82" width="7.07" height="7.59" color-interpolation-filters="sRGB" filterUnits="userSpaceOnUse">
      <feFlood flood-color="#fff" result="bg"/>
      <feBlend in="SourceGraphic" in2="bg"/>
    </filter>
    <filter id="luminosity-noclip-10" x="571.5" y="-9079.61" width="7.07" height="32766" color-interpolation-filters="sRGB" filterUnits="userSpaceOnUse">
      <feFlood flood-color="#fff" result="bg"/>
      <feBlend in="SourceGraphic" in2="bg"/>
    </filter>
    <mask id="mask-14" x="571.5" y="-9079.61" width="7.07" height="32766" maskUnits="userSpaceOnUse"/>
    <linearGradient id="linear-gradient-9" x1="602.58" y1="1967.29" x2="609.79" y2="1958.29" gradientTransform="translate(1180.33 2118.51) rotate(-180)" xlink:href="#linear-gradient"/>
    <mask id="mask-13" x="571.5" y="150.82" width="7.07" height="7.59" maskUnits="userSpaceOnUse">
      <g class="cls-34">
        <g class="cls-47">
          <rect class="cls-8" x="572.46" y="151.57" width="5.14" height="6.1" transform="translate(-15.57 230.51) rotate(-22.37)"/>
        </g>
      </g>
    </mask>
    <linearGradient id="linear-gradient-10" x1="602.58" y1="1967.29" x2="609.79" y2="1958.29" gradientTransform="translate(1180.33 2118.51) rotate(-180)" xlink:href="#linear-gradient-2"/>
    <mask id="mask-12" x="571.5" y="150.82" width="7.07" height="7.59" maskUnits="userSpaceOnUse">
      <g id="id0-2" data-name="id0">
        <g class="cls-27">
          <rect class="cls-16" x="572.46" y="151.57" width="5.14" height="6.1" transform="translate(-15.57 230.51) rotate(-22.37)"/>
        </g>
      </g>
    </mask>
    <filter id="luminosity-noclip-11" x="573.26" y="150.48" width="6.4" height="7.86" color-interpolation-filters="sRGB" filterUnits="userSpaceOnUse">
      <feFlood flood-color="#fff" result="bg"/>
      <feBlend in="SourceGraphic" in2="bg"/>
    </filter>
    <filter id="luminosity-noclip-12" x="573.26" y="-9079.61" width="6.4" height="32766" color-interpolation-filters="sRGB" filterUnits="userSpaceOnUse">
      <feFlood flood-color="#fff" result="bg"/>
      <feBlend in="SourceGraphic" in2="bg"/>
    </filter>
    <mask id="mask-17" x="573.26" y="-9079.61" width="6.4" height="32766" maskUnits="userSpaceOnUse"/>
    <linearGradient id="linear-gradient-11" x1="602.13" y1="1967.59" x2="605.69" y2="1959.45" gradientTransform="translate(1180.36 2117.95) rotate(-180)" xlink:href="#linear-gradient"/>
    <mask id="mask-16" x="573.26" y="150.48" width="6.4" height="7.86" maskUnits="userSpaceOnUse">
      <g class="cls-1">
        <g class="cls-24">
          <rect class="cls-6" x="574.4" y="151.01" width="4.12" height="6.8" transform="translate(-15.38 231.04) rotate(-22.37)"/>
        </g>
      </g>
    </mask>
    <linearGradient id="linear-gradient-12" x1="602.13" y1="1967.59" x2="605.69" y2="1959.45" gradientTransform="translate(1180.36 2117.95) rotate(-180)" xlink:href="#linear-gradient-2"/>
    <mask id="mask-15" x="573.26" y="150.48" width="6.4" height="7.86" maskUnits="userSpaceOnUse">
      <g id="id2-2" data-name="id2">
        <g class="cls-40">
          <rect class="cls-2" x="574.4" y="151.01" width="4.12" height="6.8" transform="translate(-15.38 231.04) rotate(-22.37)"/>
        </g>
      </g>
    </mask>
    <filter id="luminosity-noclip-13" x="574.86" y="150.09" width="5.85" height="7.86" color-interpolation-filters="sRGB" filterUnits="userSpaceOnUse">
      <feFlood flood-color="#fff" result="bg"/>
      <feBlend in="SourceGraphic" in2="bg"/>
    </filter>
    <filter id="luminosity-noclip-14" x="574.86" y="-9079.61" width="5.85" height="32766" color-interpolation-filters="sRGB" filterUnits="userSpaceOnUse">
      <feFlood flood-color="#fff" result="bg"/>
      <feBlend in="SourceGraphic" in2="bg"/>
    </filter>
    <mask id="mask-20" x="574.86" y="-9079.61" width="5.85" height="32766" maskUnits="userSpaceOnUse"/>
    <linearGradient id="linear-gradient-13" x1="602.22" y1="1967.73" x2="602.83" y2="1958.98" gradientTransform="translate(1180.31 2117.42) rotate(-180)" xlink:href="#linear-gradient"/>
    <mask id="mask-19" x="574.86" y="150.09" width="5.85" height="7.86" maskUnits="userSpaceOnUse">
      <g class="cls-23">
        <g class="cls-33">
          <rect class="cls-19" x="576.08" y="150.47" width="3.41" height="7.09" transform="translate(-15.13 231.52) rotate(-22.37)"/>
        </g>
      </g>
    </mask>
    <linearGradient id="linear-gradient-14" x1="602.22" y1="1967.73" x2="602.83" y2="1958.98" gradientTransform="translate(1180.31 2117.42) rotate(-180)" xlink:href="#linear-gradient-2"/>
    <mask id="mask-18" x="574.86" y="150.09" width="5.85" height="7.86" maskUnits="userSpaceOnUse">
      <g id="id4-2" data-name="id4">
        <g class="cls-37">
          <rect class="cls-11" x="576.08" y="150.47" width="3.41" height="7.09" transform="translate(-15.13 231.52) rotate(-22.37)"/>
        </g>
      </g>
    </mask>
    <filter id="luminosity-noclip-15" x="574.98" y="149.77" width="5.15" height="4.78" color-interpolation-filters="sRGB" filterUnits="userSpaceOnUse">
      <feFlood flood-color="#fff" result="bg"/>
      <feBlend in="SourceGraphic" in2="bg"/>
    </filter>
    <filter id="luminosity-noclip-16" x="574.98" y="-9079.61" width="5.15" height="32766" color-interpolation-filters="sRGB" filterUnits="userSpaceOnUse">
      <feFlood flood-color="#fff" result="bg"/>
      <feBlend in="SourceGraphic" in2="bg"/>
    </filter>
    <mask id="mask-23" x="574.98" y="-9079.61" width="5.15" height="32766" maskUnits="userSpaceOnUse"/>
    <linearGradient id="linear-gradient-15" x1="599.12" y1="1960.6" x2="603.31" y2="1967.23" gradientTransform="translate(1179.58 2117.37) rotate(-180)" xlink:href="#linear-gradient"/>
    <mask id="mask-22" x="574.98" y="149.77" width="5.15" height="4.78" maskUnits="userSpaceOnUse">
      <g class="cls-29">
        <g class="cls-20">
          <rect class="cls-4" x="575.48" y="150.42" width="4.14" height="3.47" transform="translate(-14.44 231.29) rotate(-22.37)"/>
        </g>
      </g>
    </mask>
    <linearGradient id="linear-gradient-16" x1="599.12" y1="1960.6" x2="603.31" y2="1967.23" gradientTransform="translate(1179.58 2117.37) rotate(-180)" xlink:href="#linear-gradient-2"/>
    <mask id="mask-21" x="574.98" y="149.77" width="5.15" height="4.78" maskUnits="userSpaceOnUse">
      <g id="id6-2" data-name="id6">
        <g class="cls-45">
          <rect class="cls-9" x="575.48" y="150.42" width="4.14" height="3.47" transform="translate(-14.44 231.29) rotate(-22.37)"/>
        </g>
      </g>
    </mask>
  </defs>
  <g>
    <path class="cls-10" d="m256,167.14c1.08,1.45,4.24.22,5.08-1.54.19-.37.55-.48.59-.05-.28.22-.45,2.91-1.13,2.92.14-.02-4.35-.31-7.18-.03-.4.02-.51-.45.05-.48.54-.1.75-.56.75-1.09v-6.81c.17-.89-.82-.96-1.13-1.35.47-.52,2.89.12,3.76-.22,1.11.34-1.13.54-.8,1.57,0,0,0,7.08,0,7.08Z"/>
    <path class="cls-10" d="m271.71,158.36c7.55-.45,7.54,10.7,0,10.24-7.52.47-7.53-10.69,0-10.24Zm0,9.48c4.69.26,4.68-9.04,0-8.79-4.66-.26-4.67,9.05,0,8.79Z"/>
    <path class="cls-10" d="m283.84,160.26c0,2.1,5.7,2.04,5.7,5-.05,4-4.87,3.37-7.18,2.66-.56-.07-.12-1.1-.18-1.57-.18-.88.06-1.92.51-.84.45,2.41,4.9,3.33,5.16.75,0-2.61-5.87-2.25-5.87-5.11.25-3.77,4.58-2.44,6.39-2.62.45-.05.61,3.11.22,2.79-.2,0-.3-.25-.41-.46-.38-1.62-4-2.68-4.35-.6Z"/>
    <path class="cls-10" d="m309.67,163.8h-5.63c.2.83-.58,3.95.73,4.15,1.76.78-3.05.24-3.38.48-1.11-.34,1.15-.54.81-1.57,0,0,0-6.81,0-6.81.17-.89-.82-.96-1.13-1.35.48-.52,2.88.12,3.76-.22.43.02.44.45-.07.48-1.31.2-.54,3.33-.73,4.16h5.63c-.2-.83.58-3.98-.75-4.16-.51-.04-.5-.47-.07-.48.89.34,3.27-.29,3.76.22-.31.4-1.29.46-1.11,1.35,0,0,0,6.81,0,6.81-.34,1.03,1.91,1.23.8,1.57-.33-.25-5.14.3-3.38-.48,1.33-.18.55-3.32.75-4.15Z"/>
    <path class="cls-10" d="m322.65,158.36c7.55-.45,7.54,10.7,0,10.24-7.52.47-7.53-10.69,0-10.24Zm0,9.48c4.69.26,4.68-9.04,0-8.79-4.66-.26-4.67,9.05,0,8.79Z"/>
    <path class="cls-10" d="m335.77,164.89c.05,1.42-.41,2.72,1.11,3.33-.22.53-1.48,0-2.03.09-.55-.1-1.82.43-2.04-.09.31-.4,1.3-.45,1.13-1.35,0,0,0-6.81,0-6.81.17-.89-.82-.96-1.13-1.35,1.3-.45,4.23.06,5.55-.22,4.27-.29,4.1,5.44.24,5.76,1.43.5,2.28,3.58,3.99,3.63.63.27.05.61-.94.58-2.94.97-4.1-5.94-5.88-3.56Zm0-1.61c.64,1.29,4.28-.1,3.89-2.15.56-1.83-3.45-2.79-3.89-1.36,0,0,0,3.51,0,3.51Z"/>
    <path class="cls-10" d="m356.04,160.23c.12-.92-.84-1.17-1.28-1.53.74-.51,2.21.12,3.18-.21.41,0,.48.38-.07.46-2.33.86.14,8.78-1.45,9.63-.85-.07-6.88-7.67-7.28-7.88,0,0,.01,4.85.1,5.98-.12.92.84,1.17,1.28,1.53-.74.51-2.21-.12-3.18.21-.41,0-.48-.38.07-.46.65-.14.85-.68.9-1.28.09-1.14.04-6.25.04-6.77s-.2-.84-.73-.93c-1.5-.78,2.03-.24,2.27-.42,1.05.61,5.85,7.01,6.26,7.16,0,0-.01-4.35-.1-5.49Z"/>
    <path class="cls-10" d="m368.19,158.36c7.55-.45,7.54,10.7,0,10.24-7.52.47-7.53-10.69,0-10.24Zm0,9.48c4.69.26,4.68-9.04,0-8.79-4.66-.26-4.67,9.05,0,8.79Z"/>
    <path class="cls-10" d="m380.32,160.26c0,2.1,5.7,2.04,5.7,5-.05,4-4.87,3.37-7.18,2.66-.56-.07-.12-1.1-.18-1.57-.18-.88.06-1.92.51-.84.45,2.41,4.9,3.33,5.16.75,0-2.61-5.87-2.25-5.87-5.11.25-3.77,4.58-2.44,6.39-2.62.45-.05.61,3.11.22,2.79-.2,0-.3-.25-.41-.46-.38-1.62-4-2.68-4.35-.6Z"/>
    <path class="cls-10" d="m396.91,165.43c-.25.02-.24-.92,0-.9,0,0,3.26,0,3.26,0,.28-.03.12.59.16.73.15.4-3.32.07-3.42.17Z"/>
    <path class="cls-10" d="m414.73,167.14c1.08,1.45,4.24.22,5.08-1.54.19-.37.55-.48.59-.05-.28.22-.45,2.91-1.13,2.92.14-.02-4.35-.31-7.18-.03-.4.02-.51-.45.05-.48.54-.1.75-.56.75-1.09v-6.81c.17-.89-.82-.96-1.13-1.35.47-.52,2.89.12,3.76-.22,1.11.34-1.13.54-.8,1.57,0,0,0,7.08,0,7.08Z"/>
    <path class="cls-10" d="m430.49,158.82c.74,1.01,2.72,8.22,4.98,9.39-.42.57-1.36.03-2.64.17-.53-.08-1.22.27-1.39-.16,1.12-.6.54-.84-.04-2.58h-4.11c-.49,1.52-.84,2,.28,2.58-.17.43-.86.07-1.39.16-1.2-.13-1.64.4-2.06-.17,1.97.38,4.86-11.85,6.38-9.39Zm-2.97,6.15h3.61c-2.23-5.82-1.79-4.53-3.61,0Z"/>
    <path class="cls-10" d="m449.83,165.09c.02,1.41-.35,2.53,1.11,3.13-.22.53-1.48,0-2.03.09-.45.06-2.98.32-1.66-.35,1.51-.08.44-7.05.75-7.9.33-1.04-1.92-1.23-.81-1.57,2.95.59,8.24-1.48,8.47,2.84.03,3.86-4.47,2.54-5.83,3.76Zm0-1.61c0,.35.09.43.43.43,1.72.12,3.43-.45,3.46-2.61.56-2.02-3.36-2.98-3.89-1.53,0,0,0,3.71,0,3.71Z"/>
    <path class="cls-10" d="m463.15,167.14c1.08,1.45,4.24.22,5.08-1.54.19-.37.55-.48.59-.05-.28.22-.45,2.91-1.13,2.92.14-.02-4.35-.31-7.18-.03-.4.02-.51-.45.05-.48.54-.1.75-.56.75-1.09v-6.81c.17-.89-.82-.96-1.13-1.35.47-.52,2.89.12,3.76-.22,1.11.34-1.13.54-.8,1.57,0,0,0,7.08,0,7.08Z"/>
    <path class="cls-10" d="m478.92,158.82c.74,1.01,2.72,8.22,4.98,9.39-.42.57-1.36.03-2.64.17-.53-.08-1.22.27-1.39-.16,1.12-.6.54-.84-.04-2.58h-4.11c-.49,1.52-.84,2,.28,2.58-.17.43-.86.07-1.39.16-1.2-.13-1.64.4-2.06-.17,1.97.38,4.86-11.85,6.38-9.39Zm-2.97,6.15h3.61c-2.23-5.82-1.79-4.53-3.61,0Z"/>
    <path class="cls-10" d="m490.14,159.81c-.35-1.38-2.31-.08-2.89,1.14-.1.35-.53.56-.59.1.25-.24,0-2.53.8-2.59,1.2.16,6,.16,7.2,0,.33,0,.47.18.47.54-.1.86.68,2.09.1,2.32-.69-.9-2.72-3.23-3.26-1.51.3.87-.76,8.04.73,8.15,1.32.68-1.2.4-1.65.35-.45.06-2.98.32-1.66-.35,1.52-.07.44-7.3.75-8.15Z"/>
    <path class="cls-10" d="m504.43,158.82c.74,1.01,2.72,8.22,4.98,9.39-.42.57-1.36.03-2.64.17-.53-.08-1.22.27-1.39-.16,1.12-.6.54-.84-.04-2.58h-4.11c-.49,1.52-.84,2,.28,2.58-.17.43-.86.07-1.39.16-1.2-.13-1.64.4-2.06-.17,1.97.38,4.86-11.85,6.38-9.39Zm-2.97,6.15h3.61c-2.23-5.82-1.79-4.53-3.61,0Z"/>
  </g>
  <path class="cls-10" d="m385.34,89.57c-5.01-1.8-2.55-12.48-3.1-16.3.9-15.46-21.06-16.22-27.94-7.57l7,4.82c1.12-11.85,10.93-12.65,10.9.57,0,0,0,5.51,0,5.51-5.17-9.22-20.26-5.19-20.54,5.37-2.95,8.8-13.73,8.1-21.17,7.86v-33.74c-.04-2.47,1.81-4.53,4.13-5.28v-1.21h-15.49c-19.24-1-17.47,26.2-.34,25.13l.52-11.07c-4.29,4.91-11.08,3.07-11.02-3.67-.94-7.49,11.13-13.51,12.16-4.48,0,0,0,29.09,0,29.09.03,2.45-1.77,4.61-4.13,5.22v1.21h35.17l1.09-6.13c1.83,8.15,16.09,10.1,19.63,2.25v3.84h13.6v-1.21l-.46-.23Zm-18.3-.75c-6.64.31-6.32-14.56.29-13.94,6.81-.24,6.13,14.19-.29,13.94Z"/>
  <g>
    <path class="cls-10" d="m216.66,164.2c-28.09-4.14-23.93-20.83-70.38-17.37v-1.71c3.22-1.04,5.89-3.86,5.84-7.39,0,0,0-40.35,0-40.35.02-3.56-2.54-6.59-5.84-7.47v-1.71h49.76l2.52,14.29h-1.62c-4.02-13.8-19.05-13.01-30.61-12.58v26.79c6.5.71,14.08-.92,15.51-8.36h1.7v18.43h-1.7c-1.34-7.42-9-9.18-15.51-8.44v26.63c30.06-.82,44.61,16.63,64.23,5.66,1.22,9.82-5.62,13.58-13.9,13.58Z"/>
    <path class="cls-10" d="m200.09,113.32c.2-13.96,28.52-13.74,34.83-3.25l-9.82,6.82c-.4-10.12-9.74-18.45-12.67-8.85,0,8.12,23.38,14.78,23.38,27.12-.2,15.5-29.41,15.17-36.53,4.71l9.9-6.9c.43,12.33,11.99,18.3,14.21,6.82,0-9.34-23.3-14.69-23.3-26.47Z"/>
    <path class="cls-10" d="m278.65,134.51c-7.55,21.76-41.99,14.4-40.35-9.58-1.48-21.66,27.2-29.98,39.54-14.86l-9.9,6.82c-2.72-20.9-15.94-13.53-15.42,4.95-.38,18.08,14.81,26.14,25,12.01l1.14.65Z"/>
    <path class="cls-10" d="m303.92,102.36c30.02-1.12,29.96,46.31,0,45.22-29.86,1.11-29.92-46.36,0-45.22Zm0,43.51c10.96,1.64,10.96-43.48,0-41.89-11-1.19-10.99,43.13,0,41.89Z"/>
    <path class="cls-10" d="m381.08,144.17v1.71h-24.27v-1.71c2.91-1.31,5.06-4.18,5.03-7.39-1.19-5.84,3.91-29.46-5.93-29.39-4.63,0-8.77,6.01-8.77,12.99.78,5.94-2.91,21.18,5.03,23.79v1.71h-24.27v-1.71c2.91-1.31,5.06-4.18,5.03-7.39,0,0,0-23.62,0-23.62.03-3.2-2.12-6.16-5.03-7.47v-1.7h19.24v8.44c4.53-12.84,29.7-14.1,28.9,1.46,0,0,0,22.89,0,22.89-.03,3.2,2.12,6.08,5.03,7.39Z"/>
    <path class="cls-10" d="m431.23,144.17v1.71h-19.24v-9.5c-7.45,20.89-29.91,9.94-28.49-11.85-1.5-21.58,21.32-31.3,28.49-11.04-.82-6.02,2.99-21.93-5.03-24.6v-1.62h19.24v49.52c-.01,3.2,2.12,6.17,5.03,7.39Zm-26.38-37.02c-9.15-.14-9.1,35.83,0,35.64,9.1.19,9.15-35.78,0-35.64Z"/>
    <path class="cls-10" d="m459.33,144.17v1.71h-24.27v-1.71c2.91-1.31,5.06-4.18,5.03-7.39,0,0,0-23.62,0-23.62.03-3.18-2.12-6.1-5.03-7.47v-1.7h19.24v32.8c-.03,3.2,2.12,6.08,5.03,7.39Zm-12.26-57.72c11.35-.46,11.27,14.19,0,13.72-11.06.47-11.14-14.18,0-13.72Z"/>
    <path class="cls-10" d="m510.47,144.17v1.71h-19.24v-9.5c-7.45,20.89-29.91,9.94-28.49-11.85-1.5-21.58,21.32-31.3,28.49-11.04-.82-6.02,2.99-21.93-5.03-24.6v-1.62h19.24v49.52c-.01,3.2,2.12,6.17,5.03,7.39Zm-26.38-37.02c-9.16-.14-9.1,35.83,0,35.64,9.1.19,9.15-35.78,0-35.64Z"/>
    <path class="cls-10" d="m579.02,149.51s-5.66-.74-9.41-.91c-.32,1.18-2.42,1.27-2.84.12,8.73,17.61-14.46,23.08-13.58,1.07,0,0,0-29.23,0-29.23,1.27-21.88-29.8-22.95-39.54-10.72l9.9,6.82c1.59-16.76,15.46-17.89,15.42.81,0,0,0,7.79,0,7.79-6.05-12.39-29.56-7.8-28.49,6.98-1.24,14.74,22.14,20.96,28.49,7.96v5.44h12.5c-2.88,32.67,32.71,27.1,27.54,3.86Zm-47.35-6.95c-9.39.44-8.95-20.6.41-19.73,9.63-.34,8.68,20.08-.41,19.73Z"/>
  </g>
  <g>
    <path class="cls-10" d="m275,52.34l-7.26-4.03s.4,3.42,2.29,5.46c.3-.35,2,.78,2.33.43.28-.3,2.34-1.55,2.65-1.85h0Z"/>
    <path class="cls-10" d="m303.43,53.53h-.03s.03,0,.03,0h0s0,0,0,0Zm-1.08.25c-4.73.62-8.09,8.68-12.29,10.64-7.12,2.58-13.16-2.1-15.28-.4-.51-.17-6.09-2.37-10.55,2.26.45-4.19,3.75-13.56,10.52-15.61,0,0,6.63,3.59,11.42,3.17,3.56-1.83,11.05.16,16.18-.06Z"/>
    <path class="cls-10" d="m315.82,56.93c-5.16-6.57-22.74-10.91-27.72-8.3-5.68-.64-5.47,1.67-6.14,2.79-.27.44.77,1.51,4.21,2.43,0,0,8.96,1.48,16.18-.06,5.61-2.05,13.78,3.08,13.47,3.14h0Z"/>
    <path class="cls-10" d="m267.73,48.3c-4.48-3.79-4.89-10.13-4.89-10.13-.97-.89-1.77-1.8-2.43-2.71,7.6.84,12.83,5.45,19.27,7.67,0,0,3.87,2.87,6.62,5.07.6,2.74-.38,5.17-2.21,6.82-9.48-2.11-11.91-2.27-16.35-6.72Z"/>
    <path class="cls-10" d="m262.84,38.17c-6.72-6.19-5.35-13.24-5.35-13.24-.54-1.34-.84-2.61-.98-3.77,8.18,6.28,20.24,8.52,26.09,20.42-13.18,8.03-12.43,1.3-19.76-3.41Z"/>
    <path class="cls-10" d="m257.49,24.94c-2.27-5.65-.3-10.11-.3-10.11,7.02,4.87,13.35,11.51,18.16,17.26-1.38,2.37-4.21,5.12-7.43,1.54-4.66-5.18-10.42-8.69-10.42-8.69h0Z"/>
    <path class="cls-10" d="m274.77,64.02c-1.02,11.34,7.27,16.73,7.27,16.73,0,0-7.8-1.01-13.13-7.67-.13-6.43,5.38-8.81,5.86-9.06Z"/>
    <g class="cls-44">
      <path class="cls-10" d="m277.42,79.39c-2.61-1.09-5.86-3-8.5-6.31-.13-6.43,5.38-8.81,5.86-9.06-1.82,7.21.69,12.54,2.64,15.37Z"/>
    </g>
    <path class="cls-10" d="m274.77,64.02c-3.92,10.69,2.69,18.04,2.69,18.04,0,0-7.27-3-10.7-10.81,1.54-6.25,7.48-7.12,8-7.24h0Z"/>
    <g class="cls-28">
      <path class="cls-10" d="m272.94,79.23c-2.14-1.73-4.58-4.33-6.17-7.97,1.54-6.25,7.48-7.12,8-7.24-3.65,6.24-2.88,11.9-1.83,15.2Z"/>
    </g>
    <path class="cls-10" d="m274.77,64.02c-6.56,9.31-2.07,18.12-2.07,18.12,0,0-6.25-4.78-7.53-13.21,3.11-5.63,9.07-4.95,9.6-4.92Z"/>
    <g class="cls-39">
      <path class="cls-10" d="m269.17,78.37c-1.65-2.24-3.39-5.42-4-9.43,3.11-5.63,9.07-4.95,9.6-4.92-5.15,5.16-5.8,10.89-5.61,14.35Z"/>
    </g>
    <path class="cls-10" d="m287.34,45.17c15.29-7.25,14.49,3.14,19.63,5.26,5.14,2.12,8.85,6.5,8.85,6.5-15.55-12.51-26.42-5.39-31.39-10.33.63-.3,1.5-.72,2.91-1.42h0Z"/>
    <path class="cls-10" d="m297.9,56.33c-14.96,21.29-21.81-.02-33.68,9.95,6.01-15.78,20.46,3.37,33.68-9.96h0s0,0,0,0Z"/>
    <path class="cls-10" d="m274.77,64.02c-8.74,7.29-6.69,16.97-6.69,16.97,0,0-4.8-6.24-3.86-14.71,4.46-4.64,10.04-2.43,10.55-2.26Z"/>
    <g class="cls-30">
      <path class="cls-10" d="m274.77,64.02c-.27.22-.52.45-.77.67-3.61-1.24-7.52,0-9.89,2.96.02-.45.05-.91.1-1.37,4.46-4.64,10.04-2.43,10.55-2.26Z"/>
    </g>
    <path class="cls-5" d="m288.26,44.75c5.7,17.05-21.18,15.43-19.15.16-2.09-3.16-2.77-7.37-2.2-11.08-2.32-3.75-3.55-8.72-2.33-13.08,3.32,2.88,8.77,7.1,11.91,8.52l7.28,15.02,2.45,1.45c.55-.17,1.58-.63,2.04-.98h0Z"/>
    <path class="cls-10" d="m271.88,51.77c-2.45-2.31-1.78-7.1-1.78-7.1-1.01-1.42-1.61-2.98-1.95-4.45l19.76,6.86c.45,2.2.08,4.08-.81,5.56-5.05,1.52-11.66,5.05-15.21-.86h0Z"/>
    <path class="cls-10" d="m287.97,50.32c-1.24,6.67-11.19,8.51-16.09,1.45,0,0,10.78,3.57,16.09-1.45Z"/>
    <path class="cls-10" d="m270.1,44.67c-3.38-4.8-2.19-11.04-2.19-11.04l16.08,2.74c3.22,8.94,4.14,8.2,3.98,13.95-6.2-4.49-17.87-5.66-17.87-5.66Z"/>
    <path class="cls-10" d="m267.91,33.63c-4.95-7.68-1.85-14.15-1.85-14.15l10.89,2.58c4.65,8.09,7.85,16.06,9.37,20.2-8.01-6.3-18.41-8.63-18.41-8.63h0Z"/>
    <path class="cls-10" d="m266.06,19.47c-.77-6.04,2.25-9.86,2.25-9.86,6.33,7.36,11.23,16.7,14.47,23.96-6.21-8.07-16.72-14.1-16.72-14.1h0Z"/>
  </g>
  <g>
    <path class="cls-10" d="m574.94,146.07l3.3-1.83s-.18,1.55-1.04,2.48c-.14-.16-.91.35-1.06.19-.13-.14-1.06-.7-1.2-.84h0Z"/>
    <path class="cls-10" d="m562.04,146.61h0s.01,0,.01,0h-.01s0,0,0,0Zm.49.12c2.32.1,5.74-.8,7.34.03,2.17.19,5.18-1.44,5.18-1.44,3.08.94,4.57,5.17,4.77,7.08-2.02-2.1-4.55-1.1-4.79-1.03-.96-.77-3.7,1.35-6.93.18-1.91-.89-3.43-4.54-5.58-4.83h0Z"/>
    <path class="cls-10" d="m556.42,148.15c2.34-2.98,10.32-4.95,12.58-3.76,3.16-.31,3.81,1.86.88,2.37.1.02-4.89.71-7.83-.14-2.87-.53-5.62,1.54-5.62,1.54h0Z"/>
    <path class="cls-10" d="m578.24,144.24c2.03-1.72,2.22-4.6,2.22-4.6.44-.41.8-.82,1.1-1.23-5.06,1.24-7.41,2.57-11.75,5.78-.27,1.24.17,2.34,1,3.1,4.3-.96,5.4-1.03,7.42-3.05Z"/>
    <path class="cls-10" d="m580.46,139.64c3.05-2.81,2.43-6.01,2.43-6.01.24-.61.38-1.18.44-1.71-3.04,2.24-10.14,4.86-11.84,9.26,5.53,3.62,6,.47,8.97-1.55Z"/>
    <path class="cls-10" d="m582.89,133.63c1.03-2.56.14-4.59.14-4.59-3.18,2.21-6.06,5.22-8.24,7.83.63,1.08,1.91,2.32,3.37.7,2.11-2.35,4.73-3.94,4.73-3.94h0Z"/>
    <path class="cls-10" d="m575.04,151.37c.47,5.15-3.3,7.59-3.3,7.59,0,0,3.54-.46,5.96-3.48.06-2.92-2.44-4-2.66-4.11Z"/>
    <g class="cls-31">
      <path class="cls-10" d="m573.84,158.34c1.18-.49,2.66-1.36,3.86-2.86.06-2.92-2.44-4-2.66-4.11.83,3.27-.31,5.69-1.2,6.97Z"/>
    </g>
    <path class="cls-10" d="m575.04,151.37c1.78,4.85-1.22,8.19-1.22,8.19,0,0,3.3-1.36,4.85-4.9-.7-2.83-3.39-3.23-3.63-3.28h0Z"/>
    <g class="cls-38">
      <path class="cls-10" d="m575.88,158.27c.97-.79,2.08-1.96,2.8-3.62-.7-2.83-3.39-3.23-3.63-3.28,1.65,2.83,1.31,5.4.83,6.9Z"/>
    </g>
    <path class="cls-10" d="m575.04,151.37c2.98,4.22.94,8.22.94,8.22,0,0,2.84-2.17,3.42-5.99-1.41-2.56-4.11-2.24-4.36-2.23h0Z"/>
    <g class="cls-41">
      <path class="cls-10" d="m577.59,157.88c.75-1.01,1.54-2.46,1.81-4.28-1.41-2.56-4.11-2.24-4.36-2.23,2.34,2.34,2.63,4.94,2.54,6.51Z"/>
    </g>
    <path class="cls-10" d="m569.34,142.82c-6.94-3.29-6.57,1.43-8.91,2.39-2.33.96-4.01,2.95-4.01,2.95,7.05-5.67,11.99-2.44,14.24-4.69-.28-.14-.68-.33-1.32-.65h0Z"/>
    <path class="cls-10" d="m564.55,147.88c6.53,9.54,9.68.1,15.28,4.52-2.28-6.91-9.87,1.3-15.28-4.52h0s0,0,0,0Z"/>
    <path class="cls-10" d="m575.04,151.37c3.97,3.31,3.04,7.7,3.04,7.7,0,0,2.18-2.83,1.75-6.67-2.02-2.1-4.55-1.1-4.79-1.03Z"/>
    <g class="cls-48">
      <path class="cls-10" d="m575.04,151.37c.12.1.24.2.35.31,1.64-.56,3.41,0,4.49,1.34,0-.2-.02-.41-.05-.62-2.02-2.1-4.55-1.1-4.79-1.03h0Z"/>
    </g>
    <path class="cls-5" d="m568.93,142.62c-2.59,7.74,9.61,7,8.69.07.95-1.44,1.26-3.34,1-5.03,1.05-1.7,1.61-3.96,1.06-5.93-1.51,1.31-3.99,3.22-5.4,3.86l-3.31,6.81-1.11.66c-.25-.08-.72-.29-.92-.44h0Z"/>
    <path class="cls-10" d="m576.36,145.81c1.11-1.05.81-3.22.81-3.22.46-.65.73-1.35.89-2.02l-8.97,3.11c-.2,1-.04,1.85.37,2.52,2.29.69,5.29,2.29,6.9-.39h0Z"/>
    <path class="cls-10" d="m569.06,145.15c.56,3.03,5.08,3.86,7.3.66,0,0-4.89,1.62-7.3-.66Z"/>
    <path class="cls-10" d="m577.16,142.59c1.54-2.18.99-5.01.99-5.01l-7.3,1.24c-1.46,4.06-1.88,3.72-1.8,6.33,2.81-2.04,8.11-2.57,8.11-2.57Z"/>
    <path class="cls-10" d="m578.16,137.58c2.24-3.49.84-6.42.84-6.42l-4.94,1.17c-2.11,3.67-3.56,7.29-4.25,9.17,3.63-2.86,8.35-3.92,8.35-3.92h0Z"/>
    <path class="cls-10" d="m579,131.15c.35-2.74-1.02-4.47-1.02-4.47-2.87,3.34-5.09,7.58-6.56,10.87,2.82-3.66,7.59-6.4,7.59-6.4Z"/>
  </g>
</svg>