<?xml version="1.0" encoding="UTF-8"?><svg id="Capa_1" xmlns="http://www.w3.org/2000/svg" viewBox="0 0 965.7 351.1"><defs><style>.cls-1{fill:#003A70;stroke-width:0px;}</style></defs><path class="cls-1" d="m498.24,159.26c0,.4-.33.73-.73.73h-25.87c-.4,0-.73-.33-.73-.73s.33-.73.73-.73h2.16l10.32-2.06,7.22,2.06h6.17c.4,0,.73.33.73.73"/><polyline class="cls-1" points="484.69 157.47 484.67 157.47 484.69 157.47 484.7 157.47 484.69 157.47"/><path class="cls-1" d="m485.93,143.36c-.06,1.41-.06,2.82,0,4.22.05-1.41.05-2.82,0-4.22"/><path class="cls-1" d="m560.85,88.54c-1.26-1.39-3.4-1.49-4.79-.24-.54.49-.88,1.11-1.03,1.77-14.3-3.71-29.82-1.83-43.01,5.78-3.21-14.89-12.23-27.65-24.57-35.76.39-.56.62-1.23.62-1.95,0-1.87-1.52-3.39-3.39-3.39s-3.39,1.52-3.39,3.39c0,.72.23,1.4.62,1.95-12.34,8.11-21.36,20.87-24.57,35.76-13.19-7.61-28.71-9.48-43.01-5.78-.15-.66-.5-1.28-1.03-1.77-1.39-1.25-3.53-1.15-4.79.24-1.25,1.39-1.15,3.53.24,4.79.54.49,1.19.77,1.86.85-2.85,18.42,3.33,37.87,18.13,51.26,14.91,13.49,35.07,17.67,53.21,12.83.91-.24,1.8-.5,2.71-.8,0,0,0,0,.01,0s0,0,.01,0c.91.31,1.8.56,2.71.8,18.14,4.84,38.29.66,53.21-12.83,14.8-13.39,20.99-32.85,18.13-51.26.67-.09,1.32-.37,1.86-.85,1.39-1.26,1.49-3.4.24-4.79m-50.04,19.38c0,18.95-9.69,35.68-24.35,45.52-.28-1.94-.46-3.9-.54-5.86-.05-1.41-.05-2.82,0-4.23.55-14.22,6.58-28.23,17.95-38.52,2.02-1.83,4.14-3.47,6.34-4.94.39,2.62.59,5.3.59,8.03m-26.49-46.42c.12.01.24.02.37.02s.24,0,.37-.02c12.55,7.87,21.72,20.7,24.71,35.72-2.63,1.69-5.16,3.61-7.55,5.77-9.22,8.34-15.09,19.03-17.53,30.35-2.43-11.33-8.31-22.01-17.53-30.35-2.39-2.16-4.92-4.09-7.55-5.78,3-15.02,12.16-27.84,24.72-35.72m-25.18,38.39c2.2,1.47,4.32,3.12,6.35,4.95,11.36,10.28,17.4,24.28,17.95,38.5.06,1.42.06,2.84,0,4.26-.07,1.95-.25,3.9-.53,5.84-14.66-9.84-24.35-26.56-24.35-45.52,0-2.73.2-5.41.59-8.03m-28.71,43.7c-14.5-13.11-20.32-32.29-17.14-50.25.09-.08.18-.17.26-.26.08-.09.16-.18.23-.28,14.26-4.03,29.92-2.22,43.07,5.64-.52,3.08-.79,6.25-.79,9.48,0,19.94,10.26,37.56,25.79,47.8-17.48,4.83-37,.92-51.43-12.13m108.52,0c-14.42,13.05-33.94,16.96-51.42,12.13,15.53-10.24,25.79-27.86,25.79-47.8,0-3.23-.27-6.39-.79-9.48,13.15-7.86,28.81-9.67,43.07-5.64.07.1.15.2.23.28.08.09.17.18.26.26,3.18,17.96-2.65,37.13-17.14,50.25"/><path class="cls-1" d="m483.44,143.34c-.05,1.42-.05,2.84,0,4.26.06-1.42.06-2.84,0-4.26"/><path class="cls-1" d="m82.85,211.73h24.34v2.46h-2.41c-.73,0-1.43.15-2.07.45-.65.3-1.22.71-1.71,1.23-.49.52-.88,1.13-1.16,1.81-.28.68-.42,1.41-.42,2.18v60.07c2.17.59,4.31,1.3,6.43,2.1,2.12.8,4.28,1.63,6.48,2.46,1.5.59,3.07,1.18,4.7,1.76,1.63.58,3.28,1.1,4.96,1.57,1.68.47,3.35.86,5.01,1.15,1.66.3,3.28.45,4.85.45,2.2,0,4.27-.28,6.19-.84,1.92-.56,3.88-1.35,5.88-2.36l.52-.26.89,1.78-.37.37c-2.69,2.38-5.54,4.28-8.55,5.69-3.01,1.42-6.26,2.12-9.76,2.12-2.94,0-5.76-.47-8.47-1.42-2.71-.94-5.38-2.15-8-3.62-1.64-.87-3.31-1.83-5.01-2.86-1.7-1.03-3.49-1.99-5.38-2.89-1.89-.89-3.93-1.64-6.11-2.26-2.19-.61-4.57-.92-7.16-.92h-1.34c-.44,0-.9.04-1.39.1v-2.36c2.31-.63,4.58-.94,6.82-.94v-58.92c0-.77-.14-1.5-.42-2.18-.28-.68-.67-1.29-1.15-1.81-.49-.53-1.06-.94-1.71-1.23-.65-.3-1.34-.45-2.07-.45h-2.41v-2.46Z"/><path class="cls-1" d="m133.27,281.56c.66,0,1.36-.11,2.1-.32.73-.21,1.45-.55,2.15-1.02.7-.47,1.37-1.08,2.02-1.83.65-.75,1.2-1.67,1.65-2.76l27.49-65.37h1.83l27.33,65.37c.91,2.17,2.11,3.7,3.59,4.59,1.49.89,2.93,1.34,4.33,1.34h1.89v2.52h-24.97v-2.52h1.99c.73,0,1.34-.18,1.81-.55s.82-.82,1.05-1.36c.23-.54.34-1.13.34-1.76s-.1-1.21-.32-1.73l-6.35-16.68h-25.65l-6.61,16.79c-.21.52-.32,1.1-.32,1.73s.11,1.21.34,1.73c.23.53.58.96,1.05,1.31.47.35,1.06.53,1.76.53h2.05v2.52h-22.56v-2.52h1.99Zm24.08-26.6h22.14l-10.81-28.91-11.33,28.91Z"/><path class="cls-1" d="m249.42,252.91c1.08.98,1.98,2.01,2.68,3.1.7,1.08,1.25,2.18,1.65,3.28.4,1.1.68,2.2.84,3.31.16,1.1.24,2.18.24,3.23,0,2.9-.47,5.56-1.42,7.97-.94,2.41-2.28,4.49-4.01,6.22-1.73,1.73-3.83,3.07-6.3,4.01-2.47.94-5.24,1.42-8.32,1.42-1.29,0-2.76-.1-4.41-.31-1.64-.21-3.31-.55-4.98-1.02-1.68-.47-3.29-1.09-4.83-1.86-1.54-.77-2.87-1.71-3.99-2.83l1.36-15.06h2.94c-.11,1.26-.16,2.22-.16,2.89,0,2.1.37,4,1.1,5.69.73,1.7,1.71,3.14,2.94,4.33,1.22,1.19,2.66,2.11,4.3,2.75,1.64.65,3.37.97,5.19.97,1.71,0,3.33-.31,4.85-.94,1.52-.63,2.85-1.5,3.99-2.62,1.14-1.12,2.04-2.47,2.7-4.07.66-1.59,1-3.33,1-5.22s-.31-3.61-.94-5.06c-.63-1.45-1.52-2.72-2.68-3.8l-19.41-18.05c-2.13-1.99-3.65-4.16-4.54-6.51-.89-2.34-1.34-4.53-1.34-6.56,0-2.2.41-4.38,1.23-6.53.82-2.15,2.04-4.07,3.65-5.74,1.61-1.68,3.59-3.03,5.95-4.07,2.36-1.03,5.06-1.55,8.1-1.55,2.31,0,4.58.18,6.82.53,2.24.35,4.55.52,6.92.52v13.96h-3.09c0-1.64-.27-3.1-.81-4.38-.54-1.28-1.29-2.37-2.23-3.28-.94-.91-2.04-1.6-3.28-2.07-1.24-.47-2.58-.71-4.01-.71-1.71,0-3.27.3-4.67.89-1.4.6-2.6,1.39-3.59,2.39-1,1-1.77,2.16-2.31,3.49-.54,1.33-.81,2.71-.81,4.14,0,1.26.25,2.69.76,4.3.51,1.61,1.5,3.1,2.96,4.46l19.94,18.41Z"/><path class="cls-1" d="m289.7,214.2v-2.46h24.97v2.46h-1.99c-.73,0-1.32.18-1.76.53-.44.35-.76.79-.97,1.31-.21.53-.31,1.09-.31,1.71s.09,1.2.26,1.76l20.2,50.58,17.89-42.92c1.71-4.09,3.47-7.67,5.27-10.73,1.8-3.06,3.76-5.61,5.88-7.66,2.12-2.05,4.45-3.58,7-4.59,2.55-1.01,5.44-1.52,8.66-1.52v1.36c-1.78,0-3.45.37-5.01,1.1-1.56.73-3.01,1.73-4.35,2.99-1.35,1.26-2.59,2.73-3.72,4.41-1.14,1.68-2.2,3.45-3.17,5.3-.98,1.85-1.9,3.74-2.75,5.67-.86,1.92-1.65,3.78-2.39,5.56l-23.5,56.4h-1.68l-28.7-65.32c-.45-1.05-1-1.95-1.63-2.7-.63-.75-1.3-1.36-1.99-1.84-.7-.47-1.41-.82-2.12-1.05-.72-.23-1.43-.34-2.13-.34h-1.94Z"/><path class="cls-1" d="m376.84,281.56c.73,0,1.43-.15,2.07-.45.65-.3,1.22-.7,1.71-1.21s.87-1.09,1.16-1.76c.28-.66.42-1.38.42-2.15v-56.24c0-.73-.14-1.44-.42-2.13-.28-.68-.67-1.28-1.16-1.78-.49-.51-1.06-.91-1.71-1.21-.65-.3-1.34-.45-2.07-.45h-2.41v-2.46h24.4v2.46h-2.47c-.7,0-1.37.15-2.02.45-.65.3-1.22.7-1.71,1.21-.49.51-.88,1.1-1.18,1.78-.3.68-.45,1.39-.45,2.13v56.24c0,.77.15,1.49.45,2.15.3.67.69,1.25,1.18,1.76.49.51,1.06.91,1.71,1.21.65.3,1.32.45,2.02.45h2.47v2.52h-24.4v-2.52h2.41Z"/><path class="cls-1" d="m410.79,247.77c0-5.6.89-10.7,2.68-15.32,1.78-4.62,4.33-8.57,7.63-11.86,3.31-3.29,7.28-5.83,11.94-7.63,4.65-1.8,9.84-2.7,15.58-2.7,3.71,0,7.15.38,10.34,1.13,3.18.75,6.14,1.76,8.87,3.02.28.11.53.19.76.26.23.07.43.11.6.11.45,0,.8-.17,1.02-.5.23-.33.31-.9.24-1.71h2.46l2.94,20.36h-3.04c-.74-2.97-1.87-5.59-3.41-7.84-1.54-2.26-3.36-4.15-5.46-5.67-2.1-1.52-4.45-2.67-7.06-3.44-2.61-.77-5.36-1.15-8.26-1.15-4.3,0-8.18.79-11.62,2.36-3.45,1.57-6.39,3.8-8.84,6.66-2.45,2.87-4.33,6.32-5.64,10.36-1.31,4.04-1.97,8.53-1.97,13.46s.68,9.4,2.05,13.4c1.36,4.01,3.26,7.45,5.69,10.34,2.43,2.88,5.32,5.16,8.68,6.82,3.36,1.66,7.03,2.58,11.02,2.75,3.43-.03,6.69-.55,9.78-1.55,3.1-1,5.89-2.6,8.39-4.8,2.5-2.2,4.6-5.07,6.3-8.6,1.7-3.53,2.84-7.87,3.44-13.01h2.89l-1.21,16.79c-1.4,2.24-3.05,4.32-4.96,6.24-1.91,1.92-4.08,3.58-6.51,4.96-2.43,1.38-5.15,2.46-8.16,3.25-3.01.79-6.33,1.18-9.97,1.18-5.46,0-10.46-.9-15-2.7-4.55-1.8-8.46-4.34-11.75-7.61-3.29-3.27-5.85-7.22-7.69-11.86-1.84-4.63-2.75-9.8-2.75-15.5"/><path class="cls-1" d="m486.44,211.63h60.8v12.59h-3.25v-2.73c0-.73-.12-1.42-.37-2.07-.24-.65-.59-1.21-1.02-1.71-.44-.49-.94-.87-1.52-1.15-.58-.28-1.18-.42-1.81-.42h-18.05v59.86c0,.77.14,1.49.42,2.15.28.67.66,1.25,1.15,1.76.49.51,1.06.91,1.71,1.21.65.3,1.34.45,2.07.45h2.41v2.52h-24.34v-2.52h2.41c.7,0,1.38-.14,2.05-.42.66-.28,1.24-.66,1.73-1.15s.88-1.07,1.18-1.73c.3-.66.45-1.38.45-2.15v-59.97h-18.15c-.67,0-1.28.14-1.84.42-.56.28-1.05.66-1.47,1.15-.42.49-.75,1.06-1,1.71-.24.65-.37,1.34-.37,2.07v2.73h-3.2v-12.59Z"/><path class="cls-1" d="m594.88,210.26c5.91,0,11.32.9,16.24,2.7,4.91,1.8,9.14,4.35,12.67,7.66,3.53,3.31,6.28,7.27,8.24,11.88,1.96,4.62,2.94,9.74,2.94,15.37s-.98,10.75-2.94,15.37c-1.96,4.62-4.7,8.57-8.24,11.86-3.53,3.29-7.76,5.83-12.67,7.63-4.92,1.8-10.33,2.7-16.24,2.7s-11.32-.9-16.21-2.7c-4.9-1.8-9.1-4.35-12.62-7.63-3.52-3.29-6.25-7.24-8.21-11.86-1.96-4.62-2.94-9.74-2.94-15.37s.98-10.75,2.94-15.37c1.96-4.62,4.7-8.58,8.21-11.88,3.52-3.31,7.72-5.86,12.62-7.66,4.9-1.8,10.3-2.7,16.21-2.7m0,70.72c4.51,0,8.6-.79,12.28-2.39,3.67-1.59,6.82-3.84,9.44-6.74,2.62-2.9,4.65-6.38,6.09-10.44,1.43-4.06,2.15-8.57,2.15-13.54s-.72-9.48-2.15-13.54c-1.44-4.06-3.46-7.53-6.09-10.41-2.62-2.89-5.77-5.12-9.44-6.72-3.67-1.59-7.77-2.39-12.28-2.39s-8.6.8-12.28,2.39c-3.67,1.59-6.82,3.83-9.44,6.72-2.62,2.88-4.65,6.36-6.09,10.41-1.43,4.06-2.15,8.57-2.15,13.54s.72,9.48,2.15,13.54c1.43,4.06,3.46,7.54,6.09,10.44,2.62,2.9,5.77,5.15,9.44,6.74,3.67,1.59,7.77,2.39,12.28,2.39"/><path class="cls-1" d="m646.92,281.56h2.41c.73,0,1.42-.15,2.07-.45.65-.3,1.21-.7,1.71-1.21.49-.51.87-1.09,1.15-1.76.28-.66.42-1.38.42-2.15v-56.14c0-.77-.14-1.49-.42-2.18-.28-.68-.67-1.29-1.15-1.81-.49-.53-1.06-.94-1.71-1.23-.65-.3-1.34-.45-2.07-.45h-2.41v-2.46h29.64c3.22,0,6.11.45,8.68,1.36,2.57.91,4.76,2.21,6.56,3.91,1.8,1.7,3.18,3.76,4.14,6.19.96,2.43,1.44,5.18,1.44,8.26,0,2.34-.4,4.63-1.21,6.87-.81,2.24-1.92,4.27-3.33,6.09-1.42,1.82-3.1,3.34-5.04,4.56-1.94,1.22-4.05,2.01-6.32,2.36,1.01.81,2.03,1.78,3.04,2.91s1.92,2.21,2.73,3.23l12.59,16.63c1.75,2.31,3.73,4.12,5.93,5.43,2.2,1.31,4.91,2,8.13,2.07v2.47h-6.72c-2.76,0-5.14-.28-7.13-.84-1.99-.56-3.72-1.28-5.17-2.15-1.45-.87-2.68-1.85-3.67-2.94-1-1.08-1.86-2.17-2.6-3.25l-13.22-18.99c-.56-.84-1.19-1.64-1.89-2.41-.7-.77-1.44-1.45-2.23-2.05-.79-.59-1.63-1.08-2.55-1.44-.91-.37-1.87-.55-2.88-.55v-2.52h6.45c4.97,0,8.76-1.3,11.39-3.91,2.62-2.61,3.93-6.36,3.93-11.25,0-1.78-.22-3.59-.66-5.43-.44-1.84-1.12-3.5-2.05-4.98-.93-1.49-2.12-2.69-3.57-3.62-1.45-.93-3.19-1.39-5.22-1.39h-12.64v59.54c0,.81.14,1.55.42,2.23.28.68.66,1.28,1.16,1.78.49.51,1.06.91,1.71,1.21.65.3,1.34.45,2.07.45h2.26l.26,2.52h-24.45v-2.52Z"/><path class="cls-1" d="m727.66,281.56c.73,0,1.43-.15,2.07-.45.65-.3,1.22-.7,1.71-1.21.49-.51.87-1.09,1.16-1.76.28-.66.42-1.38.42-2.15v-56.24c0-.73-.14-1.44-.42-2.13-.28-.68-.67-1.28-1.16-1.78-.49-.51-1.06-.91-1.71-1.21-.65-.3-1.34-.45-2.07-.45h-2.41v-2.46h24.4v2.46h-2.47c-.7,0-1.37.15-2.02.45-.65.3-1.22.7-1.71,1.21-.49.51-.88,1.1-1.18,1.78-.3.68-.45,1.39-.45,2.13v56.24c0,.77.15,1.49.45,2.15.3.67.69,1.25,1.18,1.76.49.51,1.06.91,1.71,1.21.65.3,1.32.45,2.02.45h2.47v2.52h-24.4v-2.52h2.41Z"/><path class="cls-1" d="m757.94,281.56h1.99c.66,0,1.36-.11,2.1-.32.73-.21,1.45-.55,2.15-1.02.7-.47,1.37-1.08,2.02-1.83.65-.75,1.2-1.67,1.65-2.76l25.03-59.49c-.98-1.5-2.04-2.93-3.17-4.28-1.14-1.35-2.33-2.55-3.59-3.62-1.26-1.07-2.58-1.97-3.96-2.7-1.38-.73-2.84-1.24-4.38-1.52l.05-1.36c4.13.18,7.74.79,10.83,1.84,3.1,1.05,5.83,2.58,8.21,4.59s4.49,4.51,6.35,7.5c1.85,2.99,3.58,6.52,5.19,10.57l17.16,42.81c1.08,2.66,2.34,5.38,3.78,8.16,1.43,2.78,3.06,5.33,4.88,7.66,1.82,2.33,3.81,4.33,5.98,6.01,2.17,1.68,4.51,2.75,7.03,3.2l-.05,1.36c-4.13-.18-7.74-.79-10.83-1.84-3.1-1.05-5.83-2.58-8.21-4.59-2.38-2.01-4.49-4.51-6.32-7.5-1.84-2.99-3.58-6.51-5.22-10.57l-4.98-12.38h-29.38l-6.61,16.79c-.21.52-.32,1.1-.32,1.73s.11,1.21.34,1.73c.23.53.58.96,1.05,1.31s1.06.53,1.76.53h2.05v2.52h-22.56v-2.52Zm26.07-26.6h25.81l-10.39-25.92c-.42-1.05-.87-2.12-1.36-3.2-.49-1.08-1-2.17-1.52-3.25l-12.54,32.37Z"/><path class="cls-1" d="m877.45,252.91c1.08.98,1.98,2.01,2.68,3.1.7,1.08,1.25,2.18,1.65,3.28.4,1.1.68,2.2.84,3.31.16,1.1.24,2.18.24,3.23,0,2.9-.47,5.56-1.42,7.97-.94,2.41-2.28,4.49-4.01,6.22s-3.83,3.07-6.3,4.01c-2.47.94-5.24,1.42-8.32,1.42-1.29,0-2.76-.1-4.41-.31-1.64-.21-3.31-.55-4.98-1.02-1.68-.47-3.29-1.09-4.83-1.86-1.54-.77-2.87-1.71-3.99-2.83l1.36-15.06h2.94c-.11,1.26-.16,2.22-.16,2.89,0,2.1.37,4,1.1,5.69.73,1.7,1.71,3.14,2.94,4.33,1.22,1.19,2.66,2.11,4.3,2.75,1.64.65,3.37.97,5.19.97,1.71,0,3.33-.31,4.85-.94,1.52-.63,2.85-1.5,3.99-2.62,1.14-1.12,2.04-2.47,2.7-4.07.66-1.59,1-3.33,1-5.22s-.31-3.61-.94-5.06c-.63-1.45-1.52-2.72-2.68-3.8l-19.41-18.05c-2.13-1.99-3.65-4.16-4.54-6.51-.89-2.34-1.34-4.53-1.34-6.56,0-2.2.41-4.38,1.23-6.53.82-2.15,2.04-4.07,3.65-5.74,1.61-1.68,3.59-3.03,5.95-4.07,2.36-1.03,5.06-1.55,8.11-1.55,2.31,0,4.58.18,6.82.53,2.24.35,4.55.52,6.92.52v13.96h-3.09c0-1.64-.27-3.1-.81-4.38-.54-1.28-1.29-2.37-2.23-3.28-.94-.91-2.04-1.6-3.28-2.07-1.24-.47-2.58-.71-4.01-.71-1.71,0-3.27.3-4.67.89-1.4.6-2.6,1.39-3.59,2.39-1,1-1.77,2.16-2.31,3.49-.54,1.33-.81,2.71-.81,4.14,0,1.26.25,2.69.76,4.3.51,1.61,1.5,3.1,2.96,4.46l19.94,18.41Z"/></svg>