<svg width="312" height="85" viewBox="0 0 312 85" fill="none" xmlns="http://www.w3.org/2000/svg">
<path d="M32.0189 78.4536C32.0189 77.5938 31.9609 74.5933 31.9341 73.9036C31.8627 72.5153 31.7913 72.4034 31.7913 72.4034C31.9609 72.3452 32.3179 72.2869 32.617 72.2869C33.1034 72.2869 33.5854 72.3317 33.7148 72.5601C33.8844 72.887 34.0987 73.2453 34.3129 73.6305L36.1382 76.8638C36.4685 77.4505 36.7095 77.9386 36.8077 78.2073H36.8791C37.1781 77.3923 38.575 74.862 39.5033 73.0572C39.7889 72.4974 40.0879 72.2869 40.6012 72.2869C40.8288 72.2869 41.1144 72.2869 41.4715 72.3586C41.4715 73.6036 41.4581 75.5606 41.4581 76.7653C41.4581 78.6373 41.4581 80.5137 41.6991 82.417C41.342 82.4752 41.043 82.5603 40.744 82.5603C40.2442 82.5603 39.8157 82.3588 39.8157 81.5885V74.2932L39.7577 74.2485C39.6729 74.4769 39.414 74.9337 39.1016 75.5338L37.6601 78.2924C37.245 79.0806 36.7898 80.5809 36.7898 80.5809H36.5622C36.4328 80.5809 36.3034 80.5674 36.2632 80.4823C35.9374 79.7255 35.4509 78.8791 34.9957 78.0954L33.813 76.0353C33.398 75.3188 33.0588 74.7187 32.8847 74.3201L32.8267 74.3783C32.8267 76.6086 32.9561 79.2284 32.9561 81.5706C32.9561 82.3409 32.9294 82.5424 32.4295 82.5424C32.1305 82.5424 31.8002 82.3991 31.8002 82.3991C31.8002 82.3991 32.0145 82.0139 32.0145 78.4536H32.0189Z" fill="#01396D"/>
<path d="M46.4521 78.4536C46.4521 77.5938 46.3941 74.5933 46.3673 73.9036C46.2959 72.5153 46.2245 72.4034 46.2245 72.4034H48.8487C51.0311 72.4034 51.9996 72.2601 51.9996 72.2601C51.9148 72.9587 51.8702 73.4468 50.8437 73.4468C49.1478 73.4468 48.1347 73.2184 48.1347 73.2184C48.1347 73.8051 48.1213 75.3188 48.1079 76.7384H50.3037C50.8883 76.7384 51.1427 76.5951 51.1427 76.5951C51.1159 77.2669 51.0311 77.652 50.2858 77.652C49.5405 77.652 48.09 77.5669 48.09 77.5669V79.0537C48.09 79.824 48.1347 80.5988 48.1481 81.4721L50.7544 81.4004C51.6827 81.3735 52.3075 81.2705 52.6646 81.0869C52.678 81.2437 52.678 81.3735 52.678 81.4855C52.678 82.3991 52.3656 82.4886 51.3257 82.4886L46.2959 82.417C46.2959 82.417 46.4521 82.0184 46.4521 78.4536Z" fill="#01396D"/>
<path d="M56.6991 78.4536C56.6991 77.2669 56.6545 74.8217 56.6143 73.9036C56.5429 72.5153 56.4715 72.3855 56.4715 72.3855C56.6991 72.3138 56.8865 72.2556 57.1141 72.2556C57.7568 72.2556 58.3816 72.5825 58.3816 73.1423C58.3816 74.8038 58.3102 76.1159 58.3102 77.2176C58.3102 79.0627 58.3102 80.0793 58.337 81.4676L60.9434 81.3959C61.8717 81.369 62.4965 81.266 62.8535 81.0824C62.8669 81.2392 62.8669 81.369 62.8669 81.481C62.8669 82.3946 62.5545 82.4842 61.5146 82.4842L56.5384 82.4125C56.5384 82.4125 56.6946 82.0139 56.6946 78.4492L56.6991 78.4536Z" fill="#01396D"/>
<path d="M70.8512 72.1929C72.1499 72.1929 74.0422 72.7079 74.0422 73.5499C74.0422 73.8633 73.7431 74.4097 73.4709 74.6918H73.3861C72.6587 73.5633 71.5474 72.9901 70.4941 72.9901C68.9142 72.9901 67.4459 74.3201 67.4459 77.0653C67.4459 79.2374 68.6152 81.369 70.9806 81.369C72.0919 81.369 73.2478 81.0242 74.2296 80.1957L74.2742 80.2405C74.002 81.5258 72.4355 82.6275 70.6102 82.6275C67.2317 82.6275 65.692 80.2405 65.692 77.7505C65.692 74.9605 67.6021 72.1884 70.8512 72.1884V72.1929Z" fill="#01396D"/>
<path d="M78.4159 78.4536C78.4159 77.5938 78.3579 74.5933 78.3311 73.9036C78.2597 72.5153 78.1883 72.3855 78.1883 72.3855C78.4293 72.3138 78.7461 72.2556 78.9737 72.2556C79.6164 72.2556 80.0984 72.5825 80.0984 73.1423C80.0984 73.7021 80.085 75.2471 80.0716 76.6623C80.6295 76.7071 81.5132 76.7205 82.3656 76.7205C83.3475 76.7205 84.432 76.6936 85.1148 76.6623C85.1014 75.6457 85.0702 74.7008 85.0434 73.9036C84.9854 72.5153 84.9006 72.3855 84.9006 72.3855C85.1416 72.3138 85.4584 72.2556 85.686 72.2556C86.3287 72.2556 86.8107 72.5825 86.8107 73.1423C86.8107 74.3873 86.7527 75.5606 86.7527 76.7608C86.7527 78.5074 86.8107 81.7811 86.9401 82.4125C86.5697 82.4707 86.4001 82.5558 85.9583 82.5558C85.2442 82.5558 85.0478 82.1125 85.0478 81.369C85.0478 80.2808 85.1059 78.9239 85.1192 77.5625C84.4766 77.5177 83.5394 77.5042 82.6691 77.5042C81.7408 77.5042 80.7321 77.5311 80.0627 77.5625V78.9911C80.0627 79.7927 80.1207 80.666 80.1207 81.5795C80.1207 82.3498 79.6923 82.5513 79.1924 82.5513C78.8934 82.5513 78.5944 82.4663 78.2374 82.408C78.2374 82.408 78.4248 82.0095 78.4248 78.4447L78.4159 78.4536Z" fill="#01396D"/>
<path d="M96.1606 72.1929C99.4543 72.1929 101.119 74.4948 101.119 76.8862C101.119 79.8195 99.3516 82.6364 95.9598 82.6364C92.5679 82.6364 91.0014 80.2181 91.0014 77.661C91.0014 74.8441 92.7688 72.1974 96.1606 72.1974V72.1929ZM96.1606 81.8482C98.2002 81.8482 99.2802 79.515 99.2802 77.2266C99.2802 75.1083 98.1243 72.9766 95.9464 72.9766C93.9068 72.9766 92.8402 75.1486 92.8402 77.3117C92.8402 79.6001 94.0095 81.8438 96.1606 81.8438V81.8482Z" fill="#01396D"/>
<path d="M105.39 78.4536C105.39 77.2669 105.363 74.8217 105.319 73.9036C105.247 72.5153 105.176 72.372 105.176 72.372C105.176 72.372 105.734 72.3989 106.314 72.3989H108.081C110.549 72.3989 111.772 73.5409 111.772 74.974C111.772 77.5042 109.465 77.8491 109.465 77.8491V77.9207C109.465 77.9207 111.875 81.5258 113.071 82.211V82.3095C113.071 82.3095 112.232 82.4976 111.817 82.4976C109.563 82.4976 108.469 78.1805 107.229 77.8222L107.028 77.764C107.028 78.1088 107.099 80.0076 107.099 81.584C107.099 82.3543 106.671 82.5558 106.171 82.5558C105.872 82.5558 105.56 82.4707 105.203 82.4125C105.203 82.4125 105.39 82.0139 105.39 78.4492V78.4536ZM108.255 77.24C109.268 77.24 110.094 76.725 110.094 75.2785C110.094 74.1365 109.425 73.1602 107.528 73.1602H107.086C107.041 74.3604 107.028 76.0219 107.028 77.0788C107.443 77.2221 107.854 77.2355 108.255 77.2355V77.24Z" fill="#01396D"/>
<path d="M122.064 78.4536C122.064 77.2669 122.037 74.8217 121.992 73.9036C121.921 72.5153 121.849 72.372 121.849 72.372C121.849 72.372 122.407 72.3989 122.987 72.3989H124.755C127.223 72.3989 128.446 73.5409 128.446 74.974C128.446 77.5042 126.138 77.8491 126.138 77.8491V77.9207C126.138 77.9207 128.548 81.5258 129.744 82.211V82.3095C129.744 82.3095 128.905 82.4976 128.49 82.4976C126.237 82.4976 125.143 78.1805 123.902 77.8222L123.702 77.764C123.702 78.1088 123.773 80.0076 123.773 81.584C123.773 82.3543 123.345 82.5558 122.845 82.5558C122.546 82.5558 122.233 82.4707 121.876 82.4125C121.876 82.4125 122.064 82.0139 122.064 78.4492V78.4536ZM124.929 77.24C125.942 77.24 126.768 76.725 126.768 75.2785C126.768 74.1365 126.098 73.1602 124.201 73.1602H123.76C123.715 74.3604 123.702 76.0219 123.702 77.0788C124.117 77.2221 124.527 77.2355 124.929 77.2355V77.24Z" fill="#01396D"/>
<path d="M137.755 72.1929C141.049 72.1929 142.714 74.4948 142.714 76.8862C142.714 79.8195 140.946 82.6364 137.555 82.6364C134.163 82.6364 132.596 80.2181 132.596 77.661C132.596 74.8441 134.364 72.1974 137.755 72.1974V72.1929ZM137.755 81.8482C139.795 81.8482 140.875 79.515 140.875 77.2266C140.875 75.1083 139.719 72.9766 137.541 72.9766C135.502 72.9766 134.435 75.1486 134.435 77.3117C134.435 79.6001 135.604 81.8438 137.755 81.8438V81.8482Z" fill="#01396D"/>
<path d="M146.989 78.4536C146.989 77.5938 146.931 74.5933 146.904 73.9036C146.833 72.5153 146.762 72.4034 146.762 72.4034C146.931 72.3452 147.288 72.2869 147.587 72.2869C148.074 72.2869 148.556 72.3317 148.685 72.5601C148.855 72.887 149.069 73.2453 149.283 73.6305L151.109 76.8638C151.439 77.4505 151.68 77.9386 151.778 78.2073H151.849C152.148 77.3923 153.545 74.862 154.474 73.0572C154.759 72.4974 155.058 72.2869 155.572 72.2869C155.799 72.2869 156.085 72.2869 156.442 72.3586C156.442 73.6036 156.428 75.5606 156.428 76.7653C156.428 78.6373 156.428 80.5137 156.669 82.417C156.312 82.4752 156.013 82.5603 155.714 82.5603C155.215 82.5603 154.786 82.3588 154.786 81.5885V74.2932L154.728 74.2485C154.643 74.4769 154.384 74.9337 154.072 75.5338L152.63 78.2924C152.215 79.0806 151.76 80.5809 151.76 80.5809H151.533C151.403 80.5809 151.274 80.5674 151.234 80.4823C150.908 79.7255 150.421 78.8791 149.966 78.0954L148.783 76.0353C148.368 75.3188 148.029 74.7187 147.855 74.3201L147.797 74.3783C147.797 76.6086 147.927 79.2284 147.927 81.5706C147.927 82.3409 147.9 82.5424 147.4 82.5424C147.101 82.5424 146.771 82.3991 146.771 82.3991C146.771 82.3991 146.985 82.0139 146.985 78.4536H146.989Z" fill="#01396D"/>
<path d="M161.423 78.4536C161.423 77.5938 161.365 74.5933 161.338 73.9036C161.266 72.5153 161.195 72.4034 161.195 72.4034H163.819C166.002 72.4034 166.97 72.2601 166.97 72.2601C166.885 72.9587 166.841 73.4468 165.814 73.4468C164.118 73.4468 163.105 73.2184 163.105 73.2184C163.105 73.8051 163.092 75.3188 163.078 76.7384H165.274C165.859 76.7384 166.113 76.5951 166.113 76.5951C166.086 77.2669 166.002 77.652 165.256 77.652C164.511 77.652 163.06 77.5669 163.06 77.5669V79.0537C163.06 79.824 163.105 80.5988 163.118 81.4721L165.725 81.4004C166.653 81.3735 167.278 81.2705 167.635 81.0869C167.648 81.2437 167.648 81.3735 167.648 81.4855C167.648 82.3991 167.336 82.4886 166.296 82.4886L161.266 82.417C161.266 82.417 161.423 82.0184 161.423 78.4536Z" fill="#01396D"/>
<path d="M171.669 78.4536C171.669 77.2669 171.643 74.8217 171.598 73.9036C171.527 72.5153 171.455 72.372 171.455 72.372C171.455 72.372 172.013 72.3989 172.593 72.3989H174.361C176.829 72.3989 178.051 73.5409 178.051 74.974C178.051 77.5042 175.744 77.8491 175.744 77.8491V77.9207C175.744 77.9207 178.154 81.5258 179.35 82.211V82.3095C179.35 82.3095 178.511 82.4976 178.096 82.4976C175.842 82.4976 174.749 78.1805 173.508 77.8222L173.307 77.764C173.307 78.1088 173.379 80.0076 173.379 81.584C173.379 82.3543 172.95 82.5558 172.451 82.5558C172.151 82.5558 171.839 82.4707 171.482 82.4125C171.482 82.4125 171.669 82.0139 171.669 78.4492V78.4536ZM174.535 77.24C175.548 77.24 176.373 76.725 176.373 75.2785C176.373 74.1365 175.704 73.1602 173.807 73.1602H173.365C173.321 74.3604 173.307 76.0219 173.307 77.0788C173.722 77.2221 174.133 77.2355 174.535 77.2355V77.24Z" fill="#01396D"/>
<path d="M187.357 72.1929C190.65 72.1929 192.315 74.4948 192.315 76.8862C192.315 79.8195 190.548 82.6364 187.156 82.6364C183.764 82.6364 182.198 80.2181 182.198 77.661C182.198 74.8441 183.965 72.1974 187.357 72.1974V72.1929ZM187.357 81.8482C189.396 81.8482 190.476 79.515 190.476 77.2266C190.476 75.1083 189.321 72.9766 187.143 72.9766C185.103 72.9766 184.036 75.1486 184.036 77.3117C184.036 79.6001 185.206 81.8438 187.357 81.8438V81.8482Z" fill="#01396D"/>
<path d="M195.194 83.7068C195.752 83.7068 196.162 83.2903 196.162 82.7484C196.162 82.1617 195.408 82.3901 195.408 81.5482C195.408 81.0197 195.805 80.6346 196.318 80.6346C197.073 80.6346 197.416 81.3377 197.416 82.108C197.416 83.0663 196.876 84.1232 195.694 84.1232C194.908 84.1232 194.64 83.6351 194.64 83.6351L194.712 83.5634C194.712 83.5634 194.953 83.7068 195.198 83.7068H195.194Z" fill="#01396D"/>
<path d="M206.922 78.4536C206.922 77.2669 206.878 74.8217 206.838 73.9036C206.766 72.5153 206.695 72.3855 206.695 72.3855C206.922 72.3138 207.11 72.2556 207.337 72.2556C207.98 72.2556 208.605 72.5825 208.605 73.1423C208.605 74.8038 208.534 76.1159 208.534 77.2176C208.534 79.0627 208.534 80.0793 208.56 81.4676L211.167 81.3959C212.095 81.369 212.72 81.266 213.077 81.0824C213.09 81.2392 213.09 81.369 213.09 81.481C213.09 82.3946 212.778 82.4842 211.738 82.4842L206.762 82.4125C206.762 82.4125 206.918 82.0139 206.918 78.4492L206.922 78.4536Z" fill="#01396D"/>
<path d="M215.389 82.3453C215.389 82.3453 215.786 82.0453 216.317 80.5585L219.294 72.2198C219.294 72.2198 220.749 72.278 221.249 73.9484C221.789 75.7487 223.06 79.5956 223.77 81.1854C224.167 82.0856 224.257 82.2558 224.426 82.3453V82.417C224.426 82.417 223.886 82.5603 223.386 82.5603C222.757 82.5603 222.248 82.3185 222.074 81.7004C221.887 81.0556 221.619 80.1285 221.275 79.0851C220.833 79.0717 220.334 79.0582 219.852 79.0582C219.124 79.0582 218.397 79.0851 217.799 79.1164C216.942 81.7184 217.013 82.5648 215.902 82.5648C215.661 82.5648 215.389 82.4215 215.389 82.4215V82.3453ZM219.553 78.3551C220.052 78.3551 220.552 78.3417 221.021 78.3282C220.508 76.8101 219.954 75.1979 219.495 74.0246H219.423C218.812 75.798 218.383 77.1997 218.026 78.3282C218.481 78.3417 219.008 78.3551 219.553 78.3551Z" fill="#01396D"/>
<path d="M233.299 77.1549C233.299 75.9682 233.272 74.8217 233.227 73.9081C233.156 72.5198 233.084 72.3631 233.084 72.3631C233.084 72.3631 233.624 72.4079 233.968 72.4079H235.994C238.587 72.4079 239.73 73.8678 239.73 75.3233C239.73 77.4684 237.663 78.5701 235.726 78.5701C235.468 78.5701 235.2 78.5566 234.959 78.5119C234.972 79.7971 235.017 81.1003 235.186 82.417C234.829 82.4752 234.53 82.5603 234.231 82.5603C233.731 82.5603 233.303 82.3588 233.303 81.5885V77.1549H233.299ZM235.436 77.8715C237.074 77.8715 237.944 76.6578 237.944 75.4531C237.944 74.2485 237.146 73.1647 235.436 73.1647H234.994C234.994 73.1647 234.936 75.583 234.936 76.7698V77.8446C235.106 77.8715 235.28 77.8715 235.436 77.8715Z" fill="#01396D"/>
<path d="M243.63 78.4536C243.63 77.2669 243.586 74.8217 243.545 73.9036C243.474 72.5153 243.403 72.3855 243.403 72.3855C243.63 72.3138 243.818 72.2556 244.045 72.2556C244.688 72.2556 245.313 72.5825 245.313 73.1423C245.313 74.8038 245.241 76.1159 245.241 77.2176C245.241 79.0627 245.241 80.0793 245.268 81.4676L247.875 81.3959C248.803 81.369 249.428 81.266 249.785 81.0824C249.798 81.2392 249.798 81.369 249.798 81.481C249.798 82.3946 249.486 82.4842 248.446 82.4842L243.47 82.4125C243.47 82.4125 243.626 82.0139 243.626 78.4492L243.63 78.4536Z" fill="#01396D"/>
<path d="M252.097 82.3453C252.097 82.3453 252.494 82.0453 253.025 80.5585L256.002 72.2198C256.002 72.2198 257.457 72.278 257.956 73.9484C258.496 75.7487 259.768 79.5956 260.478 81.1854C260.875 82.0856 260.964 82.2558 261.134 82.3453V82.417C261.134 82.417 260.594 82.5603 260.094 82.5603C259.465 82.5603 258.956 82.3185 258.782 81.7004C258.595 81.0556 258.327 80.1285 257.983 79.0851C257.541 79.0717 257.042 79.0582 256.56 79.0582C255.832 79.0582 255.105 79.0851 254.507 79.1164C253.65 81.7184 253.721 82.5648 252.61 82.5648C252.369 82.5648 252.097 82.4215 252.097 82.4215V82.3453ZM256.26 78.3551C256.76 78.3551 257.26 78.3417 257.729 78.3282C257.216 76.8101 256.662 75.1979 256.202 74.0246H256.131C255.52 75.798 255.091 77.1997 254.734 78.3282C255.189 78.3417 255.716 78.3551 256.26 78.3551Z" fill="#01396D"/>
<path d="M266.003 77.1549C266.003 75.9682 265.976 74.8396 265.932 73.9215C265.918 73.72 265.905 73.5499 265.905 73.4065C264.995 73.3931 264.651 73.3931 264.423 73.3931C263.696 73.3931 263.071 73.4782 262.767 73.523C262.767 73.523 262.723 73.2095 262.723 72.9497C262.723 72.6631 262.781 72.3362 263.049 72.3362C263.049 72.3362 267.837 72.4079 269.279 72.4079C269.98 72.4079 270.591 72.3093 270.832 72.2645C270.832 72.2645 270.89 72.6228 270.89 72.9811C270.89 73.2946 270.774 73.4513 270.618 73.4513C270.618 73.4513 269.266 73.4379 267.695 73.4245C267.681 74.5844 267.637 75.6547 267.637 76.7698C267.637 78.6417 267.637 80.5182 267.878 82.4215C267.521 82.4797 267.221 82.5648 266.922 82.5648C266.423 82.5648 265.994 82.3633 265.994 81.593V77.1594L266.003 77.1549Z" fill="#01396D"/>
<path d="M272.515 82.3453C272.515 82.3453 272.912 82.0453 273.443 80.5585L276.42 72.2198C276.42 72.2198 277.875 72.278 278.374 73.9484C278.914 75.7487 280.186 79.5956 280.896 81.1854C281.293 82.0856 281.383 82.2558 281.552 82.3453V82.417C281.552 82.417 281.012 82.5603 280.512 82.5603C279.883 82.5603 279.374 82.3185 279.2 81.7004C279.013 81.0556 278.745 80.1285 278.401 79.0851C277.959 79.0717 277.46 79.0582 276.978 79.0582C276.25 79.0582 275.523 79.0851 274.925 79.1164C274.068 81.7184 274.139 82.5648 273.028 82.5648C272.787 82.5648 272.515 82.4215 272.515 82.4215V82.3453ZM276.679 78.3551C277.178 78.3551 277.678 78.3417 278.147 78.3282C277.634 76.8101 277.08 75.1979 276.621 74.0246H276.549C275.938 75.798 275.509 77.1997 275.152 78.3282C275.607 78.3417 276.134 78.3551 276.679 78.3551Z" fill="#01396D"/>
<path d="M147.413 23.7684C152.389 31.0503 151.497 43.6837 141.995 50.5132C131.69 57.9159 115.217 55.3095 109.166 43.1418C103.194 31.1398 110.509 16.424 123.693 13.9295C124.273 13.822 124.853 13.7325 125.656 13.6026C126.058 14.3146 126.478 15.067 126.879 15.7791C126.701 15.9985 126.62 16.1956 126.513 16.2135C119.538 17.3823 115.856 21.8831 114.338 28.4707C113.173 33.5089 113.343 38.5067 115.365 43.3389C117.797 49.1562 122.693 52.1164 129.561 51.9776C135.287 51.8612 140.415 48.3636 142.259 42.7835C143.151 40.0876 143.504 37.1363 143.638 34.2791C143.865 29.3037 144.218 27.8796 147.413 23.7729V23.7684Z" fill="#01396D"/>
<path d="M235.325 25.9897C235.597 27.7004 235.842 29.2276 236.15 31.1577C236.784 30.5711 237.275 30.1188 237.766 29.6709C241.372 26.3614 245.527 25.1702 250.289 26.4689C253.565 27.3601 255.421 29.662 255.546 33.1013C255.743 38.4664 255.886 43.8315 255.979 49.1966C256.015 51.1849 256.859 52.2284 258.836 52.4657C259.255 52.515 259.612 53.039 260 53.348C259.563 53.6033 259.126 54.069 258.679 54.078C255.185 54.1407 251.69 54.1451 248.196 54.078C247.696 54.069 247.205 53.554 246.71 53.2719C247.134 52.9897 247.526 52.5285 247.982 52.4613C250.057 52.1388 250.834 50.9252 250.811 48.9055C250.767 44.5794 250.842 40.2533 250.793 35.9272C250.744 31.4085 248.776 28.8469 245.299 28.6006C241.314 28.3229 237.061 31.619 236.829 35.5824C236.561 40.1771 236.69 44.7943 236.686 49.4026C236.686 51.2835 237.717 52.2194 239.547 52.4657C239.98 52.524 240.354 53.0211 240.756 53.3211C240.332 53.5853 239.913 54.078 239.484 54.0824C235.767 54.1407 232.049 54.1362 228.336 54.0824C227.947 54.078 227.559 53.6525 227.175 53.4196C227.546 53.0927 227.872 52.5598 228.291 52.4702C231.063 51.8701 231.589 51.2969 231.603 48.4173C231.62 43.7195 231.616 39.0173 231.603 34.3195C231.594 30.6024 231.478 30.486 227.965 29.4201C227.648 29.3216 227.211 28.8872 227.224 28.623C227.238 28.3364 227.662 27.9065 227.983 27.8214C230.326 27.1944 232.687 26.6391 235.316 25.9987L235.325 25.9897Z" fill="#01396D"/>
<path d="M35.0582 44.248C34.777 47.4679 34.4959 50.6878 34.2058 53.9973H0.778173C0.648747 53.8361 0.514863 53.6749 0.385437 53.5137C0.849585 53.1151 1.25125 52.5016 1.78234 52.3538C6.08464 51.1536 6.23637 50.9879 6.23637 46.3797C6.23637 37.7275 6.24084 29.0753 6.23637 20.4231C6.23637 17.2345 5.66512 16.6344 2.58121 15.9313C1.98764 15.797 1.53688 15.0536 1.01918 14.5923C1.1486 14.4087 1.27803 14.2251 1.40745 14.037H16.4923C16.6395 14.1803 16.7868 14.3236 16.9341 14.4669C16.4476 14.9551 16.0281 15.7432 15.4569 15.8821C12.3149 16.6568 11.8954 16.9927 11.8731 20.1947C11.8151 28.4752 11.7705 36.7512 11.8329 45.0317C11.8731 50.137 13.0736 51.5163 18.2105 51.8791C21.1427 52.0851 24.1552 51.8657 27.065 51.4133C30.3676 50.9028 31.9654 48.3994 32.907 45.3541C33.1079 44.7003 33.8532 44.2211 34.3486 43.6613C34.5851 43.8584 34.8217 44.0554 35.0582 44.2524V44.248Z" fill="#01396D"/>
<path d="M64.7637 51.2342C64.5494 53.2271 63.0767 54.3108 60.4881 54.5616C57.0338 54.8975 56.0475 54.0556 54.6238 49.6175C53.4188 50.7461 52.2763 52.0179 50.9419 53.0255C48.5765 54.799 45.7648 54.9557 43.0469 54.3377C38.3429 53.2719 36.8969 47.4186 40.5164 43.93C42.0338 42.4656 43.9841 41.3863 45.8675 40.3876C48.09 39.2053 50.4197 38.1932 52.7806 37.311C54.1552 36.8005 54.6506 36.0302 54.4408 34.6598C54.2311 33.276 54.2579 31.8071 53.7892 30.5218C52.9814 28.305 50.9463 27.8438 48.8577 27.8169C46.9029 27.79 45.6756 28.8066 45.1891 30.7457C45.0463 31.31 44.7383 31.8429 44.4393 32.3535C43.6672 33.6746 42.6363 34.306 41.1234 33.4775C39.7041 32.6983 39.4051 31.5429 39.963 30.0874C40.7306 28.0722 42.3641 26.9436 44.3099 26.6525C47.0814 26.236 49.9377 25.8778 52.7047 26.1151C57.4042 26.5182 59.5643 29.2007 59.6223 34.0463C59.6714 38.0007 59.6313 41.9551 59.6357 45.9094C59.6357 46.5051 59.6268 47.1052 59.6357 47.7008C59.7205 51.5656 61.0014 52.5016 64.7592 51.2387L64.7637 51.2342ZM54.3382 38.7306C50.6027 40.1279 47.1394 41.5251 44.716 44.6376C43.6137 46.0527 43.1451 47.6694 44.0555 49.416C44.966 51.1626 46.4655 51.6238 48.331 51.5432C50.5134 51.4447 51.8345 50.1504 52.9502 48.5114C54.9541 45.5825 54.4408 42.2909 54.3337 38.7262L54.3382 38.7306Z" fill="#01396D"/>
<path d="M224.797 51.3462C224.814 53.1957 223.136 54.3959 220.267 54.5885C216.942 54.8079 215.442 53.3749 214.907 49.1562C214.264 49.9086 213.769 50.4774 213.282 51.0551C210.274 54.6377 205.891 55.5021 202.04 53.9078C198.233 52.3269 197.229 47.338 200.197 44.454C202.022 42.6805 204.347 41.3729 206.579 40.0921C208.373 39.062 210.368 38.3858 212.274 37.5483C214.817 36.4288 215.103 35.8331 214.612 32.7341C214.144 29.765 212.698 28.2737 209.93 27.893C207.342 27.5392 206.311 28.1393 205.271 30.6114C205.155 30.8846 205.173 31.2652 204.99 31.4443C204.133 32.2773 203.334 33.3387 202.294 33.7328C201.799 33.9209 200.219 32.855 200.17 32.2684C200.063 31.0547 200.25 29.2231 201.04 28.6454C202.7 27.4317 204.771 26.4107 206.78 26.142C209.297 25.8061 211.957 26.0927 214.492 26.5047C217.576 27.0108 219.285 29.1022 219.401 32.2191C219.597 37.3558 219.495 42.5059 219.807 47.6336C220.075 51.9821 220.789 52.3627 224.788 51.3462H224.797ZM214.55 38.6187C210.859 40.1995 207.346 41.3997 204.927 44.4181C203.629 46.0393 203.281 47.9157 204.365 49.819C205.432 51.6865 207.346 51.9194 209.042 51.4223C210.417 51.0192 211.836 50.0071 212.742 48.8741C215.023 46.0035 214.8 42.5193 214.554 38.6232L214.55 38.6187Z" fill="#01396D"/>
<path d="M289.844 51.2924C289.916 53.0927 288.372 54.2705 285.578 54.5482C281.963 54.9065 280.682 53.7555 280.012 49.2503C279.508 49.8011 279.12 50.1639 278.794 50.5848C276.21 53.9212 272.733 55.0229 268.708 54.4586C266.525 54.1541 264.798 52.9136 264.08 50.7505C263.339 48.5248 263.406 46.1961 265.2 44.5077C266.798 43.003 268.645 41.6819 270.573 40.6295C273.041 39.2815 275.674 38.2201 278.29 37.1632C279.459 36.693 279.789 36.0033 279.794 34.8031C279.798 30.5666 278.285 28.3095 275.036 27.9154C272.198 27.5751 271.345 28.0945 270.292 30.7636C269.694 32.2863 269.181 34.0687 267.043 33.688C266.338 33.5626 265.195 32.6042 265.24 32.1251C265.374 30.7502 265.619 28.8872 266.543 28.202C268.074 27.069 270.131 26.3345 272.046 26.1196C274.438 25.8554 276.946 26.0524 279.33 26.4734C282.949 27.1093 284.556 29.3306 284.569 33.0924C284.582 37.1946 284.565 41.2967 284.582 45.4034C284.582 46.2946 284.6 47.2037 284.761 48.077C285.484 52.0582 286.064 52.412 289.844 51.2924ZM279.651 38.6724C275.822 40.1189 272.336 41.5027 269.859 44.5256C268.592 46.0707 268.543 47.974 269.417 49.7653C270.221 51.4044 271.859 51.8925 273.38 51.4536C274.907 51.0103 276.589 50.231 277.611 49.0756C280.102 46.2498 279.901 42.6626 279.651 38.6769V38.6724Z" fill="#01396D"/>
<path d="M83.9857 26.554C84.0481 26.8227 84.1642 27.0914 84.1642 27.3601C84.1776 29.5052 84.1731 31.6503 84.1731 33.7955C83.9633 33.9119 83.7491 34.0239 83.5394 34.1403C83.0708 33.4865 82.504 32.8864 82.1514 32.1743C80.9687 29.7829 79.5495 27.6154 76.479 28.1617C75.3231 28.3677 73.7565 29.1604 73.3772 30.0919C72.9354 31.1801 73.2433 32.9043 73.8547 34.006C74.4528 35.0852 75.7916 35.7839 76.8762 36.5497C79.121 38.135 81.4953 39.5457 83.6599 41.2295C86.2261 43.2269 87.0294 46.2364 86.0743 49.201C85.0568 52.3538 82.7003 54.2347 79.4245 54.5258C76.8672 54.7542 74.4394 54.5168 72.0695 53.3032C71.3332 52.927 70.1549 53.4152 68.9455 53.5316V45.4123C69.0928 45.3452 69.24 45.2735 69.3873 45.2063C69.8425 46.111 70.329 46.9977 70.7485 47.9202C72.4087 51.5835 74.9258 53.0614 78.4471 52.5195C80.1698 52.2553 81.3168 51.4805 81.7229 49.7026C82.1335 47.9113 81.7051 46.4603 80.1609 45.4168C77.5768 43.6703 74.9258 42.0133 72.4043 40.1816C68.7089 37.4946 67.7316 33.8716 69.5614 30.2621C71.409 26.6167 75.1178 25.2105 79.429 26.4152C80.7545 26.7869 82.1558 26.8899 83.5215 27.1183C83.6732 26.9302 83.825 26.7466 83.9767 26.5585L83.9857 26.554Z" fill="#01396D"/>
<path d="M309.053 27.2929V33.7552C308.892 33.8537 308.732 33.9478 308.571 34.0463C308.151 33.4193 307.674 32.8237 307.317 32.1609C306.121 29.9441 304.893 27.6288 301.872 28.1572C300.654 28.3722 299.27 29.1246 298.507 30.074C297.378 31.4757 298.029 33.1193 299.212 34.2881C300.256 35.3226 301.515 36.1556 302.733 36.9975C304.443 38.1798 306.25 39.2188 307.933 40.4369C311.124 42.7432 312.271 45.9453 311.271 49.4384C310.468 52.2553 307.531 54.5392 303.912 54.4944C301.265 54.4631 298.632 53.6928 295.99 53.2495C296.021 53.0524 296.048 52.8598 296.079 52.6628C295.445 53.1554 294.807 53.648 293.821 54.4138V45.5377C293.973 45.4168 294.124 45.2959 294.276 45.1795C294.669 45.7437 295.173 46.2587 295.436 46.8768C296.655 49.716 298.141 52.1791 301.618 52.5822C304.135 52.8733 306.085 52.0224 306.799 50.146C307.585 48.068 307.071 46.6394 304.804 45.0406C302.14 43.1597 299.306 41.4938 296.762 39.4651C293.709 37.0289 293.133 33.2447 294.959 29.8411C296.615 26.751 300.332 25.2866 303.943 26.2226C305.478 26.6212 307.049 26.8675 309.062 27.2795L309.053 27.2929Z" fill="#01396D"/>
<path d="M169.13 54.0018H155.826C155.714 53.8361 155.598 53.6704 155.487 53.5047C155.893 53.1509 156.259 52.5464 156.705 52.4837C158.678 52.206 159.86 51.3148 159.843 49.1786C159.802 43.6747 159.892 38.1664 159.7 32.6669C159.611 30.0382 157.267 30.3696 154.688 30.168C155.598 29.2544 156.022 28.4573 156.611 28.3006C159.102 27.6467 161.646 27.1854 164.386 26.6033C164.663 28.6454 164.921 30.5935 165.247 33.0252C165.841 32.1564 166.211 31.5877 166.608 31.0413C168.688 28.1572 171.147 25.8822 174.999 26.0121C177.092 26.0838 178.243 27.4138 177.998 29.3082C177.802 30.8353 176.333 31.6951 174.419 31.3906C174.053 31.3324 173.691 31.2339 173.343 31.104C170.058 29.9128 168.795 30.2755 167.269 33.3387C164.609 38.6724 164.587 44.3778 165.305 50.137C165.515 51.7985 166.818 52.1254 168.179 52.4568C168.679 52.5777 169.072 53.133 169.518 53.4913L169.126 53.9973L169.13 54.0018Z" fill="#01396D"/>
<path d="M129.298 0.0869141C139.634 6.379 144.289 16.9434 141.174 26.7869C130.445 21.4173 125.277 10.0826 129.298 0.0869141Z" fill="#01396D"/>
<path d="M194.988 54.1093H180.56C180.426 53.9167 180.287 53.7286 180.154 53.5361C180.591 53.1644 180.975 52.5732 181.475 52.4568C184.523 51.7358 185.201 50.9745 185.206 47.9337C185.21 43.2448 185.219 38.5515 185.197 33.8627C185.183 30.8622 184.657 30.3337 181.76 29.7605C181.135 29.6351 180.613 29.0037 180.046 28.6006C180.145 28.3856 180.243 28.1707 180.341 27.9557C183.559 27.3108 186.777 26.666 190.271 25.9628C190.325 26.8675 190.405 27.6422 190.405 28.417C190.414 34.8927 190.396 41.3729 190.418 47.8486C190.427 51.064 191.092 51.7761 194.257 52.4747C194.73 52.5777 195.1 53.1554 195.515 53.5182C195.341 53.7152 195.167 53.9123 194.993 54.1138L194.988 54.1093Z" fill="#01396D"/>
<path d="M143.374 22.931C142.486 18.3496 145.981 13.8041 150.198 12.8189C150.43 17.5928 148.06 21.1665 143.374 22.931Z" fill="#01396D"/>
<path d="M187.656 12.1247C189.294 12.1426 190.833 13.6429 190.829 15.2193C190.825 16.9076 189.396 18.2914 187.665 18.2914C185.996 18.2914 184.398 16.8584 184.34 15.3133C184.282 13.6742 185.911 12.1023 187.656 12.1203V12.1247Z" fill="#01396D"/>
</svg>
