<svg width="290" height="92" viewBox="0 0 290 92" fill="none" xmlns="http://www.w3.org/2000/svg">
<path d="M243.306 91.4586C218.179 91.4586 197.743 70.9477 197.743 45.7391C197.743 20.5304 218.184 0.0195312 243.306 0.0195312C255.008 0.0195312 266.129 4.46206 274.627 12.5321C275.069 12.9485 275.086 13.6472 274.671 14.0905C274.252 14.5339 273.56 14.5518 273.118 14.1308C265.031 6.45045 254.445 2.2184 243.306 2.2184C219.393 2.2184 199.939 21.7395 199.939 45.7346C199.939 69.7296 219.393 89.2507 243.306 89.2507C267.218 89.2507 286.672 69.7296 286.672 45.7346C286.672 41.8071 286.15 37.9154 285.124 34.158C284.963 33.5714 285.307 32.9668 285.891 32.8056C286.476 32.6443 287.078 32.9892 287.239 33.5758C288.319 37.5213 288.868 41.61 288.868 45.7346C288.868 70.9432 268.428 91.4541 243.306 91.4541V91.4586Z" fill="#003A70"/>
<path d="M21.242 58.2112V58.2022C21.1082 57.7857 20.9386 57.3737 20.7333 56.9707C20.4387 56.4064 20.0058 55.9272 19.4435 55.5555C18.841 55.1525 18.1447 54.9465 17.3727 54.9465H8.61185V28.8376H6.75972C6.48302 28.8376 6.17507 28.8824 5.8225 28.972C5.57257 29.0347 5.30034 29.1108 5.00578 29.2049C4.64428 29.3213 4.26939 29.4825 3.89896 29.6841C3.51961 29.8945 3.1715 30.1364 2.86356 30.4051C2.46189 30.7589 2.1361 31.2112 1.89956 31.7575C1.67195 32.2815 1.55591 32.8458 1.55591 33.428V61.4804H21.7553L21.4786 59.2905C21.4384 58.977 21.3581 58.6232 21.2376 58.2112H21.242Z" fill="#003A70"/>
<path d="M40.2721 28.7524C39.0894 28.7524 38.0272 29.1286 37.1213 29.872C36.2822 30.5617 35.6529 31.4887 35.2513 32.6217L25.8523 58.7619C25.3747 60.0875 26.3521 61.4803 27.758 61.4803C28.7041 61.4803 29.6502 61.2966 30.5741 60.9294C31.7345 60.4682 32.5824 59.5949 33.0332 58.3723L34.9656 52.6937H43.2668L45.2081 58.3991C45.6098 59.5232 46.4355 60.3786 47.5958 60.8712C48.542 61.2743 49.5238 61.4803 50.5146 61.4803H51.0546C52.456 61.4803 53.4334 60.0875 52.9603 58.7619L42.218 28.7524H40.2766H40.2721ZM37.2061 46.1598L39.1162 40.5663L41.0263 46.1598H37.2105H37.2061Z" fill="#003A70"/>
<path d="M54.4866 29.1152C54.0046 29.3212 53.594 29.5944 53.2682 29.9213C52.9826 30.208 52.7282 30.5483 52.5185 30.9245C52.331 31.2604 52.1837 31.5873 52.0811 31.8918C51.9918 32.165 51.916 32.4516 51.8579 32.7561L51.7731 33.2353C51.7419 33.4279 51.7285 33.5891 51.7285 33.719V35.3715H60.6901V61.655L62.9305 61.431C63.2787 61.3907 63.6759 61.3057 64.1445 61.1668C64.6131 61.028 65.0862 60.8354 65.5458 60.5936C66.1707 60.2712 66.6973 59.783 67.1168 59.1426C67.5542 58.4709 67.7773 57.714 67.7773 56.89V35.376H72.4099C73.2043 35.376 73.9228 35.1655 74.5521 34.7535C75.1278 34.3728 75.5697 33.9205 75.8642 33.4055C76.0829 33.0204 76.2748 32.586 76.431 32.1157C76.6006 31.6007 76.6854 31.2649 76.7122 30.9917C76.7345 30.7946 76.739 30.611 76.739 30.4543V28.8018H56.0933C55.5131 28.8018 54.9686 28.9092 54.4777 29.1197L54.4866 29.1152Z" fill="#003A70"/>
<path d="M86.8029 28.9539C83.0764 29.7332 82.5185 32.0933 82.5185 33.4323V61.6773L84.7009 61.4355C85.0847 61.3952 85.4997 61.3101 85.9728 61.1668C86.4504 61.0234 86.9234 60.8264 87.3787 60.5801C87.9812 60.2577 88.4944 59.7695 88.905 59.1381C89.3424 58.4663 89.5655 57.7095 89.5655 56.8854V28.7927H87.9187C87.6152 28.7927 87.2626 28.842 86.7985 28.9539H86.8029Z" fill="#003A70"/>
<path d="M97.4516 29.1152C96.9696 29.3212 96.559 29.5944 96.2332 29.9213C95.9476 30.208 95.6932 30.5483 95.4834 30.9245C95.296 31.2604 95.1487 31.5873 95.0461 31.8918C94.9568 32.165 94.8809 32.4516 94.8229 32.7561L94.7381 33.2353C94.7069 33.4279 94.6935 33.5891 94.6935 33.719V35.3715H103.655V61.655L105.896 61.431C106.244 61.3907 106.641 61.3057 107.109 61.1668C107.578 61.028 108.051 60.8354 108.511 60.5936C109.136 60.2712 109.662 59.783 110.082 59.1426C110.519 58.4709 110.742 57.714 110.742 56.89V35.376H115.375C116.169 35.376 116.888 35.1655 117.517 34.7535C118.093 34.3728 118.535 33.9205 118.829 33.4055C119.048 33.0204 119.24 32.586 119.396 32.1157C119.566 31.6007 119.65 31.2649 119.677 30.9917C119.699 30.7946 119.704 30.611 119.704 30.4543V28.8018H99.0583C98.4781 28.8018 97.9336 28.9092 97.4427 29.1197L97.4516 29.1152Z" fill="#003A70"/>
<path d="M148.24 28.9093C144.473 29.6841 143.911 32.0487 143.911 33.3877V48.0991C143.911 49.6038 143.741 50.8891 143.411 51.9236C143.13 52.8058 142.755 53.4597 142.331 53.8135C141.818 54.2434 141.323 54.539 140.863 54.6957C140.042 54.9734 139.002 55.0047 138.051 54.8435C137.69 54.7808 137.288 54.6599 136.869 54.4852C136.516 54.3419 136.195 54.1269 135.882 53.8359C135.534 53.5089 135.208 53.1014 134.909 52.6312C134.641 52.2013 134.418 51.6012 134.253 50.8533C134.075 50.0337 133.981 49.1112 133.981 48.0991V32.9712C133.981 32.5592 133.923 32.1561 133.802 31.7755C133.673 31.3545 133.477 30.9828 133.213 30.6559C133.026 30.4275 132.807 30.2081 132.562 30.002C132.298 29.7826 132.026 29.6035 131.749 29.4646C131.522 29.3527 131.263 29.2452 130.968 29.1467C130.683 29.0526 130.446 28.9899 130.254 28.9496L129.79 28.8601C129.487 28.8063 129.295 28.7929 129.107 28.7929C128.197 28.7929 127.461 29.5318 127.461 30.4454V48.7619C127.461 50.1636 127.608 51.4758 127.902 52.658C128.201 53.8717 128.608 54.9286 129.107 55.7974C129.603 56.6662 130.201 57.4499 130.879 58.1306C131.553 58.8068 132.263 59.3666 132.981 59.7921C133.686 60.213 134.445 60.5534 135.231 60.8086C135.989 61.0594 136.708 61.2341 137.364 61.3281C138.002 61.4222 138.631 61.4714 139.234 61.4714C139.935 61.4714 140.68 61.3998 141.452 61.2565C142.215 61.1177 143.045 60.8803 143.916 60.5623C144.871 60.2085 145.772 59.6846 146.598 59.0039C147.388 58.3545 148.115 57.5842 148.771 56.7065C149.467 55.7795 150.021 54.6016 150.423 53.2089C150.806 51.8654 151.003 50.3651 151.003 48.7529V30.4364C151.003 29.5229 150.266 28.7839 149.356 28.7839C149.035 28.7839 148.677 28.8198 148.24 28.9004V28.9093Z" fill="#003A70"/>
<path d="M183.203 36.9209C181.976 34.4578 180.079 32.456 177.571 30.9736C175.08 29.5002 172.112 28.7568 168.743 28.7568C167.426 28.7568 166.11 29.0703 164.816 29.6839C163.521 30.3019 162.464 31.1751 161.7 32.2365C161.629 32.2813 161.464 32.3753 161.142 32.5142C160.415 32.8232 159.763 33.1814 159.201 33.5755C158.3 34.2159 157.804 35.1206 157.804 36.1282V57.0376C157.804 59.4963 159.79 61.4846 162.236 61.4846H168.743C171.644 61.4846 174.375 60.7457 176.861 59.2903C179.342 57.8393 181.342 55.824 182.806 53.3072C184.27 50.7814 185.01 48.0138 185.01 45.0804C185.01 42.1471 184.403 39.3302 183.203 36.9254V36.9209ZM173.907 36.7014C174.679 37.1806 175.366 37.7897 175.951 38.5107C176.522 39.2183 176.995 40.1408 177.361 41.2425C177.731 42.3666 177.919 43.6563 177.919 45.076C177.919 47.9331 177.004 50.244 175.116 52.1338C173.233 54.0237 170.863 54.9463 167.877 54.9463H164.856V38.2823C164.856 37.7628 164.985 37.3015 165.248 36.8761C165.512 36.4506 165.949 36.0834 166.547 35.7834C167.806 35.1519 169.76 35.1698 171.479 35.6311C172.295 35.8505 173.117 36.2133 173.911 36.7059L173.907 36.7014Z" fill="#003A70"/>
<path d="M163.24 28.7748L168.743 28.7524L157.804 37.221V33.4502C158.063 30.8394 160.625 28.7883 163.24 28.7748Z" fill="#003A70"/>
<path d="M0.743652 87.4993V80.9609H2.32801V86.2543H5.16198V87.4993H0.748113H0.743652Z" fill="#003A70"/>
<path d="M12.7802 87.6381C12.1331 87.6381 11.5752 87.5172 11.1022 87.2709C10.6246 87.0246 10.2587 86.6529 9.99535 86.1469C9.73203 85.6453 9.59814 85.0049 9.59814 84.2346C9.59814 83.115 9.87931 82.2731 10.4372 81.6954C10.9951 81.1177 11.7805 80.8311 12.7802 80.8311C13.4229 80.8311 13.9852 80.952 14.4672 81.1983C14.9448 81.4446 15.3152 81.8163 15.5741 82.3089C15.8329 82.806 15.9668 83.4419 15.9668 84.2212C15.9668 85.3452 15.6901 86.1961 15.1322 86.7694C14.5743 87.3426 13.7933 87.6337 12.7847 87.6337L12.7802 87.6381ZM12.7802 86.335C13.1105 86.335 13.3961 86.2678 13.6237 86.1289C13.8558 85.9901 14.0299 85.7662 14.1504 85.4572C14.2709 85.1482 14.3289 84.7362 14.3289 84.2256C14.3289 83.7151 14.2709 83.2986 14.1504 82.9896C14.0299 82.6806 13.8558 82.4612 13.6237 82.3268C13.3917 82.1925 13.1105 82.1253 12.7802 82.1253C12.45 82.1253 12.1688 82.1925 11.9412 82.3313C11.7136 82.4701 11.5395 82.6896 11.419 82.9986C11.2985 83.3076 11.2405 83.7196 11.2405 84.2436C11.2405 84.7675 11.2985 85.1706 11.419 85.4751C11.5395 85.7796 11.7136 85.9991 11.9412 86.1334C12.1688 86.2678 12.45 86.335 12.7802 86.335Z" fill="#003A70"/>
<path d="M22.9781 87.6382C22.6478 87.6382 22.3444 87.6203 22.081 87.589C21.8133 87.5576 21.5678 87.5084 21.3402 87.4412C21.1126 87.374 20.8894 87.2889 20.6752 87.1859V85.6767C20.9742 85.9186 21.3134 86.1022 21.6928 86.2276C22.0721 86.3529 22.4292 86.4157 22.7683 86.4157C23.0674 86.4157 23.295 86.3574 23.4556 86.2455C23.6163 86.1335 23.6966 85.9544 23.6966 85.7215C23.6966 85.5468 23.6252 85.4035 23.478 85.2961C23.3307 85.1886 23.1388 85.0945 22.8978 85.0139C22.6568 84.9333 22.3845 84.8393 22.0855 84.7363C21.8981 84.6781 21.7106 84.6019 21.5276 84.5124C21.3447 84.4228 21.184 84.3063 21.0412 84.163C20.8984 84.0242 20.7823 83.8496 20.6975 83.648C20.6127 83.4465 20.5726 83.1957 20.5726 82.9046C20.5726 82.6359 20.6217 82.3807 20.7198 82.1299C20.818 81.8791 20.9698 81.6596 21.1751 81.4626C21.3804 81.2655 21.6437 81.1133 21.9605 80.9968C22.2774 80.8849 22.6523 80.8267 23.0852 80.8267C23.353 80.8267 23.5895 80.8446 23.7948 80.8759C24.0001 80.9073 24.1965 80.9565 24.3839 81.0192C24.5714 81.0819 24.7633 81.1625 24.9597 81.2611V82.7882C24.8079 82.6628 24.6428 82.5464 24.4553 82.4389C24.2679 82.3314 24.076 82.2418 23.8752 82.1702C23.6743 82.0985 23.4601 82.0582 23.2414 82.0537C23.045 82.0492 22.8665 82.0672 22.7059 82.1119C22.5407 82.1567 22.4158 82.2329 22.3265 82.3314C22.2328 82.4344 22.1882 82.5598 22.1882 82.7165C22.1882 82.9001 22.2417 83.0434 22.3533 83.1464C22.4649 83.2494 22.6166 83.339 22.813 83.4062C23.0093 83.4734 23.228 83.5495 23.469 83.6256C23.7368 83.7018 23.9823 83.7913 24.2054 83.8854C24.4286 83.9794 24.6249 84.1003 24.7945 84.2436C24.9641 84.387 25.0936 84.5616 25.1873 84.7721C25.281 84.9826 25.3256 85.2334 25.3256 85.5289C25.3256 85.923 25.2364 86.2768 25.0534 86.6037C24.8704 86.9262 24.6071 87.1815 24.2634 87.3695C23.9198 87.5576 23.4958 87.6472 22.996 87.6472L22.9781 87.6382Z" fill="#003A70"/>
<path d="M36.5455 87.4993V80.9609H38.1299V83.6076H40.522V80.9609H42.093V87.4993H40.522V84.9019H38.1299V87.4993H36.5455Z" fill="#003A70"/>
<path d="M50.0906 87.6381C49.4435 87.6381 48.8856 87.5172 48.4125 87.2709C47.935 87.0246 47.569 86.6529 47.3057 86.1469C47.0424 85.6453 46.9085 85.0049 46.9085 84.2346C46.9085 83.115 47.1897 82.2731 47.7475 81.6954C48.3054 81.1177 49.0909 80.8311 50.0906 80.8311C50.7333 80.8311 51.2956 80.952 51.7776 81.1983C52.2551 81.4446 52.6256 81.8163 52.8844 82.3089C53.1433 82.806 53.2772 83.4419 53.2772 84.2212C53.2772 85.3452 53.0004 86.1961 52.4426 86.7694C51.8847 87.3426 51.1037 87.6337 50.0951 87.6337L50.0906 87.6381ZM50.0906 86.335C50.4209 86.335 50.7065 86.2678 50.9341 86.1289C51.1662 85.9901 51.3402 85.7662 51.4607 85.4572C51.5812 85.1482 51.6393 84.7362 51.6393 84.2256C51.6393 83.7151 51.5812 83.2986 51.4607 82.9896C51.3402 82.6806 51.1662 82.4612 50.9341 82.3268C50.702 82.1925 50.4209 82.1253 50.0906 82.1253C49.7603 82.1253 49.4792 82.1925 49.2516 82.3313C49.024 82.4701 48.8499 82.6896 48.7294 82.9986C48.6089 83.3076 48.5509 83.7196 48.5509 84.2436C48.5509 84.7675 48.6089 85.1706 48.7294 85.4751C48.8499 85.7796 49.024 85.9991 49.2516 86.1334C49.4792 86.2678 49.7603 86.335 50.0906 86.335Z" fill="#003A70"/>
<path d="M58.1016 87.4993V80.9609H61.2748C62.0112 80.9609 62.5869 81.1311 63.002 81.4759C63.417 81.8208 63.6268 82.3403 63.6268 83.0389C63.6268 83.3255 63.5688 83.6076 63.4527 83.8853C63.3367 84.163 63.1626 84.4003 62.935 84.6018C62.7074 84.8034 62.4218 84.9288 62.0737 84.987L61.9755 84.4496L63.9571 87.4993H61.9443L60.3108 84.6466L61.016 85.2422H59.6771V87.4949H58.0927L58.1016 87.4993ZM59.686 84.0779H61.016C61.2971 84.0779 61.5158 84.0017 61.6809 83.854C61.8416 83.7017 61.9264 83.4554 61.9264 83.1105C61.9264 82.8105 61.855 82.5821 61.7077 82.4254C61.5604 82.2686 61.3551 82.188 61.0874 82.188H59.6905V84.0779H59.686Z" fill="#003A70"/>
<path d="M68.7369 87.4993V80.9609H70.0847L73.4364 85.4885L72.9678 86.4693V80.9609H74.4227V87.4993H73.2311L69.8214 83.0299L70.1918 82.3134V87.4993H68.7369Z" fill="#003A70"/>
<path d="M82.4248 87.6381C81.7776 87.6381 81.2198 87.5172 80.7467 87.2709C80.2692 87.0246 79.9032 86.6529 79.6399 86.1469C79.3766 85.6453 79.2427 85.0049 79.2427 84.2346C79.2427 83.115 79.5238 82.2731 80.0817 81.6954C80.6396 81.1177 81.4251 80.8311 82.4248 80.8311C83.0674 80.8311 83.6298 80.952 84.1118 81.1983C84.5893 81.4446 84.9597 81.8163 85.2186 82.3089C85.4774 82.806 85.6113 83.4419 85.6113 84.2212C85.6113 85.3452 85.3346 86.1961 84.7767 86.7694C84.2189 87.3426 83.4379 87.6337 82.4292 87.6337L82.4248 87.6381ZM82.4248 86.335C82.755 86.335 83.0407 86.2678 83.2683 86.1289C83.5003 85.9901 83.6744 85.7662 83.7949 85.4572C83.9154 85.1482 83.9734 84.7362 83.9734 84.2256C83.9734 83.7151 83.9154 83.2986 83.7949 82.9896C83.6744 82.6806 83.5003 82.4612 83.2683 82.3268C83.0362 82.1925 82.755 82.1253 82.4248 82.1253C82.0945 82.1253 81.8133 82.1925 81.5857 82.3313C81.3581 82.4701 81.1841 82.6896 81.0636 82.9986C80.9431 83.3076 80.885 83.7196 80.885 84.2436C80.885 84.7675 80.9431 85.1706 81.0636 85.4751C81.1841 85.7796 81.3581 85.9991 81.5857 86.1334C81.8133 86.2678 82.0945 86.335 82.4248 86.335Z" fill="#003A70"/>
<path d="M92.6227 87.6382C92.2924 87.6382 91.989 87.6203 91.7256 87.589C91.4579 87.5576 91.2124 87.5084 90.9848 87.4412C90.7572 87.374 90.534 87.2889 90.3198 87.1859V85.6767C90.6188 85.9186 90.958 86.1022 91.3374 86.2276C91.7167 86.3529 92.0738 86.4157 92.4129 86.4157C92.712 86.4157 92.9396 86.3574 93.1002 86.2455C93.2609 86.1335 93.3412 85.9544 93.3412 85.7215C93.3412 85.5468 93.2698 85.4035 93.1226 85.2961C92.9753 85.1886 92.7834 85.0945 92.5424 85.0139C92.3014 84.9333 92.0291 84.8393 91.7301 84.7363C91.5427 84.6781 91.3552 84.6019 91.1722 84.5124C90.9893 84.4228 90.8286 84.3063 90.6858 84.163C90.543 84.0242 90.4269 83.8496 90.3421 83.648C90.2573 83.4465 90.2172 83.1957 90.2172 82.9046C90.2172 82.6359 90.2662 82.3807 90.3644 82.1299C90.4626 81.8791 90.6144 81.6596 90.8197 81.4626C91.025 81.2655 91.2883 81.1133 91.6051 80.9968C91.922 80.8849 92.2969 80.8267 92.7298 80.8267C92.9976 80.8267 93.2341 80.8446 93.4394 80.8759C93.6447 80.9073 93.8411 80.9565 94.0285 81.0192C94.216 81.0819 94.4079 81.1625 94.6042 81.2611V82.7882C94.4525 82.6628 94.2874 82.5464 94.0999 82.4389C93.9125 82.3314 93.7206 82.2418 93.5198 82.1702C93.3189 82.0985 93.1047 82.0582 92.886 82.0537C92.6896 82.0492 92.5111 82.0672 92.3505 82.1119C92.1853 82.1567 92.0604 82.2329 91.9711 82.3314C91.8774 82.4344 91.8328 82.5598 91.8328 82.7165C91.8328 82.9001 91.8863 83.0434 91.9979 83.1464C92.1095 83.2494 92.2612 83.339 92.4576 83.4062C92.6539 83.4734 92.8726 83.5495 93.1136 83.6256C93.3814 83.7018 93.6269 83.7913 93.85 83.8854C94.0732 83.9794 94.2695 84.1003 94.4391 84.2436C94.6087 84.387 94.7381 84.5616 94.8319 84.7721C94.9256 84.9826 94.9702 85.2334 94.9702 85.5289C94.9702 85.923 94.881 86.2768 94.698 86.6037C94.515 86.9262 94.2517 87.1815 93.908 87.3695C93.5644 87.5576 93.1404 87.6472 92.6405 87.6472L92.6227 87.6382Z" fill="#003A70"/>
<path d="M99.8125 88.5965L100.535 86.6753H101.727L100.83 88.5965H99.8125Z" fill="#003A70"/>
<path d="M113.331 87.4993V80.9609H114.915V86.2543H117.749V87.4993H113.335H113.331Z" fill="#003A70"/>
<path d="M121.895 87.4993L124.359 80.9609H126.086L128.393 87.4993H126.773L124.694 81.3326L125.466 81.2655L123.395 87.4993H121.9H121.895ZM123.283 86.0886L123.605 84.9243H126.564L126.711 86.0886H123.283Z" fill="#003A70"/>
<path d="M140.916 85.3542V87.4993H139.332V80.9609H142.264C143.027 80.9609 143.625 81.1356 144.063 81.4804C144.5 81.8252 144.719 82.3627 144.719 83.0882C144.719 83.8136 144.5 84.3734 144.063 84.7631C143.625 85.1572 143.027 85.3497 142.264 85.3497H140.916V85.3542ZM140.916 84.1271H142.068C142.237 84.1271 142.38 84.1047 142.501 84.06C142.621 84.0152 142.719 83.948 142.791 83.8629C142.862 83.7778 142.916 83.6793 142.951 83.5629C142.987 83.4464 143.005 83.3255 143.005 83.1956C143.005 83.0389 142.987 82.9001 142.951 82.7836C142.916 82.6672 142.862 82.5597 142.791 82.4701C142.719 82.3806 142.621 82.3089 142.501 82.2641C142.38 82.2193 142.237 82.197 142.068 82.197H140.916V84.1271Z" fill="#003A70"/>
<path d="M149.53 87.4993V80.9609H151.114V86.2543H153.948V87.4993H149.534H149.53Z" fill="#003A70"/>
<path d="M158.094 87.4993L160.558 80.9609H162.285L164.592 87.4993H162.972L160.893 81.3326L161.665 81.2655L159.594 87.4993H158.099H158.094ZM159.482 86.0886L159.804 84.9243H162.763L162.91 86.0886H159.482Z" fill="#003A70"/>
<path d="M169.908 87.4993V82.188H168.082V80.9609H173.349V82.188H171.492V87.4993H169.908Z" fill="#003A70"/>
<path d="M176.83 87.4993L179.293 80.9609H181.021L183.328 87.4993H181.708L179.628 81.3326L180.4 81.2655L178.329 87.4993H176.834H176.83ZM178.218 86.0886L178.539 84.9243H181.498L181.645 86.0886H178.218Z" fill="#003A70"/>
<path d="M282.798 13.9426C282.812 13.8485 282.687 13.8082 282.647 13.8933C281.879 15.5145 279.273 21.1124 278.724 23.6785C278.246 25.9221 277.519 31.5559 277.18 34.3056C277.157 34.4937 277.425 34.5609 277.483 34.3773C278.295 31.959 279.893 27.2343 280.674 25.2997C281.598 23.0157 282.548 15.8951 282.794 13.9426H282.798Z" fill="#003A70"/>
<path d="M289.854 27.1269C289.948 27.1403 289.988 27.0149 289.904 26.9746C288.288 26.2043 282.709 23.589 280.152 23.0381C277.916 22.559 272.302 21.829 269.561 21.4886C269.374 21.4662 269.307 21.7349 269.49 21.7932C271.9 22.6082 276.608 24.2115 278.536 24.9952C280.812 25.9222 287.909 26.8761 289.854 27.1224V27.1269Z" fill="#003A70"/>
<path d="M232.47 29.917C229.939 29.0392 226.98 29.1333 224.887 29.5184C221.843 30.0782 219.197 31.0276 217.586 33.3967C215.412 36.5942 215.492 39.0528 217.139 40.1321C218.786 41.2114 220.076 40.3157 220.647 39.8455C221.343 39.2723 222.437 35.1298 225.088 34.6864C227.739 34.2431 234.036 34.673 234.398 38.1213C234.759 41.5696 231.827 42.7654 230.613 43.1236C229.399 43.4819 226.047 42.64 224.976 44.2029C224.722 44.5746 224.191 47.8662 225.998 48.2155C229.408 48.8783 233.456 48.3275 234.433 50.1188C235.558 52.1744 234.822 55.6227 232.603 56.4871C230.385 57.3514 224.775 57.3514 223.316 56.084C221.937 54.8883 220.357 52.367 219.692 51.0727C219.121 49.9576 216.425 49.7247 215.64 51.4489C214.854 53.1731 214.863 54.8614 216.796 57.7365C218.728 60.6116 224.24 62.5507 229.109 62.1208C233.978 61.6909 239.061 59.2457 240.066 56.1557C241.07 53.0656 240.664 49.456 239.78 48.4574C238.437 46.9392 235.808 45.6629 235.808 45.6629C235.808 45.6629 240.284 43.0789 240.213 39.4872C240.141 35.8956 237.995 32.7339 236.348 31.5829C235.607 31.0679 234.023 30.4454 232.492 29.917H232.47Z" fill="#003A70"/>
<path d="M270.15 48.6454H265.371V33.5041C265.371 33.5041 265.049 30.7006 264.674 30.3244C264.527 30.1767 264.183 29.908 263.817 29.6303C263.157 29.1287 262.224 29.2183 261.671 29.8363L244.444 49.1067C243.788 49.8411 243.44 50.8174 243.538 51.7981C243.582 52.2415 243.685 52.7073 243.895 53.1103C244.537 54.3508 246.689 54.1896 246.689 54.1896L259.631 54.1985L259.471 63.0299C259.471 63.0299 262.211 62.385 263.929 60.9295C265.647 59.4741 265.647 57.2125 265.647 57.2125V53.4417L267.946 53.5089C268.923 53.5357 269.847 52.9804 270.213 52.0668C270.365 51.6951 270.485 51.2787 270.534 50.8532C270.695 49.4515 270.159 48.6454 270.159 48.6454H270.15ZM260.662 38.4437V49.7247H250.353L260.662 37.5838V38.4482V38.4437Z" fill="#003A70"/>
</svg>
