<svg width="300" height="99" viewBox="0 0 300 99" fill="none" xmlns="http://www.w3.org/2000/svg">
<path d="M95.7542 82.875H97.2277L102.368 95.5465L100.804 96.0981L99.0159 91.6001H93.7133L91.8727 96.0981L90.3801 95.5085L95.759 82.875H95.7542ZM96.4552 84.62L94.338 90.1831H98.4628L96.4552 84.62Z" fill="#003A70"/>
<path d="M104.133 86.4743H105.587V88.3858C105.735 87.9816 106.064 87.5061 106.469 87.1162C106.965 86.655 107.408 86.3459 108.109 86.3459C108.348 86.3459 108.553 86.384 108.772 86.4553L108.348 87.8532C108.181 87.8152 108.033 87.7962 107.852 87.7962C107.132 87.8152 106.655 88.2574 106.212 88.7899C105.916 89.137 105.658 89.5412 105.587 89.7076V95.8223H104.133V86.4743Z" fill="#003A70"/>
<path d="M110.284 88.6996L109.659 87.7439C110.193 87.3587 110.58 87.14 111.204 86.8452C111.939 86.5124 112.401 86.2556 113.231 86.2556C114.633 86.2556 115.586 87.1543 115.586 88.6996V93.9156C115.586 94.2294 115.586 94.5052 115.787 94.7049C116.082 94.9997 116.764 94.7429 116.855 94.6146L117.222 95.3135C117.074 95.5132 116.283 95.9364 115.639 95.9364C114.385 95.9554 114.294 94.781 114.275 94.5242C114.204 94.6146 114.018 94.781 113.851 94.9284C113.317 95.4039 112.873 96.0125 111.457 96.0125C109.817 96.0125 108.896 94.7619 108.877 93.3308C108.858 91.8805 110.055 90.9058 111.457 90.5397C112.449 90.2829 113.703 90.0072 114.256 90.0452V89.0705C114.256 88.4666 114.328 87.915 113.612 87.6012C112.95 87.3064 112.249 87.5632 111.495 87.896C111.018 88.1147 110.556 88.4476 110.279 88.7043L110.284 88.6996ZM112.053 91.4003C111.171 91.7331 110.341 92.28 110.341 93.2927C110.341 94.1391 111.061 94.9094 111.853 94.9094C112.735 94.8903 113.197 94.4149 113.584 94.1201C113.841 93.9346 114.061 93.7349 114.227 93.5305V90.9581C113.932 90.9391 112.845 91.1055 112.053 91.4003Z" fill="#003A70"/>
<path d="M126.101 95.8223H124.628V89.8741C124.628 88.4619 124.461 88.1481 124.003 87.8153C123.45 87.4301 122.458 87.5966 121.867 87.9056C121.423 88.1434 120.393 88.9897 120.284 89.1752V95.8223H118.81V86.4744H120.284V88.053C120.47 87.7963 121.056 87.2447 121.461 86.9499C121.924 86.6171 122.529 86.2319 123.526 86.2319C124.78 86.2319 125.424 86.8548 125.734 87.297C125.972 87.6298 126.101 88.1624 126.101 88.985V95.8176V95.8223Z" fill="#003A70"/>
<path d="M129.382 88.6996L128.757 87.7439C129.291 87.3587 129.677 87.14 130.302 86.8452C131.037 86.5124 131.499 86.2556 132.329 86.2556C133.731 86.2556 134.684 87.1543 134.684 88.6996V93.9156C134.684 94.2294 134.684 94.5052 134.885 94.7049C135.18 94.9997 135.862 94.7429 135.953 94.6146L136.32 95.3135C136.172 95.5132 135.381 95.9364 134.737 95.9364C133.483 95.9554 133.392 94.781 133.373 94.5242C133.302 94.6146 133.116 94.781 132.949 94.9284C132.415 95.4039 131.971 96.0125 130.555 96.0125C128.915 96.0125 127.994 94.7619 127.975 93.3308C127.956 91.8805 129.153 90.9058 130.555 90.5397C131.547 90.2829 132.801 90.0072 133.354 90.0452V89.0705C133.354 88.4666 133.426 87.915 132.71 87.6012C132.047 87.3064 131.346 87.5632 130.593 87.896C130.116 88.1147 129.654 88.4476 129.377 88.7043L129.382 88.6996ZM131.151 91.4003C130.269 91.7331 129.439 92.28 129.439 93.2927C129.439 94.1391 130.159 94.9094 130.951 94.9094C131.833 94.8903 132.295 94.4149 132.682 94.1201C132.939 93.9346 133.159 93.7349 133.325 93.5305V90.9581C133.03 90.9391 131.943 91.1055 131.151 91.4003Z" fill="#003A70"/>
<path d="M137.927 93.9868H139.863L138.499 98.5609H137.779L137.927 93.9868Z" fill="#003A70"/>
<path d="M148.203 82.875H149.824V94.4815H155.146V95.8223H148.203V82.875Z" fill="#003A70"/>
<path d="M157.335 88.6996L156.71 87.7439C157.244 87.3587 157.631 87.14 158.255 86.8452C158.99 86.5124 159.452 86.2556 160.282 86.2556C161.684 86.2556 162.637 87.1543 162.637 88.6996V93.9156C162.637 94.2294 162.637 94.5052 162.838 94.7049C163.133 94.9997 163.815 94.7429 163.906 94.6146L164.273 95.3135C164.125 95.5132 163.334 95.9364 162.69 95.9364C161.436 95.9554 161.345 94.781 161.326 94.5242C161.255 94.6146 161.069 94.781 160.902 94.9284C160.368 95.4039 159.924 96.0125 158.508 96.0125C156.868 96.0125 155.947 94.7619 155.928 93.3308C155.909 91.8805 157.106 90.9058 158.508 90.5397C159.5 90.2829 160.754 90.0072 161.307 90.0452V89.0705C161.307 88.4666 161.379 87.915 160.663 87.6012C160 87.3064 159.3 87.5632 158.546 87.896C158.069 88.1147 157.607 88.4476 157.33 88.7043L157.335 88.6996ZM159.104 91.4003C158.222 91.7331 157.392 92.28 157.392 93.2927C157.392 94.1391 158.112 94.9094 158.904 94.9094C159.786 94.8903 160.248 94.4149 160.635 94.1201C160.892 93.9346 161.112 93.7349 161.278 93.5305V90.9581C160.983 90.9391 159.896 91.1055 159.104 91.4003Z" fill="#003A70"/>
<path d="M175.126 90.516H173.267V95.8223H171.683V82.875H175.222C178.297 82.875 179.623 84.4536 179.623 86.7121C179.623 89.836 177.043 90.5112 175.131 90.5112L175.126 90.516ZM173.267 84.0875V89.2084H175.036C176.342 89.2084 178.021 88.8755 178.021 86.6741C178.021 84.891 176.805 84.0827 174.926 84.0827H173.267V84.0875Z" fill="#003A70"/>
<path d="M181.497 81.7385H183.009V95.8222H181.497V81.7385Z" fill="#003A70"/>
<path d="M186.304 88.6996L185.679 87.7439C186.213 87.3587 186.599 87.14 187.224 86.8452C187.958 86.5124 188.421 86.2556 189.251 86.2556C190.652 86.2556 191.606 87.1543 191.606 88.6996V93.9156C191.606 94.2294 191.606 94.5052 191.807 94.7049C192.102 94.9997 192.784 94.7429 192.875 94.6146L193.242 95.3135C193.094 95.5132 192.302 95.9364 191.659 95.9364C190.405 95.9554 190.314 94.781 190.295 94.5242C190.223 94.6146 190.037 94.781 189.87 94.9284C189.336 95.4039 188.893 96.0125 187.477 96.0125C185.836 96.0125 184.916 94.7619 184.897 93.3308C184.878 91.8805 186.075 90.9058 187.477 90.5397C188.469 90.2829 189.723 90.0072 190.276 90.0452V89.0705C190.276 88.4666 190.347 87.915 189.632 87.6012C188.969 87.3064 188.268 87.5632 187.515 87.896C187.038 88.1147 186.575 88.4476 186.299 88.7043L186.304 88.6996ZM188.073 91.4003C187.191 91.7331 186.361 92.28 186.361 93.2927C186.361 94.1391 187.081 94.9094 187.872 94.9094C188.755 94.8903 189.217 94.4149 189.603 94.1201C189.861 93.9346 190.08 93.7349 190.247 93.5305V90.9581C189.952 90.9391 188.864 91.1055 188.073 91.4003Z" fill="#003A70"/>
<path d="M195.183 82.97L196.694 82.989V86.479H199.179V87.5061H196.656V92.7601C196.656 93.4781 196.508 94.2293 197.114 94.5955C197.591 94.8903 198.053 94.6715 198.53 94.4481C198.697 94.3767 198.769 94.3197 198.974 94.1723L199.417 95.0709C199.198 95.2564 198.697 95.6035 198.22 95.7509C197.834 95.8602 197.519 95.9173 197.095 95.9173C195.364 95.9173 195.144 94.4861 195.144 93.1975V87.5061H193.614V86.479H195.178V82.97H195.183Z" fill="#003A70"/>
<path d="M201.649 88.6996L201.024 87.7439C201.558 87.3587 201.944 87.14 202.569 86.8452C203.303 86.5124 203.766 86.2556 204.596 86.2556C205.998 86.2556 206.951 87.1543 206.951 88.6996V93.9156C206.951 94.2294 206.951 94.5052 207.152 94.7049C207.447 94.9997 208.129 94.7429 208.22 94.6146L208.587 95.3135C208.439 95.5132 207.648 95.9364 207.004 95.9364C205.75 95.9554 205.659 94.781 205.64 94.5242C205.568 94.6146 205.383 94.781 205.216 94.9284C204.682 95.4039 204.238 96.0125 202.822 96.0125C201.181 96.0125 200.261 94.7619 200.242 93.3308C200.223 91.8805 201.42 90.9058 202.822 90.5397C203.814 90.2829 205.068 90.0072 205.621 90.0452V89.0705C205.621 88.4666 205.692 87.915 204.977 87.6012C204.314 87.3064 203.613 87.5632 202.86 87.896C202.383 88.1147 201.921 88.4476 201.644 88.7043L201.649 88.6996ZM203.418 91.4003C202.536 91.7331 201.706 92.28 201.706 93.2927C201.706 94.1391 202.426 94.9094 203.218 94.9094C204.1 94.8903 204.562 94.4149 204.949 94.1201C205.206 93.9346 205.425 93.7349 205.592 93.5305V90.9581C205.297 90.9391 204.209 91.1055 203.418 91.4003Z" fill="#003A70"/>
<path d="M210.175 93.9868H211.944V95.8222H210.175V93.9868Z" fill="#003A70"/>
<path d="M73.2182 13.8116C73.2182 13.8116 96.4838 4.01669 98.4484 3.60302C100.413 3.18935 106.617 0.71686 110.446 0.81671C114.275 0.916561 123.064 4.11654 125.438 5.14833C127.813 6.18012 133.297 8.96168 137.021 8.03449C140.745 7.10731 146.329 2.57123 166.595 0.811958C183.786 -0.676293 199.169 9.16613 200.514 9.78426C201.859 10.4024 224.714 22.3654 224.714 22.3654C224.714 22.3654 219.335 23.0882 214.681 21.4383C210.027 19.7883 196.48 13.241 193.38 11.5673C190.276 9.88886 179.213 5.24818 170.424 5.24818C161.636 5.24818 133.302 13.3932 128.853 14.8386C124.403 16.2841 112.306 19.9928 105.277 21.2338C98.2482 22.4748 95.3489 22.5271 95.3489 22.5271L128.647 10.7162C128.647 10.7162 123.579 7.21191 117.995 6.07552C112.411 4.93912 110.136 4.53021 103.827 5.87106C97.5186 7.21191 84.0761 12.8844 79.8369 13.3979C75.5977 13.9114 73.2182 13.8116 73.2182 13.8116Z" fill="#003A70"/>
<path d="M15.8768 72.7901H0.660425C0.536443 72.7901 0.45538 72.5904 0.498297 72.4383L1.51876 69.7613V39.459L0.784404 37.6902C0.741487 37.5904 0.784408 37.4382 0.90839 37.4382H7.80366C7.92765 37.4382 8.00871 37.6379 7.96579 37.7901L6.94533 40.467V66.9322H12.3719C13.5545 66.8324 15.2235 66.2048 16.0007 65.8481C16.1629 65.7958 16.325 65.9004 16.2869 66.1525C16.2439 67.1129 15.6669 68.4395 15.8338 69.904C16.1581 72.5286 16.3345 72.5905 15.8863 72.7901H15.8768Z" fill="#003A70"/>
<path d="M18.3611 55.0642C18.3611 43.1962 21.8279 36.8818 28.8042 36.8818C35.1702 36.8818 39.2043 42.9918 39.2043 55.0642C39.2043 67.1366 35.5326 73.2465 28.8042 73.2465C21.4607 73.2465 18.3611 66.528 18.3611 55.0642ZM33.7825 55.0642C33.7825 47.2853 32.1898 42.9442 28.9282 42.9442C26.234 42.9442 23.7877 46.3772 23.7877 55.0642C23.7877 62.4389 25.2135 67.1842 28.766 67.1842C32.3186 67.1842 33.7825 62.7384 33.7825 55.0642Z" fill="#003A70"/>
<path d="M68.6881 72.8994H61.1968C61.0633 72.8994 60.9726 72.7995 61.0156 72.6997L61.8214 70.9309V53.709C61.1491 54.5173 56.6619 64.4644 56.4378 64.4644H55.9466C55.7225 64.4644 51.2353 54.5173 50.563 53.709V71.0308L51.3259 72.6949C51.3688 72.7948 51.3259 72.8946 51.1924 72.8946H43.6534C43.5199 72.8946 43.4293 72.6949 43.4722 72.5428L44.5928 69.8658V39.5635L43.7869 37.7947C43.744 37.6949 43.7869 37.5427 43.9204 37.5427H50.6965C50.83 37.5427 51.0112 37.7424 50.9635 37.8946L50.5582 40.3195V41.4322L56.166 52.8437L61.8214 41.3798V40.3195L61.4161 37.8946C61.3732 37.7424 61.5496 37.5427 61.6832 37.5427H68.4592C68.5498 37.5427 68.6404 37.6949 68.5927 37.7947L67.7869 39.5635V69.8658L68.9075 72.5428C68.9504 72.6949 68.8646 72.8946 68.6834 72.8946L68.6881 72.8994Z" fill="#003A70"/>
<path d="M93.6418 72.7901H86.3888C86.2553 72.7901 86.1695 72.6903 86.2124 72.5905L86.7417 70.8217L85.5925 64.6547H79.3982L78.249 70.8217L78.7354 72.5905C78.7783 72.6903 78.6925 72.7901 78.5589 72.7901H71.3489C71.1725 72.7901 71.0819 72.5904 71.2154 72.4383L72.7175 69.7613L77.4956 39.459L77.0092 37.6902C76.9663 37.5904 77.0521 37.4382 77.1427 37.4382H87.848C87.9386 37.4382 88.0245 37.5904 88.0245 37.6902L87.4951 39.459L92.2732 69.7613L93.823 72.4383C93.9136 72.5904 93.823 72.7901 93.6465 72.7901H93.6418ZM84.7485 58.2452L82.493 44.0046L80.2375 58.2452H84.7485Z" fill="#003A70"/>
<path d="M113.541 63.195C113.541 69.1052 110.847 73.2466 105.463 73.2466C101.3 73.2466 98.0383 71.6823 98.0383 71.6823L96.3265 72.6903C96.1643 72.7426 96.0403 72.638 96.0403 72.4858L95.9974 62.6909V62.3391C95.9974 61.9872 96.0403 61.6306 96.3217 61.6306C96.932 61.6306 100.485 67.2888 104.195 67.2888C105.906 67.2888 108.152 67.0891 108.152 63.8036C108.152 56.6333 95.7495 56.8853 95.7495 46.7338C95.7495 38.703 101.257 36.8867 104.113 36.8867C106.603 36.8867 108.109 37.695 109.416 37.8947L111.128 36.8867C111.29 36.8344 111.414 36.939 111.414 37.1387V44.6655C111.414 45.3217 111.171 45.626 110.966 45.626C110.842 45.626 110.723 45.5261 110.642 45.4215C109.497 43.705 107.094 42.7969 105.296 42.7969C103.217 42.7969 101.176 44.1615 101.176 46.634C101.176 52.5442 113.536 52.2922 113.536 63.1997L113.541 63.195Z" fill="#003A70"/>
<path d="M148.136 54.9501C148.136 67.3221 143.053 72.928 131.799 72.928H127.327C127.155 72.928 127.064 72.7758 127.155 72.5761L128.199 69.9515V39.6016L127.417 37.8328C127.374 37.733 127.46 37.5808 127.546 37.5808H131.933C143.23 37.5808 148.141 42.8349 148.141 54.9548L148.136 54.9501ZM142.357 55.4065C142.357 47.3281 139.706 43.5909 133.969 43.5909V67.0748C139.749 67.0748 142.357 63.4374 142.357 55.4065Z" fill="#003A70"/>
<path d="M168.016 70.2129C167.664 72.8376 167.926 72.5856 167.449 72.79H151.384C151.255 72.79 151.126 72.5903 151.212 72.4382L152.242 69.8611V39.3591L151.513 37.6949C151.427 37.595 151.513 37.4429 151.641 37.4429H167.449C167.921 37.6426 167.864 37.6901 168.488 40.3148C168.87 41.9124 169.361 42.6446 169.404 43.6051C169.447 43.8571 169.275 44.0092 169.104 43.9094C168.288 43.6051 165.046 43.4529 163.753 43.4054C162.895 43.3531 161.779 43.3531 160.101 43.4054H158.479V51.5884C161.011 51.5884 162.804 51.5361 163.663 51.5361C164.006 51.5361 165.623 50.1287 165.751 50.1287C165.966 50.1287 166.095 50.2808 166.095 50.4805V50.5804C165.108 55.0261 165.99 56.3812 165.861 57.2418C165.818 57.3417 165.775 57.394 165.689 57.394C165.561 57.394 163.272 57.2941 163.062 57.1943C162.289 56.9946 161.917 56.9946 158.479 56.9946V66.9416H163.749C165.036 66.8418 167.225 66.7419 168.04 66.3853C168.212 66.333 168.384 66.4376 168.341 66.6896C168.298 67.6501 168.24 68.4964 168.007 70.2224L168.016 70.2129Z" fill="#003A70"/>
<path d="M204.052 72.7901H196.561C196.422 72.7901 196.332 72.6903 196.38 72.5905L196.928 70.8217L195.741 64.6547H189.346L188.159 70.8217L188.659 72.5905C188.707 72.6903 188.612 72.7901 188.478 72.7901H181.034C180.853 72.7901 180.763 72.5904 180.896 72.4383L182.451 69.7613L187.381 39.459L186.881 37.6902C186.833 37.5904 186.928 37.4382 187.019 37.4382H198.072C198.163 37.4382 198.254 37.5904 198.254 37.6902L197.705 39.459L202.636 69.7613L204.233 72.4383C204.324 72.5904 204.233 72.7901 204.052 72.7901ZM194.873 58.2452L192.546 44.0046L190.219 58.2452H194.877H194.873Z" fill="#003A70"/>
<path d="M226.726 72.79H219.731C219.645 72.79 219.602 72.6902 219.602 72.5903L219.898 70.8215H219.941C219.688 70.0655 219.392 69.3571 219.225 68.9006L216.569 61.3262C215.349 61.5259 214.166 61.5782 213.031 61.5782C213.031 62.5387 213.074 67.8926 213.074 70.8215L213.832 72.5903C213.875 72.6902 213.832 72.79 213.704 72.79H206.622C206.494 72.79 206.37 72.6379 206.455 72.4382L207.509 69.8135V40.4717L206.455 37.7947C206.412 37.6426 206.498 37.4429 206.665 37.4429H212.268C219.135 37.4429 226.636 38.2512 226.636 49.2585C226.636 54.7123 224.485 57.8457 221.662 59.5622C222.211 60.8745 222.969 62.6956 223.98 65.5722C224.485 66.9844 225.076 68.5012 225.539 69.8658L226.846 72.4429C226.931 72.5951 226.846 72.7948 226.717 72.7948L226.726 72.79ZM221.038 49.3584C221.038 43.9046 217.371 43.3483 213.117 43.3483V54.1179C213.117 54.1179 221.038 54.7266 221.038 49.3584Z" fill="#003A70"/>
<path d="M251.208 72.7901H243.631C243.492 72.7901 243.402 72.6903 243.445 72.5905L243.998 70.8217L242.796 64.6547H236.33L235.128 70.8217L235.634 72.5905C235.682 72.6903 235.586 72.7901 235.448 72.7901H227.918C227.733 72.7901 227.642 72.5904 227.78 72.4383L229.349 69.7613L234.337 39.459L233.831 37.6902C233.784 37.5904 233.879 37.4382 233.97 37.4382H245.147C245.238 37.4382 245.333 37.5904 245.333 37.6902L244.78 39.459L249.768 69.7613L251.384 72.4383C251.475 72.5904 251.384 72.7901 251.198 72.7901H251.208ZM241.924 58.2452L239.568 44.0046L237.212 58.2452H241.924Z" fill="#003A70"/>
<path d="M273.901 40.4669V69.8611L274.95 72.4382C275.036 72.5903 274.907 72.79 274.774 72.79H267.43C267.345 72.79 267.254 72.6902 267.297 72.5903L268.084 70.8215V64.1553L260.039 50.6707V70.8215L260.826 72.5903C260.869 72.6902 260.783 72.79 260.693 72.79H253.349C253.215 72.79 253.087 72.5903 253.173 72.4382L254.222 69.8611V39.4589L253.435 37.6901C253.392 37.5903 253.478 37.4381 253.568 37.4381H260.912C261.088 37.4381 261.174 37.6378 261.131 37.79L260.039 40.4669V40.8188L268.084 51.6169V39.4541L267.297 37.6854C267.254 37.5855 267.34 37.4333 267.43 37.4333H274.774C274.95 37.4333 275.036 37.6331 274.993 37.7852L273.901 40.4622V40.4669Z" fill="#003A70"/>
<path d="M299.604 72.7901H292.136C291.998 72.7901 291.907 72.6903 291.955 72.5905L292.503 70.8217L291.321 65.1825H284.945L283.763 70.8217L284.263 72.5905C284.311 72.6903 284.216 72.7901 284.082 72.7901H276.662C276.481 72.7901 276.39 72.5904 276.524 72.4383L278.074 69.7613L282.99 39.459L282.489 37.6902C282.442 37.5904 282.537 37.4382 282.628 37.4382H293.648C293.738 37.4382 293.829 37.5904 293.829 37.6902L293.281 39.459L298.197 69.7613L299.79 72.4383C299.88 72.5904 299.79 72.7901 299.608 72.7901H299.604ZM290.453 58.2452L288.131 44.0046L285.808 58.2452H290.453Z" fill="#003A70"/>
</svg>
