<?xml version="1.0" encoding="UTF-8"?>
<svg id="Capa_1" data-name="Capa 1" xmlns="http://www.w3.org/2000/svg" viewBox="0 0 704.04 196.58">
  <defs>
    <style>
      .cls-1 {
        fill: #003A70;
        stroke-width: 0px;
      }
    </style>
  </defs>
  <path class="cls-1" d="m302.49,85.86c.03,1.04-.08,1.86-.23,2.49,0,.01-.01.02-.01.04-6.65-14.04-19.06-19.06-19.45-19.21.43.25,11.33,6.8,17.76,20.5-.23,0,0,0-.28-.01-4.6-.22-15.74-3.17-24.45-24.87,7.2-.32,14.5,2.19,19.71,6.84,4.4,3.91,6.79,8.83,6.95,14.23Z"/>
  <g>
    <path class="cls-1" d="m261.3,93.3c-.34-.79-.79-1.52-1.37-2.19-1.37-1.57-3.38-2.36-6.01-2.36-2.81,0-5.61,1.16-8.41,3.48-2.81,2.32-5.07,5-6.78,8.03v-10.73h-13.9v14.11h-4.42c-.29-2.12-.81-5.55-1.93-5.81-.09-.02-.23-.04-.41-.06.02.12.06,2.86.06,6.87v20.69c0,2-.33,3.84-.99,5.5-.66,1.66-1.96,3.03-3.91,4.12v1.2h30.4v-1.2c-1.95-1.09-3.25-2.45-3.91-4.08-.66-1.63-.99-3.48-.99-5.54v-21.21c1.14-2,2.45-3.91,3.91-5.71s2.73-3.1,3.82-3.91c-.23.74-.34,1.37-.34,1.89,0,2.46.8,4.38,2.4,5.75,1.23,1.06,2.64,1.71,4.22,1.95.47.07.95.11,1.45.11,2.12,0,3.95-.66,5.5-1.97,1.55-1.32,2.32-3.12,2.32-5.41,0-1.29-.24-2.46-.69-3.52Z"/>
    <path class="cls-1" d="m233.06,49.01h-66.67c-6.18,0-11.52,1.03-16.01,3.09-4.49,2.06-7.91,4.75-10.26,8.07-2.35,3.32-3.52,6.81-3.52,10.48s1.09,6.77,3.26,9.83c2.17,3.06,5.42,5.52,9.75,7.38,4.32,1.86,9.6,2.79,15.84,2.79,2.52,0,4.67-.41,6.44-1.25,1.77-.83,3.1-1.9,3.99-3.22.89-1.32,1.33-2.66,1.33-4.04,0-1.66-.6-3.05-1.8-4.16-1.2-1.12-2.86-1.67-4.98-1.67-1.55,0-2.92.53-4.12,1.59-1.2,1.06-1.8,2.13-1.8,3.22,1.37.17,2.36.73,2.96,1.67.6.94.9,1.93.9,2.96,0,1.2-.46,2.2-1.37,3.01-.92.8-2.18,1.2-3.78,1.2-2.92,0-5.25-1.47-7-4.42-1.75-2.95-2.62-6.54-2.62-10.78,0-5.27.96-9.75,2.88-13.44,1.92-3.69,4.32-6.45,7.21-8.29,2.89-1.83,5.74-2.75,8.54-2.75,2.35,0,4.28.63,5.8,1.89,1.52,1.26,2.28,3.03,2.28,5.32v45.04c2.31-2.78,6.59-5.42,9.8-7.16,6.7,23.38-2.86,38.43-9.2,39.16-.66.08-1.16.71-1.74,1.04-.32.18-.64.36-.97.52h27.61v-1.2c-1.95-1.09-3.25-2.45-3.91-4.08-.66-1.63-.99-3.48-.99-5.54v-29.99h4.89c2.47,0,9.87.11,11.91.33.18.02,1.65.33,2.81,1.78.63.79,1.05,2.39,1.34,4.51h1.02v-20.15h-1.2c-.29,2.06-.67,3.54-1.16,4.42-.49.89-1.3,1.47-2.45,1.76-1.15.29-9.65.43-12.28.43h-4.89v-29.97h20.73c2.12,0,3.99.82,5.62,2.45,1.63,1.63,3.28,4.39,4.94,8.29h1.72l-.86-20.12Z"/>
  </g>
  <g>
    <path class="cls-1" d="m317.18,64.91c.23,0,.45-.05.66-.15-.21.09-.43.14-.66.15Z"/>
    <path class="cls-1" d="m355.53,53.32c-.71-1.07-1.56-1.99-2.56-2.77-1-.78-2.37-1.72-4.09-2.82-1.62-1.07-2.89-1.95-3.81-2.64-.92-.69-1.69-1.5-2.33-2.43-.64-.93-.96-1.95-.96-3.06,0-.79.25-1.39.75-1.79.5-.4,1.17-.6,1.99-.6,1.17,0,2.44.35,3.81,1.06,1.36.71,2.52,1.68,3.47,2.9.95,1.23,1.42,2.56,1.42,4.01h.73v-8.75h-.73c0,.52-.1.89-.31,1.11-.21.22-.54.34-.98.34-.48,0-1.47-.22-2.95-.67-1.17-.38-2.25-.68-3.24-.91-.98-.22-1.98-.34-2.98-.34-2.21,0-4.21.31-5.98.93-1.78.62-3.19,1.53-4.25,2.72-.11.13-.22.26-.32.39-.84,1.1-1.26,2.38-1.26,3.83,0,1.28.58,2.64,1.74,4.09.95,1.19,2.03,2.31,3.21,3.35.26.22.51.45.78.67,1.5,1.23,3.43,2.72,5.78,4.48l.88.62c1,.73,1.73,1.49,2.18,2.31.45.81.67,1.56.67,2.25,0,1.31-.78,1.97-2.33,1.97-1.24,0-2.7-.42-4.38-1.27-.76-.39-1.48-.84-2.17-1.34.05.38.09.78.09,1.19,0,.54-.05,1.09-.14,1.63.7.08,1.48.18,2.35.31.41.03,1.04.1,1.89.21.85.1,1.55.17,2.1.21.34.03.86.05,1.55.05,2.52,0,4.64-.35,6.35-1.06,1.71-.71,2.99-1.64,3.83-2.8.85-1.16,1.27-2.43,1.27-3.81s-.35-2.5-1.06-3.57Z"/>
    <path class="cls-1" d="m308.37,63.41c2.69,1,5.34,1.5,7.93,1.5.3,0,.56,0,.8,0,.03,0,.05,0,.07,0,.23,0,.45-.05.66-.15-.21.09-.43.14-.66.15,1.34-.03,1.95-.16,3.81-.73-.2-.11-1.05-1.3-.92-3.12.04-.53.17-1.11.42-1.73.21-.53.51-1.09.94-1.68.59-.82,1.28-1.55,2.25-2.12,3.38-1.98,7.8-.79,9.08.43.72-1.35,1.02-2.54,1.12-4.06-1.19-1.04-2.26-2.15-3.21-3.35-1.16-1.45-1.74-2.81-1.74-4.09,0-1.45.03-3.1.87-4.2-1.73-1.72-3.36-2.59-5.65-3.36-2.68-.9-5.29-1.35-7.85-1.35-2.69,0-5.37.45-8.03,1.35-2.66.9-4.91,2.44-6.76,4.64-1.85,2.19-2.77,5.1-2.77,8.73,0,3.39.93,6.17,2.8,8.37,1.87,2.19,4.14,3.79,6.84,4.79Zm4.33-22.79c.88-2.69,2.1-4.04,3.65-4.04.83,0,1.53.53,2.12,1.58.35.62.65,1.42.91,2.41.71,2.66,1.06,5.82,1.06,9.48s-.36,6.97-1.09,9.71c-.73,2.75-1.73,4.12-3,4.12-.71,0-1.34-.3-1.91-.86-.68-.67-1.26-1.73-1.74-3.21-.88-2.71-1.32-5.91-1.32-9.61s.44-6.89,1.32-9.58Z"/>
    <path class="cls-1" d="m330.54,56.39c-.62-.12-1.28-.2-2-.2-1.35,0-2.51.28-3.5.83-.98.55-1.74,1.26-2.25,2.12-.52.86-.78,1.74-.78,2.64,0,1.21.41,2.21,1.22,3,.24.23.51.43.81.59.73.4,1.64.6,2.73.6.83,0,1.49-.27,1.99-.8.5-.54.77-1.06.8-1.58-.38-.02-.67-.12-.88-.3-.27-.23-.42-.6-.42-1.1,0-.73.3-1.44.91-2.15.39-.46.85-.76,1.36-.92.27-.09.55-.14.85-.14.63,0,1.11.13,1.51.44,2.64,2.02-.46,7.26-4.59,9.46-5.39,2.86-13.31,2.88-18.37.86-5.06-2.02-16.31-11.12-16.31-15.75v-23.42c0-1.24.2-2.36.6-3.34.4-.98,1.18-1.8,2.36-2.46v-.73h-18.34v.73c1.17.66,1.96,1.49,2.36,2.49.4,1,.6,2.11.6,3.32v23.88c0,1.31-.49,2.29-.6,3.19-.27,2.2-4.06,2.11-4.86,2.63v.78c15.86-1.02,24.53,13.84,42.1,15.34,3.58.31,7.74-.67,10.31-1.99,2.57-1.33,4.51-3,5.83-5.03.97-1.49,1.58-2.99,1.83-4.51.09-.54.14-1.08.14-1.63,0-.41-.03-.81-.09-1.19-.21-1.51-1.02-4.86-5.32-5.66Z"/>
  </g>
  <g>
    <path class="cls-1" d="m223.23,160.99h-6.42l-1.41,3.8h-2.18l5.74-15.29h2.11l5.74,15.29h-2.18l-1.41-3.8Zm-.65-1.74l-2.06-5.54c-.16-.44-.32-1-.49-1.6h-.05c-.16.6-.32,1.16-.49,1.6l-2.04,5.54h5.12Z"/>
    <path class="cls-1" d="m235.87,153.91l-.51,2.06c-.23-.14-.56-.25-1.02-.25-1.23,0-2.62,1.09-2.62,3.36v5.72h-2.04v-10.93l1.44-.07c.19.83.28,2.06.28,2.55h.09c.42-1.44,1.34-2.62,2.96-2.62.49,0,1,.07,1.41.19Z"/>
    <path class="cls-1" d="m246.15,164.21s-1.09.72-2.87.72c-2.83,0-3.96-1.51-3.96-4.31v-5.12h-1.74v-1.64h1.74v-3.24l2.06-.12v3.36h4.24v1.64h-4.24v5.05c0,1.76.63,2.64,2.11,2.64,1.27,0,2.02-.63,2.02-.63l.65,1.64Z"/>
    <path class="cls-1" d="m258.45,153.86v10.93l-1.48.07c-.19-.83-.28-2.06-.28-2.32h-.02c-.6,1.32-1.76,2.39-3.64,2.39-2.62,0-4.26-1.76-4.26-4.38v-6.69h2.06v6.69c0,1.6.9,2.66,2.55,2.66,2.02,0,3.03-2.06,3.03-3.64v-5.72h2.04Z"/>
    <path class="cls-1" d="m268.8,153.91l-.51,2.06c-.23-.14-.56-.25-1.02-.25-1.23,0-2.62,1.09-2.62,3.36v5.72h-2.04v-10.93l1.44-.07c.19.83.28,2.06.28,2.55h.09c.42-1.44,1.34-2.62,2.96-2.62.49,0,1,.07,1.41.19Z"/>
    <path class="cls-1" d="m281.75,159.37c0,3.31-2.25,5.56-5.63,5.56s-5.63-2.25-5.63-5.56,2.25-5.65,5.63-5.65,5.63,2.34,5.63,5.65Zm-2.08,0c0-2.27-1.41-3.94-3.54-3.94s-3.54,1.67-3.54,3.94,1.41,3.84,3.54,3.84,3.54-1.57,3.54-3.84Z"/>
    <path class="cls-1" d="m296.2,151.22c-1.78,0-2.94.86-2.94,2.32,0,3.24,8.36,1.6,8.36,7.32,0,2.45-2.15,4.08-5.44,4.08-2.73,0-4.7-1.02-5.63-1.81l1.32-1.64c.63.56,1.99,1.6,4.31,1.6,2.11,0,3.36-.86,3.36-2.22,0-4.08-8.41-2.08-8.41-7.3,0-2.5,2.08-4.19,5.07-4.19,4.15,0,5.05,2.64,5.33,3.73l-1.97.49c-.14-.81-.97-2.36-3.36-2.36Z"/>
    <path class="cls-1" d="m306.69,159.88c.21,2.02,1.58,3.33,3.75,3.33,1.67,0,2.62-.79,3.1-1.44l1.25,1.13c-1.02,1.34-2.64,2.02-4.52,2.02-3.5,0-5.7-2.25-5.7-5.58s2.11-5.63,5.42-5.63,4.98,2.25,4.98,5.12c0,.65-.09,1.04-.09,1.04h-8.2Zm.05-1.46h6.16c-.02-1.81-1.16-2.99-2.9-2.99s-2.96,1.23-3.27,2.99Z"/>
    <path class="cls-1" d="m328.67,166.23c0,1.88-1.53,3.4-5.7,3.4-3.94,0-5.74-1.16-5.74-3.01,0-1.07.63-1.88,1.85-2.32-.65-.37-1.07-.95-1.07-1.85s.65-1.53,1.44-1.83c-.83-.69-1.3-1.69-1.3-2.89,0-2.39,1.85-3.98,4.66-3.98,1.3,0,2.41.35,3.22.95.79-.37,1.14-1.27,1.14-2.62l1.74.37c0,2.08-1.39,2.9-2.11,3.01.46.63.72,1.39.72,2.27,0,2.39-1.88,3.98-4.68,3.98-.72,0-1.39-.12-1.97-.3-.6.09-1,.35-1,.79,0,.76.88.95,2.39.95h2.27c2.59,0,4.15,1.07,4.15,3.08Zm-2.02,0c0-1.11-.88-1.34-2.52-1.34h-2.43c-1.92,0-2.45.65-2.45,1.44,0,1.11,1.07,1.6,3.73,1.6s3.68-.51,3.68-1.69Zm-6.44-8.5c0,1.39,1.02,2.29,2.59,2.29s2.64-.9,2.64-2.29-1.04-2.29-2.62-2.29-2.62.9-2.62,2.29Z"/>
    <path class="cls-1" d="m341.22,153.86v10.93l-1.48.07c-.19-.83-.28-2.06-.28-2.32h-.02c-.6,1.32-1.76,2.39-3.64,2.39-2.62,0-4.26-1.76-4.26-4.38v-6.69h2.06v6.69c0,1.6.9,2.66,2.55,2.66,2.02,0,3.03-2.06,3.03-3.64v-5.72h2.04Z"/>
    <path class="cls-1" d="m345.42,152.22l1.32-3.59h2.64l-2.11,3.47-1.85.12Zm0,1.64l2.06-.07v11h-2.06v-10.93Z"/>
    <path class="cls-1" d="m357.67,156.5h6.11v1.53h-6.11v-1.53Z"/>
    <path class="cls-1" d="m384.02,163.01v1.78h-9.73v-15.29h2.11v13.5h7.62Z"/>
    <path class="cls-1" d="m396.88,164.77s-.53.14-1.11.14c-1.13,0-1.97-.53-1.97-1.81v-.02h-.05c-.3.56-1.25,1.85-3.8,1.85-2.41,0-3.71-1.25-3.71-3.03,0-2.39,2.27-3.34,7.09-3.34h.32v-.69c0-1.48-.9-2.43-2.71-2.43-1.55,0-2.5.63-2.5,1.76,0,.25.05.39.12.56l-1.92.32s-.14-.42-.14-.95c0-1.99,1.71-3.4,4.49-3.4,2.96,0,4.7,1.6,4.7,4.12v4.42c0,.6.16.83.67.83.14,0,.3-.02.39-.05l.12,1.71Zm-3.22-3.75v-1.04h-.32c-3.73,0-5,.67-5,1.88,0,.86.65,1.37,2.04,1.37,2.13,0,3.29-1.18,3.29-2.2Z"/>
    <path class="cls-1" d="m417.51,154.67c0,3.31-2.08,5.19-5.74,5.19h-2.96v4.93h-2.11v-15.29h4.82c3.82,0,6,1.85,6,5.16Zm-2.13,0c0-2.15-1.44-3.38-4.01-3.38h-2.57v6.79h2.64c2.52,0,3.94-1.23,3.94-3.4Z"/>
    <path class="cls-1" d="m420.82,148.44h2.04v16.35h-2.04v-16.35Z"/>
    <path class="cls-1" d="m437.06,164.77s-.53.14-1.11.14c-1.13,0-1.97-.53-1.97-1.81v-.02h-.05c-.3.56-1.25,1.85-3.8,1.85-2.41,0-3.71-1.25-3.71-3.03,0-2.39,2.27-3.34,7.09-3.34h.32v-.69c0-1.48-.9-2.43-2.71-2.43-1.55,0-2.5.63-2.5,1.76,0,.25.05.39.12.56l-1.92.32s-.14-.42-.14-.95c0-1.99,1.71-3.4,4.49-3.4,2.96,0,4.7,1.6,4.7,4.12v4.42c0,.6.16.83.67.83.14,0,.3-.02.39-.05l.12,1.71Zm-3.22-3.75v-1.04h-.32c-3.73,0-5,.67-5,1.88,0,.86.65,1.37,2.04,1.37,2.13,0,3.29-1.18,3.29-2.2Z"/>
    <path class="cls-1" d="m447.55,164.21s-1.09.72-2.87.72c-2.83,0-3.96-1.51-3.96-4.31v-5.12h-1.74v-1.64h1.74v-3.24l2.06-.12v3.36h4.24v1.64h-4.24v5.05c0,1.76.63,2.64,2.11,2.64,1.27,0,2.02-.63,2.02-.63l.65,1.64Z"/>
    <path class="cls-1" d="m460.29,164.77s-.53.14-1.11.14c-1.13,0-1.97-.53-1.97-1.81v-.02h-.05c-.3.56-1.25,1.85-3.8,1.85-2.41,0-3.71-1.25-3.71-3.03,0-2.39,2.27-3.34,7.09-3.34h.32v-.69c0-1.48-.9-2.43-2.71-2.43-1.55,0-2.5.63-2.5,1.76,0,.25.05.39.12.56l-1.92.32s-.14-.42-.14-.95c0-1.99,1.71-3.4,4.49-3.4,2.96,0,4.7,1.6,4.7,4.12v4.42c0,.6.16.83.67.83.14,0,.3-.02.39-.05l.12,1.71Zm-3.22-3.75v-1.04h-.32c-3.73,0-5,.67-5,1.88,0,.86.65,1.37,2.04,1.37,2.13,0,3.29-1.18,3.29-2.2Z"/>
  </g>
  <path class="cls-1" d="m299.41,119.92c-.46,3.21-1.55,5.64-3.26,7.3-1.72,1.66-3.84,2.49-6.35,2.49-2.18,0-4.35-.59-6.53-1.76-2.18-1.17-4.12-2.92-5.84-5.24-1.72-2.32-2.95-5.08-3.69-8.29,3.09.74,5.9,1.12,8.41,1.12,5.27,0,9.67-1.24,13.22-3.73,3.55-2.49,5.32-5.94,5.32-10.35,0-4.64-2.09-8.01-6.27-10.13-4.18-2.12-9.13-3.18-14.85-3.18s-10.86,1.19-14.9,3.56c-.53.31-.36.19-.86.53.46,1.07.84,2.39.86,3.67.1,7.71-4.7,11.14-10.18,10.13-1.71,2.77-1.71,3.59-1.71,6.84,0,5.44,1.32,9.95,3.95,13.52,2.63,3.58,6.01,6.2,10.13,7.86,4.12,1.66,8.47,2.49,13.05,2.49,3.72,0,7.16-.67,10.3-2.02,3.15-1.34,5.7-3.29,7.64-5.84,1.95-2.55,3.03-5.54,3.26-8.97h-1.72Zm-26.45-12.54c0-4.98.83-9.2,2.49-12.67,1.66-3.46,3.95-5.19,6.87-5.19,1.2,0,2.1.66,2.7,1.97.6,1.32.9,3.01.9,5.07,0,4.75-.99,8.67-2.96,11.76-1.97,3.09-4.57,4.64-7.77,4.64-.4,0-1-.06-1.8-.17-.29-1.83-.43-3.63-.43-5.41Z"/>
  <path class="cls-1" d="m322.13,79.39c-4.02,8.27-14.25,10.74-19.33,9.95,5.02-3.58,12.06-6.83,12.06-6.83,0,0-6.85,1.78-12.65,5.87.68-1.72,2.48-4.82,5.6-7.08,4.01-2.92,8.83-3.56,14.32-1.9Z"/>
  <path class="cls-1" d="m305.14,119.36h1.2c.4,2.58,1.67,5.04,3.82,7.38,2.15,2.35,4.61,4.22,7.38,5.62,2.78,1.4,5.19,2.1,7.26,2.1,2.58,0,3.86-1.09,3.86-3.26,0-1.14-.37-2.39-1.12-3.73-.74-1.34-1.95-2.62-3.61-3.82l-1.46-1.03c-3.89-2.92-7.08-5.39-9.57-7.43-2.49-2.03-4.69-4.25-6.61-6.65-1.92-2.4-2.88-4.66-2.88-6.78,0-2.69.87-5.02,2.62-7,1.75-1.97,4.09-3.48,7.04-4.51,2.95-1.03,6.25-1.55,9.92-1.55,1.66,0,3.31.19,4.94.56,1.63.37,3.42.87,5.37,1.5,2.46.74,4.09,1.12,4.89,1.12.74,0,1.29-.19,1.63-.56.34-.37.51-.99.51-1.85h1.2v14.51h-1.2c0-2.4-.79-4.62-2.36-6.65-1.57-2.03-3.49-3.63-5.75-4.81-2.26-1.17-4.37-1.76-6.31-1.76-1.37,0-2.48.33-3.31.99-.83.66-1.24,1.65-1.24,2.96,0,1.83.53,3.52,1.59,5.07,1.06,1.55,2.35,2.89,3.86,4.04,1.52,1.15,3.62,2.61,6.31,4.38,2.86,1.83,5.12,3.39,6.78,4.68,1.66,1.29,3.08,2.82,4.25,4.59,1.17,1.77,1.76,3.75,1.76,5.92,0,2.29-.7,4.39-2.1,6.31-1.4,1.92-3.52,3.46-6.35,4.64-2.83,1.17-6.34,1.76-10.52,1.76-1.15,0-2-.03-2.58-.09-.92-.06-2.08-.17-3.48-.34-1.4-.17-2.45-.29-3.13-.34-3.38-.51-5.98-.77-7.81-.77-1.6,0-2.63.51-3.09,1.55h-1.72v-16.74Z"/>
  <path class="cls-1" d="m399.17,95.75c-1-2.43-3.71-4.16-6.2-5.28-2.49-1.12-5.19-1.67-8.11-1.67s-5.88.63-8.72,1.89c-2.83,1.26-5.25,3.12-7.26,5.58v-6.78h-25.5v1.2c1.49.23,2.56.72,3.22,1.46.66.74,1.1,2,1.33,3.78.23,1.77.34,4.67.34,8.67v20.69c0,2-.33,3.84-.99,5.5-.66,1.66-1.96,3.03-3.91,4.12v1.2h30.4v-1.2c-1.95-1.09-3.25-2.45-3.91-4.08-.66-1.63-.99-3.48-.99-5.54v-26.79c1.77-1.89,3.69-2.83,5.75-2.83,1.72,0,3.15.73,4.29,2.19,1.14,1.46,1.72,3.56,1.72,6.31v21.12c0,2-.33,3.84-.99,5.5-.66,1.66-1.96,3.03-3.91,4.12v1.2h30.4v-1.2c-1.95-1.09-3.25-2.45-3.91-4.08-.66-1.63-.99-3.48-.99-5.54,0,0,.74-22.65-2.09-29.54Z"/>
  <path class="cls-1" d="m419.51,133.76c-4.28-1.59-7.9-4.13-10.86-7.61-2.96-3.48-4.44-7.91-4.44-13.29,0-5.76,1.47-10.38,4.4-13.87,2.93-3.48,6.51-5.94,10.74-7.37,4.22-1.43,8.48-2.14,12.76-2.14s8.22.71,12.47,2.14c4.25,1.43,7.9,3.88,10.95,7.37,3.04,3.49,4.57,8.11,4.57,13.87,0,5.32-1.52,9.74-4.57,13.25-3.04,3.51-6.74,6.06-11.07,7.65-4.33,1.59-8.45,2.39-12.35,2.39-4.12,0-8.31-.8-12.59-2.39Zm17.71-5.8c1.15-4.36,1.73-9.51,1.73-15.43s-.56-10.84-1.69-15.06c-1.13-4.22-2.73-6.34-4.81-6.34-2.47,0-4.4,2.14-5.8,6.42-1.4,4.28-2.1,9.36-2.1,15.23s.7,10.96,2.1,15.27c1.4,4.31,3.33,6.46,5.8,6.46,2.03,0,3.62-2.18,4.77-6.54Z"/>
  <path class="cls-1" d="m495.36,110.9c-1.2-.84-2.44-1.66-4-2.66-2.69-1.77-4.8-3.23-6.31-4.38-1.52-1.14-2.81-2.49-3.86-4.04-1.06-1.55-1.59-3.23-1.59-5.07,0-1.32.41-2.3,1.24-2.96.83-.66,1.93-.99,3.31-.99,1.95,0,4.05.59,6.31,1.76,2.26,1.17,4.18,2.78,5.75,4.81,1.57,2.03,2.36,4.25,2.36,6.65h1.2v-14.51h-1.2c0,.86-.17,1.47-.51,1.85-.34.37-.89.56-1.63.56-.8,0-2.43-.37-4.89-1.12-1.95-.63-3.74-1.13-5.37-1.5-1.63-.37-3.28-.56-4.94-.56-3.66,0-6.97.51-9.92,1.55-2.95,1.03-5.3,2.53-7.04,4.51-.14.16-.27.33-.4.5-1.47,1.87-2.22,4.03-2.22,6.5,0,2.12.96,4.38,2.88,6.78,1.92,2.4,4.12,4.62,6.61,6.65.31.25.63.52.97.78,2.33,1.87,5.2,4.09,8.61,6.64l1.46,1.03c1.66,1.2,2.86,2.48,3.61,3.82.74,1.35,1.12,2.59,1.12,3.73,0,2.18-1.29,3.26-3.86,3.26-2.06,0-4.48-.7-7.26-2.1-2.78-1.4-5.24-3.28-7.38-5.62-.12-.14-.23-.27-.35-.41-1.93-2.22-3.09-4.55-3.47-6.98h-1.2v16.74h1.72c.46-1.03,1.49-1.55,3.09-1.55,1.83,0,4.44.26,7.81.77.69.06,1.73.17,3.13.34,1.4.17,2.56.29,3.48.34.57.06,1.43.09,2.58.09,4.18,0,7.68-.59,10.52-1.76,1.03-.43,1.8-.8,2.64-1.33-6.92-10.95-2.98-22.16-2.98-22.16Z"/>
  <path class="cls-1" d="m188.68,99.26c-3.21,1.74-6.06,4.11-8.37,6.9-2.25,2.72-3.98,5.82-5.01,9.11-1.75,5.62-1.28,11.07,1.37,15.78.1.18.2.34.31.51.42.48.76.93,1.03,1.33,0,0,0,0,0,0-.32-.35-.67-.78-1.02-1.34-1.26-1.46-3.19-3.18-5.72-4.35-4.5-2.08-9.35-1.77-14.42.92,4.92,6.49,13.73,7.57,19.04,6.51.68-.14,1.31-.31,1.86-.51-.23-.1-.47-.21-.7-.31-5.53-2.37-12.45-4.05-12.45-4.05,0,0,6.92.41,13.35,3.21.07.03.14.06.2.09-.02-.04-.05-.08-.08-.12.04.04.07.08.11.11.01,0,.02.01.03.02-.01-.13-.02-.25-.03-.38-.6-6.72.6-12.52,2.16-16.94,1.98-5.61,4.52-8.99,4.66-9.17-.18.33-3.65,6.86-4.66,16.55-.17,1.62-.27,3.33-.27,5.12,0,1.63.07,3.31.25,5.05.2-.11,0,0,.23-.15,3.83-2.55,11.87-10.82,8.16-33.91Z"/>
  <g>
    <path class="cls-1" d="m509.6,130.71c-1.73.88-3.03,2.13-3.86,3.17-.23.39-.46.71-.67.96.02.02.03.04.05.06,4.4-2.12,9.19-2.58,9.19-2.58,0,0-4.77,1.35-8.55,3.14-.16.08-.32.15-.48.23.39.13.83.23,1.31.3,3.72.6,9.81-.38,13.06-5.03-3.59-1.74-6.97-1.82-10.05-.26Z"/>
    <path class="cls-1" d="m506.48,122.52c-.8-2.26-2.09-4.37-3.72-6.2-1.68-1.87-3.72-3.45-6-4.57,0,0,0,0,0,0-1.46,11.98,1.36,18.12,4.03,21.17.93,1.06,1.83,1.75,2.54,2.18.16.1.02.03.16.1.08-1.21.08-2.39.04-3.52-.02-.41-.05-.81-.08-1.21-.06-.8-.14-1.59-.24-2.33-.95-6.71-3.54-11.15-3.67-11.38.1.12,1.96,2.4,3.48,6.25.65,1.63,1.23,3.55,1.59,5.7.31,1.84.46,3.85.35,6.01.04.04.07.08.11.12.17-.28.4-.6.68-.95.07-.11.13-.23.2-.36,1.72-3.34,1.9-7.14.54-11Z"/>
  </g>
</svg>